%TF.GenerationSoftware,KiCad,Pcbnew,10.0.3*%
%TF.CreationDate,2026-07-06T17:14:54-04:00*%
%TF.ProjectId,SAS_PCBv2,5341535f-5043-4427-9632-2e6b69636164,rev?*%
%TF.SameCoordinates,Original*%
%TF.FileFunction,Soldermask,Top*%
%TF.FilePolarity,Negative*%
%FSLAX46Y46*%
G04 Gerber Fmt 4.6, Leading zero omitted, Abs format (unit mm)*
G04 Created by KiCad (PCBNEW 10.0.3) date 2026-07-06 17:14:54*
%MOMM*%
%LPD*%
G01*
G04 APERTURE LIST*
G04 Aperture macros list*
%AMRoundRect*
0 Rectangle with rounded corners*
0 $1 Rounding radius*
0 $2 $3 $4 $5 $6 $7 $8 $9 X,Y pos of 4 corners*
0 Add a 4 corners polygon primitive as box body*
4,1,4,$2,$3,$4,$5,$6,$7,$8,$9,$2,$3,0*
0 Add four circle primitives for the rounded corners*
1,1,$1+$1,$2,$3*
1,1,$1+$1,$4,$5*
1,1,$1+$1,$6,$7*
1,1,$1+$1,$8,$9*
0 Add four rect primitives between the rounded corners*
20,1,$1+$1,$2,$3,$4,$5,0*
20,1,$1+$1,$4,$5,$6,$7,0*
20,1,$1+$1,$6,$7,$8,$9,0*
20,1,$1+$1,$8,$9,$2,$3,0*%
G04 Aperture macros list end*
%ADD10C,1.600000*%
%ADD11R,2.000000X1.905000*%
%ADD12O,2.000000X1.905000*%
%ADD13R,1.700000X1.700000*%
%ADD14C,1.700000*%
%ADD15RoundRect,0.250000X0.550000X-0.550000X0.550000X0.550000X-0.550000X0.550000X-0.550000X-0.550000X0*%
%ADD16R,1.270000X1.270000*%
%ADD17C,1.270000*%
%ADD18R,1.500000X1.050000*%
%ADD19O,1.500000X1.050000*%
%ADD20C,1.371600*%
%ADD21R,1.651000X1.651000*%
%ADD22C,1.651000*%
%ADD23C,3.200000*%
%ADD24C,2.500000*%
%ADD25R,2.794000X0.762000*%
%ADD26C,2.057400*%
%ADD27R,1.500000X1.500000*%
%ADD28C,1.500000*%
%ADD29RoundRect,0.250000X-0.550000X0.550000X-0.550000X-0.550000X0.550000X-0.550000X0.550000X0.550000X0*%
%ADD30C,2.700000*%
%ADD31R,1.371600X1.371600*%
%ADD32C,3.000000*%
%ADD33RoundRect,0.250000X0.550000X0.550000X-0.550000X0.550000X-0.550000X-0.550000X0.550000X-0.550000X0*%
G04 APERTURE END LIST*
D10*
%TO.C,R12*%
X149920000Y-101500000D03*
X160080000Y-101500000D03*
%TD*%
D11*
%TO.C,U2*%
X164448306Y-101406365D03*
D12*
X164448306Y-103946365D03*
X164448306Y-106486365D03*
%TD*%
D10*
%TO.C,R11*%
X234500000Y-52920000D03*
X234500000Y-63080000D03*
%TD*%
D13*
%TO.C,J2*%
X208780000Y-53540000D03*
D14*
X208780000Y-51000000D03*
X206240000Y-53540000D03*
X206240000Y-51000000D03*
X203700000Y-53540000D03*
X203700000Y-51000000D03*
X201160000Y-53540000D03*
X201160000Y-51000000D03*
X198620000Y-53540000D03*
X198620000Y-51000000D03*
X196080000Y-53540000D03*
X196080000Y-51000000D03*
X193540000Y-53540000D03*
X193540000Y-51000000D03*
X191000000Y-53540000D03*
X191000000Y-51000000D03*
X188460000Y-53540000D03*
X188460000Y-51000000D03*
X185920000Y-53540000D03*
X185920000Y-51000000D03*
X183380000Y-53540000D03*
X183380000Y-51000000D03*
X180840000Y-53540000D03*
X180840000Y-51000000D03*
X178300000Y-53540000D03*
X178300000Y-51000000D03*
X175760000Y-53540000D03*
X175760000Y-51000000D03*
X173220000Y-53540000D03*
X173220000Y-51000000D03*
X170680000Y-53540000D03*
X170680000Y-51000000D03*
X168140000Y-53540000D03*
X168140000Y-51000000D03*
X165600000Y-53540000D03*
X165600000Y-51000000D03*
X163060000Y-53540000D03*
X163060000Y-51000000D03*
X160520000Y-53540000D03*
X160520000Y-51000000D03*
%TD*%
D15*
%TO.C,C2*%
X135500000Y-66455113D03*
D10*
X135500000Y-64455113D03*
%TD*%
D13*
%TO.C,J8*%
X229000000Y-103775000D03*
D14*
X229000000Y-101235000D03*
%TD*%
D10*
%TO.C,R4*%
X177288306Y-109986365D03*
X187448306Y-109986365D03*
%TD*%
D13*
%TO.C,J10*%
X150380000Y-113000000D03*
D14*
X152920000Y-113000000D03*
X155460000Y-113000000D03*
X158000000Y-113000000D03*
%TD*%
D16*
%TO.C,C16*%
X173218306Y-105486365D03*
D17*
X170678306Y-105486365D03*
%TD*%
D18*
%TO.C,Q4*%
X212500000Y-110770000D03*
D19*
X212500000Y-109500000D03*
X212500000Y-108230000D03*
%TD*%
D13*
%TO.C,J12*%
X198000000Y-102460000D03*
D14*
X198000000Y-105000000D03*
X198000000Y-107540000D03*
X198000000Y-110080000D03*
%TD*%
D10*
%TO.C,R3*%
X177368306Y-105486365D03*
X187528306Y-105486365D03*
%TD*%
D20*
%TO.C,C6*%
X234500000Y-94250000D03*
X234500000Y-96750000D03*
%TD*%
D13*
%TO.C,J6*%
X223500000Y-112275000D03*
D14*
X223500000Y-109735000D03*
%TD*%
D20*
%TO.C,C4*%
X190698306Y-105486365D03*
X193198306Y-105486365D03*
%TD*%
D13*
%TO.C,J5*%
X229000000Y-112287878D03*
D14*
X229000000Y-109747878D03*
%TD*%
D21*
%TO.C,MOSFET1*%
X226500000Y-56500000D03*
D22*
X226500000Y-53960000D03*
X226500000Y-51420000D03*
%TD*%
D13*
%TO.C,J7*%
X234500000Y-103775000D03*
D14*
X234500000Y-101235000D03*
%TD*%
D13*
%TO.C,J9*%
X223500000Y-103775000D03*
D14*
X223500000Y-101235000D03*
%TD*%
D13*
%TO.C,J3*%
X135500000Y-57500000D03*
D14*
X135500000Y-60040000D03*
%TD*%
D20*
%TO.C,C5*%
X190698306Y-109986365D03*
X193198306Y-109986365D03*
%TD*%
D10*
%TO.C,R13*%
X203500000Y-111080000D03*
X203500000Y-100920000D03*
%TD*%
%TO.C,R14*%
X149920000Y-105500000D03*
X160080000Y-105500000D03*
%TD*%
D23*
%TO.C,MOD1*%
X155000000Y-61000000D03*
X155000000Y-93000000D03*
X217000000Y-61000000D03*
X217000000Y-93000000D03*
D24*
X154540000Y-74460000D03*
X154540000Y-79540000D03*
X217460000Y-79540000D03*
X217460000Y-74460000D03*
%TD*%
D10*
%TO.C,R8*%
X148580000Y-89000000D03*
X138420000Y-89000000D03*
%TD*%
D25*
%TO.C,J17*%
X144775700Y-95818400D03*
X144775700Y-96818401D03*
X144775700Y-97818399D03*
X144775700Y-98818400D03*
D26*
X138925826Y-92618399D03*
X138925826Y-102018401D03*
X136775701Y-92618384D03*
X136775701Y-102018416D03*
%TD*%
D13*
%TO.C,J4*%
X234500000Y-112287878D03*
D14*
X234500000Y-109747878D03*
%TD*%
D10*
%TO.C,R7*%
X224500000Y-80420000D03*
X224500000Y-90580000D03*
%TD*%
%TO.C,R5*%
X234500000Y-80420000D03*
X234500000Y-90580000D03*
%TD*%
D27*
%TO.C,Q3*%
X228540000Y-68050000D03*
D28*
X226000000Y-68050000D03*
X223460000Y-68050000D03*
%TD*%
D13*
%TO.C,J14*%
X133380000Y-85000000D03*
D14*
X135920000Y-85000000D03*
X138460000Y-85000000D03*
X141000000Y-85000000D03*
%TD*%
D29*
%TO.C,C14*%
X233000000Y-73500000D03*
D10*
X233000000Y-75500000D03*
%TD*%
D20*
%TO.C,C7*%
X229500000Y-94250000D03*
X229500000Y-96750000D03*
%TD*%
D16*
%TO.C,C9*%
X231730000Y-68000000D03*
D17*
X234270000Y-68000000D03*
%TD*%
D20*
%TO.C,C3*%
X190698306Y-100986365D03*
X193198306Y-100986365D03*
%TD*%
D13*
%TO.C,J11*%
X150380000Y-109000000D03*
D14*
X152920000Y-109000000D03*
X155460000Y-109000000D03*
X158000000Y-109000000D03*
%TD*%
D27*
%TO.C,Q2*%
X228550000Y-62050000D03*
D28*
X226010000Y-62050000D03*
X223470000Y-62050000D03*
%TD*%
D29*
%TO.C,C11*%
X225500000Y-73500000D03*
D10*
X225500000Y-75500000D03*
%TD*%
D25*
%TO.C,J16*%
X144869300Y-107799984D03*
X144869300Y-108799985D03*
X144869300Y-109799983D03*
X144869300Y-110799984D03*
D26*
X139019426Y-104599983D03*
X139019426Y-113999985D03*
X136869301Y-104599968D03*
X136869301Y-114000000D03*
%TD*%
D30*
%TO.C,REF\u002A\u002A*%
X234500000Y-47500000D03*
%TD*%
D10*
%TO.C,R6*%
X229500000Y-80420000D03*
X229500000Y-90580000D03*
%TD*%
D15*
%TO.C,SW1*%
X135512500Y-78410000D03*
D10*
X135512500Y-70790000D03*
%TD*%
D30*
%TO.C,REF\u002A\u002A*%
X134000000Y-47500000D03*
%TD*%
D13*
%TO.C,J1*%
X218500000Y-113000000D03*
D14*
X218500000Y-110460000D03*
X218500000Y-107920000D03*
X218500000Y-105380000D03*
X218500000Y-102840000D03*
X218500000Y-100300000D03*
%TD*%
D31*
%TO.C,C1*%
X142494800Y-51000000D03*
D20*
X146000000Y-51000000D03*
%TD*%
D10*
%TO.C,R10*%
X231500000Y-52920000D03*
X231500000Y-63080000D03*
%TD*%
D20*
%TO.C,C10*%
X173198306Y-100986365D03*
X170698306Y-100986365D03*
%TD*%
D30*
%TO.C,REF\u002A\u002A*%
X134000000Y-118500000D03*
%TD*%
D10*
%TO.C,R1*%
X206500000Y-111080000D03*
X206500000Y-100920000D03*
%TD*%
%TO.C,R2*%
X177368306Y-100986365D03*
X187528306Y-100986365D03*
%TD*%
D30*
%TO.C,F1*%
X144000000Y-69000000D03*
D32*
X144000000Y-57750000D03*
X144000000Y-80250000D03*
%TD*%
D33*
%TO.C,C15*%
X172903419Y-110486365D03*
D10*
X170903419Y-110486365D03*
%TD*%
D18*
%TO.C,Q5*%
X212500000Y-103770000D03*
D19*
X212500000Y-102500000D03*
X212500000Y-101230000D03*
%TD*%
D20*
%TO.C,C8*%
X224500000Y-94250000D03*
X224500000Y-96750000D03*
%TD*%
D30*
%TO.C,REF\u002A\u002A*%
X234500000Y-118500000D03*
%TD*%
M02*
