M48
; DRILL file KiCad 10.0.3 date 2026-07-06T17:15:43
; FORMAT={-:-/ absolute / metric / decimal}
; #@! TF.CreationDate,2026-07-06T17:15:43-04:00
; #@! TF.GenerationSoftware,Kicad,Pcbnew,10.0.3
; #@! TF.FileFunction,Plated,1,2,PTH
FMAT,2
METRIC
; #@! TA.AperFunction,Plated,PTH,ViaDrill
T1C0.300
; #@! TA.AperFunction,Plated,PTH,ComponentDrill
T2C0.750
; #@! TA.AperFunction,Plated,PTH,ComponentDrill
T3C0.762
; #@! TA.AperFunction,Plated,PTH,ComponentDrill
T4C0.800
; #@! TA.AperFunction,Plated,PTH,ComponentDrill
T5C0.864
; #@! TA.AperFunction,Plated,PTH,ComponentDrill
T6C1.000
; #@! TA.AperFunction,Plated,PTH,ComponentDrill
T7C1.100
; #@! TA.AperFunction,Plated,PTH,ComponentDrill
T8C1.143
; #@! TA.AperFunction,Plated,PTH,ComponentDrill
T9C1.295
; #@! TA.AperFunction,Plated,PTH,ComponentDrill
T10C1.300
%
G90
G05
T1
X162.0Y-99.0
X163.5Y-97.0
X188.8Y-114.3
X191.5Y-66.0
X206.0Y-96.0
X208.0Y-96.0
X217.0Y-50.0
X218.0Y-88.5
T2
X212.5Y-101.23
X212.5Y-102.5
X212.5Y-103.77
X212.5Y-108.23
X212.5Y-109.5
X212.5Y-110.77
T3
X170.678Y-105.486
X173.218Y-105.486
X231.73Y-68.0
X234.27Y-68.0
T4
X135.5Y-64.455
X135.5Y-66.455
X135.512Y-70.79
X135.512Y-78.41
X138.42Y-89.0
X148.58Y-89.0
X149.92Y-101.5
X149.92Y-105.5
X160.08Y-101.5
X160.08Y-105.5
X170.903Y-110.486
X172.903Y-110.486
X177.288Y-109.986
X177.368Y-100.986
X177.368Y-105.486
X187.448Y-109.986
X187.528Y-100.986
X187.528Y-105.486
X203.5Y-100.92
X203.5Y-111.08
X206.5Y-100.92
X206.5Y-111.08
X223.46Y-68.05
X223.47Y-62.05
X224.5Y-80.42
X224.5Y-90.58
X225.5Y-73.5
X225.5Y-75.5
X226.0Y-68.05
X226.01Y-62.05
X228.54Y-68.05
X228.55Y-62.05
X229.5Y-80.42
X229.5Y-90.58
X231.5Y-52.92
X231.5Y-63.08
X233.0Y-73.5
X233.0Y-75.5
X234.5Y-52.92
X234.5Y-63.08
X234.5Y-80.42
X234.5Y-90.58
T5
X142.495Y-51.0
X146.0Y-51.0
X170.698Y-100.986
X173.198Y-100.986
X190.698Y-100.986
X190.698Y-105.486
X190.698Y-109.986
X193.198Y-100.986
X193.198Y-105.486
X193.198Y-109.986
X224.5Y-94.25
X224.5Y-96.75
X229.5Y-94.25
X229.5Y-96.75
X234.5Y-94.25
X234.5Y-96.75
T6
X133.38Y-85.0
X135.5Y-57.5
X135.5Y-60.04
X135.92Y-85.0
X138.46Y-85.0
X141.0Y-85.0
X150.38Y-109.0
X150.38Y-113.0
X152.92Y-109.0
X152.92Y-113.0
X155.46Y-109.0
X155.46Y-113.0
X158.0Y-109.0
X158.0Y-113.0
X160.52Y-51.0
X160.52Y-53.54
X163.06Y-51.0
X163.06Y-53.54
X165.6Y-51.0
X165.6Y-53.54
X168.14Y-51.0
X168.14Y-53.54
X170.68Y-51.0
X170.68Y-53.54
X173.22Y-51.0
X173.22Y-53.54
X175.76Y-51.0
X175.76Y-53.54
X178.3Y-51.0
X178.3Y-53.54
X180.84Y-51.0
X180.84Y-53.54
X183.38Y-51.0
X183.38Y-53.54
X185.92Y-51.0
X185.92Y-53.54
X188.46Y-51.0
X188.46Y-53.54
X191.0Y-51.0
X191.0Y-53.54
X193.54Y-51.0
X193.54Y-53.54
X196.08Y-51.0
X196.08Y-53.54
X198.0Y-102.46
X198.0Y-105.0
X198.0Y-107.54
X198.0Y-110.08
X198.62Y-51.0
X198.62Y-53.54
X201.16Y-51.0
X201.16Y-53.54
X203.7Y-51.0
X203.7Y-53.54
X206.24Y-51.0
X206.24Y-53.54
X208.78Y-51.0
X208.78Y-53.54
X218.5Y-100.3
X218.5Y-102.84
X218.5Y-105.38
X218.5Y-107.92
X218.5Y-110.46
X218.5Y-113.0
X223.5Y-101.235
X223.5Y-103.775
X223.5Y-109.735
X223.5Y-112.275
X229.0Y-101.235
X229.0Y-103.775
X229.0Y-109.748
X229.0Y-112.288
X234.5Y-101.235
X234.5Y-103.775
X234.5Y-109.748
X234.5Y-112.288
T7
X164.448Y-101.406
X164.448Y-103.946
X164.448Y-106.486
T8
X226.5Y-51.42
X226.5Y-53.96
X226.5Y-56.5
T9
X136.776Y-92.618
X136.776Y-102.018
X136.869Y-104.6
X136.869Y-114.0
X138.926Y-92.618
X138.926Y-102.018
X139.019Y-104.6
X139.019Y-114.0
T10
X144.0Y-57.75
X144.0Y-80.25
X154.54Y-74.46
X154.54Y-79.54
X217.46Y-74.46
X217.46Y-79.54
M30
