%TF.GenerationSoftware,KiCad,Pcbnew,10.0.3*%
%TF.CreationDate,2026-07-06T17:14:54-04:00*%
%TF.ProjectId,SAS_PCBv2,5341535f-5043-4427-9632-2e6b69636164,rev?*%
%TF.SameCoordinates,Original*%
%TF.FileFunction,Legend,Top*%
%TF.FilePolarity,Positive*%
%FSLAX46Y46*%
G04 Gerber Fmt 4.6, Leading zero omitted, Abs format (unit mm)*
G04 Created by KiCad (PCBNEW 10.0.3) date 2026-07-06 17:14:54*
%MOMM*%
%LPD*%
G01*
G04 APERTURE LIST*
%ADD10C,0.150000*%
%ADD11C,0.120000*%
%ADD12C,0.152400*%
%ADD13C,0.508000*%
G04 APERTURE END LIST*
D10*
X154357142Y-99584819D02*
X154023809Y-99108628D01*
X153785714Y-99584819D02*
X153785714Y-98584819D01*
X153785714Y-98584819D02*
X154166666Y-98584819D01*
X154166666Y-98584819D02*
X154261904Y-98632438D01*
X154261904Y-98632438D02*
X154309523Y-98680057D01*
X154309523Y-98680057D02*
X154357142Y-98775295D01*
X154357142Y-98775295D02*
X154357142Y-98918152D01*
X154357142Y-98918152D02*
X154309523Y-99013390D01*
X154309523Y-99013390D02*
X154261904Y-99061009D01*
X154261904Y-99061009D02*
X154166666Y-99108628D01*
X154166666Y-99108628D02*
X153785714Y-99108628D01*
X155309523Y-99584819D02*
X154738095Y-99584819D01*
X155023809Y-99584819D02*
X155023809Y-98584819D01*
X155023809Y-98584819D02*
X154928571Y-98727676D01*
X154928571Y-98727676D02*
X154833333Y-98822914D01*
X154833333Y-98822914D02*
X154738095Y-98870533D01*
X155690476Y-98680057D02*
X155738095Y-98632438D01*
X155738095Y-98632438D02*
X155833333Y-98584819D01*
X155833333Y-98584819D02*
X156071428Y-98584819D01*
X156071428Y-98584819D02*
X156166666Y-98632438D01*
X156166666Y-98632438D02*
X156214285Y-98680057D01*
X156214285Y-98680057D02*
X156261904Y-98775295D01*
X156261904Y-98775295D02*
X156261904Y-98870533D01*
X156261904Y-98870533D02*
X156214285Y-99013390D01*
X156214285Y-99013390D02*
X155642857Y-99584819D01*
X155642857Y-99584819D02*
X156261904Y-99584819D01*
X166353125Y-101208269D02*
X167162648Y-101208269D01*
X167162648Y-101208269D02*
X167257886Y-101160650D01*
X167257886Y-101160650D02*
X167305506Y-101113031D01*
X167305506Y-101113031D02*
X167353125Y-101017793D01*
X167353125Y-101017793D02*
X167353125Y-100827317D01*
X167353125Y-100827317D02*
X167305506Y-100732079D01*
X167305506Y-100732079D02*
X167257886Y-100684460D01*
X167257886Y-100684460D02*
X167162648Y-100636841D01*
X167162648Y-100636841D02*
X166353125Y-100636841D01*
X166448363Y-100208269D02*
X166400744Y-100160650D01*
X166400744Y-100160650D02*
X166353125Y-100065412D01*
X166353125Y-100065412D02*
X166353125Y-99827317D01*
X166353125Y-99827317D02*
X166400744Y-99732079D01*
X166400744Y-99732079D02*
X166448363Y-99684460D01*
X166448363Y-99684460D02*
X166543601Y-99636841D01*
X166543601Y-99636841D02*
X166638839Y-99636841D01*
X166638839Y-99636841D02*
X166781696Y-99684460D01*
X166781696Y-99684460D02*
X167353125Y-100255888D01*
X167353125Y-100255888D02*
X167353125Y-99636841D01*
X237324819Y-58642857D02*
X236848628Y-58976190D01*
X237324819Y-59214285D02*
X236324819Y-59214285D01*
X236324819Y-59214285D02*
X236324819Y-58833333D01*
X236324819Y-58833333D02*
X236372438Y-58738095D01*
X236372438Y-58738095D02*
X236420057Y-58690476D01*
X236420057Y-58690476D02*
X236515295Y-58642857D01*
X236515295Y-58642857D02*
X236658152Y-58642857D01*
X236658152Y-58642857D02*
X236753390Y-58690476D01*
X236753390Y-58690476D02*
X236801009Y-58738095D01*
X236801009Y-58738095D02*
X236848628Y-58833333D01*
X236848628Y-58833333D02*
X236848628Y-59214285D01*
X237324819Y-57690476D02*
X237324819Y-58261904D01*
X237324819Y-57976190D02*
X236324819Y-57976190D01*
X236324819Y-57976190D02*
X236467676Y-58071428D01*
X236467676Y-58071428D02*
X236562914Y-58166666D01*
X236562914Y-58166666D02*
X236610533Y-58261904D01*
X237324819Y-56738095D02*
X237324819Y-57309523D01*
X237324819Y-57023809D02*
X236324819Y-57023809D01*
X236324819Y-57023809D02*
X236467676Y-57119047D01*
X236467676Y-57119047D02*
X236562914Y-57214285D01*
X236562914Y-57214285D02*
X236610533Y-57309523D01*
X211004819Y-52603333D02*
X211719104Y-52603333D01*
X211719104Y-52603333D02*
X211861961Y-52650952D01*
X211861961Y-52650952D02*
X211957200Y-52746190D01*
X211957200Y-52746190D02*
X212004819Y-52889047D01*
X212004819Y-52889047D02*
X212004819Y-52984285D01*
X211100057Y-52174761D02*
X211052438Y-52127142D01*
X211052438Y-52127142D02*
X211004819Y-52031904D01*
X211004819Y-52031904D02*
X211004819Y-51793809D01*
X211004819Y-51793809D02*
X211052438Y-51698571D01*
X211052438Y-51698571D02*
X211100057Y-51650952D01*
X211100057Y-51650952D02*
X211195295Y-51603333D01*
X211195295Y-51603333D02*
X211290533Y-51603333D01*
X211290533Y-51603333D02*
X211433390Y-51650952D01*
X211433390Y-51650952D02*
X212004819Y-52222380D01*
X212004819Y-52222380D02*
X212004819Y-51603333D01*
X132109580Y-65621779D02*
X132157200Y-65669398D01*
X132157200Y-65669398D02*
X132204819Y-65812255D01*
X132204819Y-65812255D02*
X132204819Y-65907493D01*
X132204819Y-65907493D02*
X132157200Y-66050350D01*
X132157200Y-66050350D02*
X132061961Y-66145588D01*
X132061961Y-66145588D02*
X131966723Y-66193207D01*
X131966723Y-66193207D02*
X131776247Y-66240826D01*
X131776247Y-66240826D02*
X131633390Y-66240826D01*
X131633390Y-66240826D02*
X131442914Y-66193207D01*
X131442914Y-66193207D02*
X131347676Y-66145588D01*
X131347676Y-66145588D02*
X131252438Y-66050350D01*
X131252438Y-66050350D02*
X131204819Y-65907493D01*
X131204819Y-65907493D02*
X131204819Y-65812255D01*
X131204819Y-65812255D02*
X131252438Y-65669398D01*
X131252438Y-65669398D02*
X131300057Y-65621779D01*
X131300057Y-65240826D02*
X131252438Y-65193207D01*
X131252438Y-65193207D02*
X131204819Y-65097969D01*
X131204819Y-65097969D02*
X131204819Y-64859874D01*
X131204819Y-64859874D02*
X131252438Y-64764636D01*
X131252438Y-64764636D02*
X131300057Y-64717017D01*
X131300057Y-64717017D02*
X131395295Y-64669398D01*
X131395295Y-64669398D02*
X131490533Y-64669398D01*
X131490533Y-64669398D02*
X131633390Y-64717017D01*
X131633390Y-64717017D02*
X132204819Y-65288445D01*
X132204819Y-65288445D02*
X132204819Y-64669398D01*
X228666666Y-105609819D02*
X228666666Y-106324104D01*
X228666666Y-106324104D02*
X228619047Y-106466961D01*
X228619047Y-106466961D02*
X228523809Y-106562200D01*
X228523809Y-106562200D02*
X228380952Y-106609819D01*
X228380952Y-106609819D02*
X228285714Y-106609819D01*
X229285714Y-106038390D02*
X229190476Y-105990771D01*
X229190476Y-105990771D02*
X229142857Y-105943152D01*
X229142857Y-105943152D02*
X229095238Y-105847914D01*
X229095238Y-105847914D02*
X229095238Y-105800295D01*
X229095238Y-105800295D02*
X229142857Y-105705057D01*
X229142857Y-105705057D02*
X229190476Y-105657438D01*
X229190476Y-105657438D02*
X229285714Y-105609819D01*
X229285714Y-105609819D02*
X229476190Y-105609819D01*
X229476190Y-105609819D02*
X229571428Y-105657438D01*
X229571428Y-105657438D02*
X229619047Y-105705057D01*
X229619047Y-105705057D02*
X229666666Y-105800295D01*
X229666666Y-105800295D02*
X229666666Y-105847914D01*
X229666666Y-105847914D02*
X229619047Y-105943152D01*
X229619047Y-105943152D02*
X229571428Y-105990771D01*
X229571428Y-105990771D02*
X229476190Y-106038390D01*
X229476190Y-106038390D02*
X229285714Y-106038390D01*
X229285714Y-106038390D02*
X229190476Y-106086009D01*
X229190476Y-106086009D02*
X229142857Y-106133628D01*
X229142857Y-106133628D02*
X229095238Y-106228866D01*
X229095238Y-106228866D02*
X229095238Y-106419342D01*
X229095238Y-106419342D02*
X229142857Y-106514580D01*
X229142857Y-106514580D02*
X229190476Y-106562200D01*
X229190476Y-106562200D02*
X229285714Y-106609819D01*
X229285714Y-106609819D02*
X229476190Y-106609819D01*
X229476190Y-106609819D02*
X229571428Y-106562200D01*
X229571428Y-106562200D02*
X229619047Y-106514580D01*
X229619047Y-106514580D02*
X229666666Y-106419342D01*
X229666666Y-106419342D02*
X229666666Y-106228866D01*
X229666666Y-106228866D02*
X229619047Y-106133628D01*
X229619047Y-106133628D02*
X229571428Y-106086009D01*
X229571428Y-106086009D02*
X229476190Y-106038390D01*
X182201639Y-108571184D02*
X181868306Y-108094993D01*
X181630211Y-108571184D02*
X181630211Y-107571184D01*
X181630211Y-107571184D02*
X182011163Y-107571184D01*
X182011163Y-107571184D02*
X182106401Y-107618803D01*
X182106401Y-107618803D02*
X182154020Y-107666422D01*
X182154020Y-107666422D02*
X182201639Y-107761660D01*
X182201639Y-107761660D02*
X182201639Y-107904517D01*
X182201639Y-107904517D02*
X182154020Y-107999755D01*
X182154020Y-107999755D02*
X182106401Y-108047374D01*
X182106401Y-108047374D02*
X182011163Y-108094993D01*
X182011163Y-108094993D02*
X181630211Y-108094993D01*
X183058782Y-107904517D02*
X183058782Y-108571184D01*
X182820687Y-107523565D02*
X182582592Y-108237850D01*
X182582592Y-108237850D02*
X183201639Y-108237850D01*
X147454819Y-113809523D02*
X148169104Y-113809523D01*
X148169104Y-113809523D02*
X148311961Y-113857142D01*
X148311961Y-113857142D02*
X148407200Y-113952380D01*
X148407200Y-113952380D02*
X148454819Y-114095237D01*
X148454819Y-114095237D02*
X148454819Y-114190475D01*
X148454819Y-112809523D02*
X148454819Y-113380951D01*
X148454819Y-113095237D02*
X147454819Y-113095237D01*
X147454819Y-113095237D02*
X147597676Y-113190475D01*
X147597676Y-113190475D02*
X147692914Y-113285713D01*
X147692914Y-113285713D02*
X147740533Y-113380951D01*
X147454819Y-112190475D02*
X147454819Y-112095237D01*
X147454819Y-112095237D02*
X147502438Y-111999999D01*
X147502438Y-111999999D02*
X147550057Y-111952380D01*
X147550057Y-111952380D02*
X147645295Y-111904761D01*
X147645295Y-111904761D02*
X147835771Y-111857142D01*
X147835771Y-111857142D02*
X148073866Y-111857142D01*
X148073866Y-111857142D02*
X148264342Y-111904761D01*
X148264342Y-111904761D02*
X148359580Y-111952380D01*
X148359580Y-111952380D02*
X148407200Y-111999999D01*
X148407200Y-111999999D02*
X148454819Y-112095237D01*
X148454819Y-112095237D02*
X148454819Y-112190475D01*
X148454819Y-112190475D02*
X148407200Y-112285713D01*
X148407200Y-112285713D02*
X148359580Y-112333332D01*
X148359580Y-112333332D02*
X148264342Y-112380951D01*
X148264342Y-112380951D02*
X148073866Y-112428570D01*
X148073866Y-112428570D02*
X147835771Y-112428570D01*
X147835771Y-112428570D02*
X147645295Y-112380951D01*
X147645295Y-112380951D02*
X147550057Y-112333332D01*
X147550057Y-112333332D02*
X147502438Y-112285713D01*
X147502438Y-112285713D02*
X147454819Y-112190475D01*
X172591163Y-105126784D02*
X172638782Y-105079165D01*
X172638782Y-105079165D02*
X172781639Y-105031545D01*
X172781639Y-105031545D02*
X172876877Y-105031545D01*
X172876877Y-105031545D02*
X173019734Y-105079165D01*
X173019734Y-105079165D02*
X173114972Y-105174403D01*
X173114972Y-105174403D02*
X173162591Y-105269641D01*
X173162591Y-105269641D02*
X173210210Y-105460117D01*
X173210210Y-105460117D02*
X173210210Y-105602974D01*
X173210210Y-105602974D02*
X173162591Y-105793450D01*
X173162591Y-105793450D02*
X173114972Y-105888688D01*
X173114972Y-105888688D02*
X173019734Y-105983926D01*
X173019734Y-105983926D02*
X172876877Y-106031545D01*
X172876877Y-106031545D02*
X172781639Y-106031545D01*
X172781639Y-106031545D02*
X172638782Y-105983926D01*
X172638782Y-105983926D02*
X172591163Y-105936307D01*
X171638782Y-105031545D02*
X172210210Y-105031545D01*
X171924496Y-105031545D02*
X171924496Y-106031545D01*
X171924496Y-106031545D02*
X172019734Y-105888688D01*
X172019734Y-105888688D02*
X172114972Y-105793450D01*
X172114972Y-105793450D02*
X172210210Y-105745831D01*
X170781639Y-106031545D02*
X170972115Y-106031545D01*
X170972115Y-106031545D02*
X171067353Y-105983926D01*
X171067353Y-105983926D02*
X171114972Y-105936307D01*
X171114972Y-105936307D02*
X171210210Y-105793450D01*
X171210210Y-105793450D02*
X171257829Y-105602974D01*
X171257829Y-105602974D02*
X171257829Y-105222022D01*
X171257829Y-105222022D02*
X171210210Y-105126784D01*
X171210210Y-105126784D02*
X171162591Y-105079165D01*
X171162591Y-105079165D02*
X171067353Y-105031545D01*
X171067353Y-105031545D02*
X170876877Y-105031545D01*
X170876877Y-105031545D02*
X170781639Y-105079165D01*
X170781639Y-105079165D02*
X170734020Y-105126784D01*
X170734020Y-105126784D02*
X170686401Y-105222022D01*
X170686401Y-105222022D02*
X170686401Y-105460117D01*
X170686401Y-105460117D02*
X170734020Y-105555355D01*
X170734020Y-105555355D02*
X170781639Y-105602974D01*
X170781639Y-105602974D02*
X170876877Y-105650593D01*
X170876877Y-105650593D02*
X171067353Y-105650593D01*
X171067353Y-105650593D02*
X171162591Y-105602974D01*
X171162591Y-105602974D02*
X171210210Y-105555355D01*
X171210210Y-105555355D02*
X171257829Y-105460117D01*
X198438363Y-105081603D02*
X198390744Y-105176841D01*
X198390744Y-105176841D02*
X198295506Y-105272079D01*
X198295506Y-105272079D02*
X198152648Y-105414936D01*
X198152648Y-105414936D02*
X198105029Y-105510174D01*
X198105029Y-105510174D02*
X198105029Y-105605412D01*
X198343125Y-105557793D02*
X198295506Y-105653031D01*
X198295506Y-105653031D02*
X198200267Y-105748269D01*
X198200267Y-105748269D02*
X198009791Y-105795888D01*
X198009791Y-105795888D02*
X197676458Y-105795888D01*
X197676458Y-105795888D02*
X197485982Y-105748269D01*
X197485982Y-105748269D02*
X197390744Y-105653031D01*
X197390744Y-105653031D02*
X197343125Y-105557793D01*
X197343125Y-105557793D02*
X197343125Y-105367317D01*
X197343125Y-105367317D02*
X197390744Y-105272079D01*
X197390744Y-105272079D02*
X197485982Y-105176841D01*
X197485982Y-105176841D02*
X197676458Y-105129222D01*
X197676458Y-105129222D02*
X198009791Y-105129222D01*
X198009791Y-105129222D02*
X198200267Y-105176841D01*
X198200267Y-105176841D02*
X198295506Y-105272079D01*
X198295506Y-105272079D02*
X198343125Y-105367317D01*
X198343125Y-105367317D02*
X198343125Y-105557793D01*
X197676458Y-104272079D02*
X198343125Y-104272079D01*
X197295506Y-104510174D02*
X198009791Y-104748269D01*
X198009791Y-104748269D02*
X198009791Y-104129222D01*
X196270476Y-99534819D02*
X196270476Y-100249104D01*
X196270476Y-100249104D02*
X196222857Y-100391961D01*
X196222857Y-100391961D02*
X196127619Y-100487200D01*
X196127619Y-100487200D02*
X195984762Y-100534819D01*
X195984762Y-100534819D02*
X195889524Y-100534819D01*
X197270476Y-100534819D02*
X196699048Y-100534819D01*
X196984762Y-100534819D02*
X196984762Y-99534819D01*
X196984762Y-99534819D02*
X196889524Y-99677676D01*
X196889524Y-99677676D02*
X196794286Y-99772914D01*
X196794286Y-99772914D02*
X196699048Y-99820533D01*
X197651429Y-99630057D02*
X197699048Y-99582438D01*
X197699048Y-99582438D02*
X197794286Y-99534819D01*
X197794286Y-99534819D02*
X198032381Y-99534819D01*
X198032381Y-99534819D02*
X198127619Y-99582438D01*
X198127619Y-99582438D02*
X198175238Y-99630057D01*
X198175238Y-99630057D02*
X198222857Y-99725295D01*
X198222857Y-99725295D02*
X198222857Y-99820533D01*
X198222857Y-99820533D02*
X198175238Y-99963390D01*
X198175238Y-99963390D02*
X197603810Y-100534819D01*
X197603810Y-100534819D02*
X198222857Y-100534819D01*
X182281639Y-103571184D02*
X181948306Y-103094993D01*
X181710211Y-103571184D02*
X181710211Y-102571184D01*
X181710211Y-102571184D02*
X182091163Y-102571184D01*
X182091163Y-102571184D02*
X182186401Y-102618803D01*
X182186401Y-102618803D02*
X182234020Y-102666422D01*
X182234020Y-102666422D02*
X182281639Y-102761660D01*
X182281639Y-102761660D02*
X182281639Y-102904517D01*
X182281639Y-102904517D02*
X182234020Y-102999755D01*
X182234020Y-102999755D02*
X182186401Y-103047374D01*
X182186401Y-103047374D02*
X182091163Y-103094993D01*
X182091163Y-103094993D02*
X181710211Y-103094993D01*
X182614973Y-102571184D02*
X183234020Y-102571184D01*
X183234020Y-102571184D02*
X182900687Y-102952136D01*
X182900687Y-102952136D02*
X183043544Y-102952136D01*
X183043544Y-102952136D02*
X183138782Y-102999755D01*
X183138782Y-102999755D02*
X183186401Y-103047374D01*
X183186401Y-103047374D02*
X183234020Y-103142612D01*
X183234020Y-103142612D02*
X183234020Y-103380707D01*
X183234020Y-103380707D02*
X183186401Y-103475945D01*
X183186401Y-103475945D02*
X183138782Y-103523565D01*
X183138782Y-103523565D02*
X183043544Y-103571184D01*
X183043544Y-103571184D02*
X182757830Y-103571184D01*
X182757830Y-103571184D02*
X182662592Y-103523565D01*
X182662592Y-103523565D02*
X182614973Y-103475945D01*
X234140419Y-95333333D02*
X234092800Y-95285714D01*
X234092800Y-95285714D02*
X234045180Y-95142857D01*
X234045180Y-95142857D02*
X234045180Y-95047619D01*
X234045180Y-95047619D02*
X234092800Y-94904762D01*
X234092800Y-94904762D02*
X234188038Y-94809524D01*
X234188038Y-94809524D02*
X234283276Y-94761905D01*
X234283276Y-94761905D02*
X234473752Y-94714286D01*
X234473752Y-94714286D02*
X234616609Y-94714286D01*
X234616609Y-94714286D02*
X234807085Y-94761905D01*
X234807085Y-94761905D02*
X234902323Y-94809524D01*
X234902323Y-94809524D02*
X234997561Y-94904762D01*
X234997561Y-94904762D02*
X235045180Y-95047619D01*
X235045180Y-95047619D02*
X235045180Y-95142857D01*
X235045180Y-95142857D02*
X234997561Y-95285714D01*
X234997561Y-95285714D02*
X234949942Y-95333333D01*
X235045180Y-96190476D02*
X235045180Y-96000000D01*
X235045180Y-96000000D02*
X234997561Y-95904762D01*
X234997561Y-95904762D02*
X234949942Y-95857143D01*
X234949942Y-95857143D02*
X234807085Y-95761905D01*
X234807085Y-95761905D02*
X234616609Y-95714286D01*
X234616609Y-95714286D02*
X234235657Y-95714286D01*
X234235657Y-95714286D02*
X234140419Y-95761905D01*
X234140419Y-95761905D02*
X234092800Y-95809524D01*
X234092800Y-95809524D02*
X234045180Y-95904762D01*
X234045180Y-95904762D02*
X234045180Y-96095238D01*
X234045180Y-96095238D02*
X234092800Y-96190476D01*
X234092800Y-96190476D02*
X234140419Y-96238095D01*
X234140419Y-96238095D02*
X234235657Y-96285714D01*
X234235657Y-96285714D02*
X234473752Y-96285714D01*
X234473752Y-96285714D02*
X234568990Y-96238095D01*
X234568990Y-96238095D02*
X234616609Y-96190476D01*
X234616609Y-96190476D02*
X234664228Y-96095238D01*
X234664228Y-96095238D02*
X234664228Y-95904762D01*
X234664228Y-95904762D02*
X234616609Y-95809524D01*
X234616609Y-95809524D02*
X234568990Y-95761905D01*
X234568990Y-95761905D02*
X234473752Y-95714286D01*
X223166666Y-114109819D02*
X223166666Y-114824104D01*
X223166666Y-114824104D02*
X223119047Y-114966961D01*
X223119047Y-114966961D02*
X223023809Y-115062200D01*
X223023809Y-115062200D02*
X222880952Y-115109819D01*
X222880952Y-115109819D02*
X222785714Y-115109819D01*
X224071428Y-114109819D02*
X223880952Y-114109819D01*
X223880952Y-114109819D02*
X223785714Y-114157438D01*
X223785714Y-114157438D02*
X223738095Y-114205057D01*
X223738095Y-114205057D02*
X223642857Y-114347914D01*
X223642857Y-114347914D02*
X223595238Y-114538390D01*
X223595238Y-114538390D02*
X223595238Y-114919342D01*
X223595238Y-114919342D02*
X223642857Y-115014580D01*
X223642857Y-115014580D02*
X223690476Y-115062200D01*
X223690476Y-115062200D02*
X223785714Y-115109819D01*
X223785714Y-115109819D02*
X223976190Y-115109819D01*
X223976190Y-115109819D02*
X224071428Y-115062200D01*
X224071428Y-115062200D02*
X224119047Y-115014580D01*
X224119047Y-115014580D02*
X224166666Y-114919342D01*
X224166666Y-114919342D02*
X224166666Y-114681247D01*
X224166666Y-114681247D02*
X224119047Y-114586009D01*
X224119047Y-114586009D02*
X224071428Y-114538390D01*
X224071428Y-114538390D02*
X223976190Y-114490771D01*
X223976190Y-114490771D02*
X223785714Y-114490771D01*
X223785714Y-114490771D02*
X223690476Y-114538390D01*
X223690476Y-114538390D02*
X223642857Y-114586009D01*
X223642857Y-114586009D02*
X223595238Y-114681247D01*
X191781639Y-105845945D02*
X191734020Y-105893565D01*
X191734020Y-105893565D02*
X191591163Y-105941184D01*
X191591163Y-105941184D02*
X191495925Y-105941184D01*
X191495925Y-105941184D02*
X191353068Y-105893565D01*
X191353068Y-105893565D02*
X191257830Y-105798326D01*
X191257830Y-105798326D02*
X191210211Y-105703088D01*
X191210211Y-105703088D02*
X191162592Y-105512612D01*
X191162592Y-105512612D02*
X191162592Y-105369755D01*
X191162592Y-105369755D02*
X191210211Y-105179279D01*
X191210211Y-105179279D02*
X191257830Y-105084041D01*
X191257830Y-105084041D02*
X191353068Y-104988803D01*
X191353068Y-104988803D02*
X191495925Y-104941184D01*
X191495925Y-104941184D02*
X191591163Y-104941184D01*
X191591163Y-104941184D02*
X191734020Y-104988803D01*
X191734020Y-104988803D02*
X191781639Y-105036422D01*
X192638782Y-105274517D02*
X192638782Y-105941184D01*
X192400687Y-104893565D02*
X192162592Y-105607850D01*
X192162592Y-105607850D02*
X192781639Y-105607850D01*
X228666666Y-114122697D02*
X228666666Y-114836982D01*
X228666666Y-114836982D02*
X228619047Y-114979839D01*
X228619047Y-114979839D02*
X228523809Y-115075078D01*
X228523809Y-115075078D02*
X228380952Y-115122697D01*
X228380952Y-115122697D02*
X228285714Y-115122697D01*
X229619047Y-114122697D02*
X229142857Y-114122697D01*
X229142857Y-114122697D02*
X229095238Y-114598887D01*
X229095238Y-114598887D02*
X229142857Y-114551268D01*
X229142857Y-114551268D02*
X229238095Y-114503649D01*
X229238095Y-114503649D02*
X229476190Y-114503649D01*
X229476190Y-114503649D02*
X229571428Y-114551268D01*
X229571428Y-114551268D02*
X229619047Y-114598887D01*
X229619047Y-114598887D02*
X229666666Y-114694125D01*
X229666666Y-114694125D02*
X229666666Y-114932220D01*
X229666666Y-114932220D02*
X229619047Y-115027458D01*
X229619047Y-115027458D02*
X229571428Y-115075078D01*
X229571428Y-115075078D02*
X229476190Y-115122697D01*
X229476190Y-115122697D02*
X229238095Y-115122697D01*
X229238095Y-115122697D02*
X229142857Y-115075078D01*
X229142857Y-115075078D02*
X229095238Y-115027458D01*
X226395920Y-57031428D02*
X225395920Y-57031428D01*
X225395920Y-57031428D02*
X226110205Y-56698095D01*
X226110205Y-56698095D02*
X225395920Y-56364762D01*
X225395920Y-56364762D02*
X226395920Y-56364762D01*
X225395920Y-55698095D02*
X225395920Y-55507619D01*
X225395920Y-55507619D02*
X225443539Y-55412381D01*
X225443539Y-55412381D02*
X225538777Y-55317143D01*
X225538777Y-55317143D02*
X225729253Y-55269524D01*
X225729253Y-55269524D02*
X226062586Y-55269524D01*
X226062586Y-55269524D02*
X226253062Y-55317143D01*
X226253062Y-55317143D02*
X226348301Y-55412381D01*
X226348301Y-55412381D02*
X226395920Y-55507619D01*
X226395920Y-55507619D02*
X226395920Y-55698095D01*
X226395920Y-55698095D02*
X226348301Y-55793333D01*
X226348301Y-55793333D02*
X226253062Y-55888571D01*
X226253062Y-55888571D02*
X226062586Y-55936190D01*
X226062586Y-55936190D02*
X225729253Y-55936190D01*
X225729253Y-55936190D02*
X225538777Y-55888571D01*
X225538777Y-55888571D02*
X225443539Y-55793333D01*
X225443539Y-55793333D02*
X225395920Y-55698095D01*
X226348301Y-54888571D02*
X226395920Y-54745714D01*
X226395920Y-54745714D02*
X226395920Y-54507619D01*
X226395920Y-54507619D02*
X226348301Y-54412381D01*
X226348301Y-54412381D02*
X226300681Y-54364762D01*
X226300681Y-54364762D02*
X226205443Y-54317143D01*
X226205443Y-54317143D02*
X226110205Y-54317143D01*
X226110205Y-54317143D02*
X226014967Y-54364762D01*
X226014967Y-54364762D02*
X225967348Y-54412381D01*
X225967348Y-54412381D02*
X225919729Y-54507619D01*
X225919729Y-54507619D02*
X225872110Y-54698095D01*
X225872110Y-54698095D02*
X225824491Y-54793333D01*
X225824491Y-54793333D02*
X225776872Y-54840952D01*
X225776872Y-54840952D02*
X225681634Y-54888571D01*
X225681634Y-54888571D02*
X225586396Y-54888571D01*
X225586396Y-54888571D02*
X225491158Y-54840952D01*
X225491158Y-54840952D02*
X225443539Y-54793333D01*
X225443539Y-54793333D02*
X225395920Y-54698095D01*
X225395920Y-54698095D02*
X225395920Y-54460000D01*
X225395920Y-54460000D02*
X225443539Y-54317143D01*
X225872110Y-53555238D02*
X225872110Y-53888571D01*
X226395920Y-53888571D02*
X225395920Y-53888571D01*
X225395920Y-53888571D02*
X225395920Y-53412381D01*
X225872110Y-53031428D02*
X225872110Y-52698095D01*
X226395920Y-52555238D02*
X226395920Y-53031428D01*
X226395920Y-53031428D02*
X225395920Y-53031428D01*
X225395920Y-53031428D02*
X225395920Y-52555238D01*
X225395920Y-52269523D02*
X225395920Y-51698095D01*
X226395920Y-51983809D02*
X225395920Y-51983809D01*
X226395920Y-50840952D02*
X226395920Y-51412380D01*
X226395920Y-51126666D02*
X225395920Y-51126666D01*
X225395920Y-51126666D02*
X225538777Y-51221904D01*
X225538777Y-51221904D02*
X225634015Y-51317142D01*
X225634015Y-51317142D02*
X225681634Y-51412380D01*
X234166666Y-105609819D02*
X234166666Y-106324104D01*
X234166666Y-106324104D02*
X234119047Y-106466961D01*
X234119047Y-106466961D02*
X234023809Y-106562200D01*
X234023809Y-106562200D02*
X233880952Y-106609819D01*
X233880952Y-106609819D02*
X233785714Y-106609819D01*
X234547619Y-105609819D02*
X235214285Y-105609819D01*
X235214285Y-105609819D02*
X234785714Y-106609819D01*
X223166666Y-105609819D02*
X223166666Y-106324104D01*
X223166666Y-106324104D02*
X223119047Y-106466961D01*
X223119047Y-106466961D02*
X223023809Y-106562200D01*
X223023809Y-106562200D02*
X222880952Y-106609819D01*
X222880952Y-106609819D02*
X222785714Y-106609819D01*
X223690476Y-106609819D02*
X223880952Y-106609819D01*
X223880952Y-106609819D02*
X223976190Y-106562200D01*
X223976190Y-106562200D02*
X224023809Y-106514580D01*
X224023809Y-106514580D02*
X224119047Y-106371723D01*
X224119047Y-106371723D02*
X224166666Y-106181247D01*
X224166666Y-106181247D02*
X224166666Y-105800295D01*
X224166666Y-105800295D02*
X224119047Y-105705057D01*
X224119047Y-105705057D02*
X224071428Y-105657438D01*
X224071428Y-105657438D02*
X223976190Y-105609819D01*
X223976190Y-105609819D02*
X223785714Y-105609819D01*
X223785714Y-105609819D02*
X223690476Y-105657438D01*
X223690476Y-105657438D02*
X223642857Y-105705057D01*
X223642857Y-105705057D02*
X223595238Y-105800295D01*
X223595238Y-105800295D02*
X223595238Y-106038390D01*
X223595238Y-106038390D02*
X223642857Y-106133628D01*
X223642857Y-106133628D02*
X223690476Y-106181247D01*
X223690476Y-106181247D02*
X223785714Y-106228866D01*
X223785714Y-106228866D02*
X223976190Y-106228866D01*
X223976190Y-106228866D02*
X224071428Y-106181247D01*
X224071428Y-106181247D02*
X224119047Y-106133628D01*
X224119047Y-106133628D02*
X224166666Y-106038390D01*
X135166666Y-54574819D02*
X135166666Y-55289104D01*
X135166666Y-55289104D02*
X135119047Y-55431961D01*
X135119047Y-55431961D02*
X135023809Y-55527200D01*
X135023809Y-55527200D02*
X134880952Y-55574819D01*
X134880952Y-55574819D02*
X134785714Y-55574819D01*
X135547619Y-54574819D02*
X136166666Y-54574819D01*
X136166666Y-54574819D02*
X135833333Y-54955771D01*
X135833333Y-54955771D02*
X135976190Y-54955771D01*
X135976190Y-54955771D02*
X136071428Y-55003390D01*
X136071428Y-55003390D02*
X136119047Y-55051009D01*
X136119047Y-55051009D02*
X136166666Y-55146247D01*
X136166666Y-55146247D02*
X136166666Y-55384342D01*
X136166666Y-55384342D02*
X136119047Y-55479580D01*
X136119047Y-55479580D02*
X136071428Y-55527200D01*
X136071428Y-55527200D02*
X135976190Y-55574819D01*
X135976190Y-55574819D02*
X135690476Y-55574819D01*
X135690476Y-55574819D02*
X135595238Y-55527200D01*
X135595238Y-55527200D02*
X135547619Y-55479580D01*
X191781639Y-110345945D02*
X191734020Y-110393565D01*
X191734020Y-110393565D02*
X191591163Y-110441184D01*
X191591163Y-110441184D02*
X191495925Y-110441184D01*
X191495925Y-110441184D02*
X191353068Y-110393565D01*
X191353068Y-110393565D02*
X191257830Y-110298326D01*
X191257830Y-110298326D02*
X191210211Y-110203088D01*
X191210211Y-110203088D02*
X191162592Y-110012612D01*
X191162592Y-110012612D02*
X191162592Y-109869755D01*
X191162592Y-109869755D02*
X191210211Y-109679279D01*
X191210211Y-109679279D02*
X191257830Y-109584041D01*
X191257830Y-109584041D02*
X191353068Y-109488803D01*
X191353068Y-109488803D02*
X191495925Y-109441184D01*
X191495925Y-109441184D02*
X191591163Y-109441184D01*
X191591163Y-109441184D02*
X191734020Y-109488803D01*
X191734020Y-109488803D02*
X191781639Y-109536422D01*
X192686401Y-109441184D02*
X192210211Y-109441184D01*
X192210211Y-109441184D02*
X192162592Y-109917374D01*
X192162592Y-109917374D02*
X192210211Y-109869755D01*
X192210211Y-109869755D02*
X192305449Y-109822136D01*
X192305449Y-109822136D02*
X192543544Y-109822136D01*
X192543544Y-109822136D02*
X192638782Y-109869755D01*
X192638782Y-109869755D02*
X192686401Y-109917374D01*
X192686401Y-109917374D02*
X192734020Y-110012612D01*
X192734020Y-110012612D02*
X192734020Y-110250707D01*
X192734020Y-110250707D02*
X192686401Y-110345945D01*
X192686401Y-110345945D02*
X192638782Y-110393565D01*
X192638782Y-110393565D02*
X192543544Y-110441184D01*
X192543544Y-110441184D02*
X192305449Y-110441184D01*
X192305449Y-110441184D02*
X192210211Y-110393565D01*
X192210211Y-110393565D02*
X192162592Y-110345945D01*
X201584819Y-106642857D02*
X201108628Y-106976190D01*
X201584819Y-107214285D02*
X200584819Y-107214285D01*
X200584819Y-107214285D02*
X200584819Y-106833333D01*
X200584819Y-106833333D02*
X200632438Y-106738095D01*
X200632438Y-106738095D02*
X200680057Y-106690476D01*
X200680057Y-106690476D02*
X200775295Y-106642857D01*
X200775295Y-106642857D02*
X200918152Y-106642857D01*
X200918152Y-106642857D02*
X201013390Y-106690476D01*
X201013390Y-106690476D02*
X201061009Y-106738095D01*
X201061009Y-106738095D02*
X201108628Y-106833333D01*
X201108628Y-106833333D02*
X201108628Y-107214285D01*
X201584819Y-105690476D02*
X201584819Y-106261904D01*
X201584819Y-105976190D02*
X200584819Y-105976190D01*
X200584819Y-105976190D02*
X200727676Y-106071428D01*
X200727676Y-106071428D02*
X200822914Y-106166666D01*
X200822914Y-106166666D02*
X200870533Y-106261904D01*
X200584819Y-105357142D02*
X200584819Y-104738095D01*
X200584819Y-104738095D02*
X200965771Y-105071428D01*
X200965771Y-105071428D02*
X200965771Y-104928571D01*
X200965771Y-104928571D02*
X201013390Y-104833333D01*
X201013390Y-104833333D02*
X201061009Y-104785714D01*
X201061009Y-104785714D02*
X201156247Y-104738095D01*
X201156247Y-104738095D02*
X201394342Y-104738095D01*
X201394342Y-104738095D02*
X201489580Y-104785714D01*
X201489580Y-104785714D02*
X201537200Y-104833333D01*
X201537200Y-104833333D02*
X201584819Y-104928571D01*
X201584819Y-104928571D02*
X201584819Y-105214285D01*
X201584819Y-105214285D02*
X201537200Y-105309523D01*
X201537200Y-105309523D02*
X201489580Y-105357142D01*
X154357142Y-103584819D02*
X154023809Y-103108628D01*
X153785714Y-103584819D02*
X153785714Y-102584819D01*
X153785714Y-102584819D02*
X154166666Y-102584819D01*
X154166666Y-102584819D02*
X154261904Y-102632438D01*
X154261904Y-102632438D02*
X154309523Y-102680057D01*
X154309523Y-102680057D02*
X154357142Y-102775295D01*
X154357142Y-102775295D02*
X154357142Y-102918152D01*
X154357142Y-102918152D02*
X154309523Y-103013390D01*
X154309523Y-103013390D02*
X154261904Y-103061009D01*
X154261904Y-103061009D02*
X154166666Y-103108628D01*
X154166666Y-103108628D02*
X153785714Y-103108628D01*
X155309523Y-103584819D02*
X154738095Y-103584819D01*
X155023809Y-103584819D02*
X155023809Y-102584819D01*
X155023809Y-102584819D02*
X154928571Y-102727676D01*
X154928571Y-102727676D02*
X154833333Y-102822914D01*
X154833333Y-102822914D02*
X154738095Y-102870533D01*
X156166666Y-102918152D02*
X156166666Y-103584819D01*
X155928571Y-102537200D02*
X155690476Y-103251485D01*
X155690476Y-103251485D02*
X156309523Y-103251485D01*
X184166667Y-77454819D02*
X184166667Y-76454819D01*
X184166667Y-76454819D02*
X184500000Y-77169104D01*
X184500000Y-77169104D02*
X184833333Y-76454819D01*
X184833333Y-76454819D02*
X184833333Y-77454819D01*
X185500000Y-76454819D02*
X185690476Y-76454819D01*
X185690476Y-76454819D02*
X185785714Y-76502438D01*
X185785714Y-76502438D02*
X185880952Y-76597676D01*
X185880952Y-76597676D02*
X185928571Y-76788152D01*
X185928571Y-76788152D02*
X185928571Y-77121485D01*
X185928571Y-77121485D02*
X185880952Y-77311961D01*
X185880952Y-77311961D02*
X185785714Y-77407200D01*
X185785714Y-77407200D02*
X185690476Y-77454819D01*
X185690476Y-77454819D02*
X185500000Y-77454819D01*
X185500000Y-77454819D02*
X185404762Y-77407200D01*
X185404762Y-77407200D02*
X185309524Y-77311961D01*
X185309524Y-77311961D02*
X185261905Y-77121485D01*
X185261905Y-77121485D02*
X185261905Y-76788152D01*
X185261905Y-76788152D02*
X185309524Y-76597676D01*
X185309524Y-76597676D02*
X185404762Y-76502438D01*
X185404762Y-76502438D02*
X185500000Y-76454819D01*
X186357143Y-77454819D02*
X186357143Y-76454819D01*
X186357143Y-76454819D02*
X186595238Y-76454819D01*
X186595238Y-76454819D02*
X186738095Y-76502438D01*
X186738095Y-76502438D02*
X186833333Y-76597676D01*
X186833333Y-76597676D02*
X186880952Y-76692914D01*
X186880952Y-76692914D02*
X186928571Y-76883390D01*
X186928571Y-76883390D02*
X186928571Y-77026247D01*
X186928571Y-77026247D02*
X186880952Y-77216723D01*
X186880952Y-77216723D02*
X186833333Y-77311961D01*
X186833333Y-77311961D02*
X186738095Y-77407200D01*
X186738095Y-77407200D02*
X186595238Y-77454819D01*
X186595238Y-77454819D02*
X186357143Y-77454819D01*
X187880952Y-77454819D02*
X187309524Y-77454819D01*
X187595238Y-77454819D02*
X187595238Y-76454819D01*
X187595238Y-76454819D02*
X187500000Y-76597676D01*
X187500000Y-76597676D02*
X187404762Y-76692914D01*
X187404762Y-76692914D02*
X187309524Y-76740533D01*
X143333333Y-91824819D02*
X143000000Y-91348628D01*
X142761905Y-91824819D02*
X142761905Y-90824819D01*
X142761905Y-90824819D02*
X143142857Y-90824819D01*
X143142857Y-90824819D02*
X143238095Y-90872438D01*
X143238095Y-90872438D02*
X143285714Y-90920057D01*
X143285714Y-90920057D02*
X143333333Y-91015295D01*
X143333333Y-91015295D02*
X143333333Y-91158152D01*
X143333333Y-91158152D02*
X143285714Y-91253390D01*
X143285714Y-91253390D02*
X143238095Y-91301009D01*
X143238095Y-91301009D02*
X143142857Y-91348628D01*
X143142857Y-91348628D02*
X142761905Y-91348628D01*
X143904762Y-91253390D02*
X143809524Y-91205771D01*
X143809524Y-91205771D02*
X143761905Y-91158152D01*
X143761905Y-91158152D02*
X143714286Y-91062914D01*
X143714286Y-91062914D02*
X143714286Y-91015295D01*
X143714286Y-91015295D02*
X143761905Y-90920057D01*
X143761905Y-90920057D02*
X143809524Y-90872438D01*
X143809524Y-90872438D02*
X143904762Y-90824819D01*
X143904762Y-90824819D02*
X144095238Y-90824819D01*
X144095238Y-90824819D02*
X144190476Y-90872438D01*
X144190476Y-90872438D02*
X144238095Y-90920057D01*
X144238095Y-90920057D02*
X144285714Y-91015295D01*
X144285714Y-91015295D02*
X144285714Y-91062914D01*
X144285714Y-91062914D02*
X144238095Y-91158152D01*
X144238095Y-91158152D02*
X144190476Y-91205771D01*
X144190476Y-91205771D02*
X144095238Y-91253390D01*
X144095238Y-91253390D02*
X143904762Y-91253390D01*
X143904762Y-91253390D02*
X143809524Y-91301009D01*
X143809524Y-91301009D02*
X143761905Y-91348628D01*
X143761905Y-91348628D02*
X143714286Y-91443866D01*
X143714286Y-91443866D02*
X143714286Y-91634342D01*
X143714286Y-91634342D02*
X143761905Y-91729580D01*
X143761905Y-91729580D02*
X143809524Y-91777200D01*
X143809524Y-91777200D02*
X143904762Y-91824819D01*
X143904762Y-91824819D02*
X144095238Y-91824819D01*
X144095238Y-91824819D02*
X144190476Y-91777200D01*
X144190476Y-91777200D02*
X144238095Y-91729580D01*
X144238095Y-91729580D02*
X144285714Y-91634342D01*
X144285714Y-91634342D02*
X144285714Y-91443866D01*
X144285714Y-91443866D02*
X144238095Y-91348628D01*
X144238095Y-91348628D02*
X144190476Y-91301009D01*
X144190476Y-91301009D02*
X144095238Y-91253390D01*
X234166666Y-114122697D02*
X234166666Y-114836982D01*
X234166666Y-114836982D02*
X234119047Y-114979839D01*
X234119047Y-114979839D02*
X234023809Y-115075078D01*
X234023809Y-115075078D02*
X233880952Y-115122697D01*
X233880952Y-115122697D02*
X233785714Y-115122697D01*
X235071428Y-114456030D02*
X235071428Y-115122697D01*
X234833333Y-114075078D02*
X234595238Y-114789363D01*
X234595238Y-114789363D02*
X235214285Y-114789363D01*
X227324819Y-85666666D02*
X226848628Y-85999999D01*
X227324819Y-86238094D02*
X226324819Y-86238094D01*
X226324819Y-86238094D02*
X226324819Y-85857142D01*
X226324819Y-85857142D02*
X226372438Y-85761904D01*
X226372438Y-85761904D02*
X226420057Y-85714285D01*
X226420057Y-85714285D02*
X226515295Y-85666666D01*
X226515295Y-85666666D02*
X226658152Y-85666666D01*
X226658152Y-85666666D02*
X226753390Y-85714285D01*
X226753390Y-85714285D02*
X226801009Y-85761904D01*
X226801009Y-85761904D02*
X226848628Y-85857142D01*
X226848628Y-85857142D02*
X226848628Y-86238094D01*
X226324819Y-85333332D02*
X226324819Y-84666666D01*
X226324819Y-84666666D02*
X227324819Y-85095237D01*
X237324819Y-85666666D02*
X236848628Y-85999999D01*
X237324819Y-86238094D02*
X236324819Y-86238094D01*
X236324819Y-86238094D02*
X236324819Y-85857142D01*
X236324819Y-85857142D02*
X236372438Y-85761904D01*
X236372438Y-85761904D02*
X236420057Y-85714285D01*
X236420057Y-85714285D02*
X236515295Y-85666666D01*
X236515295Y-85666666D02*
X236658152Y-85666666D01*
X236658152Y-85666666D02*
X236753390Y-85714285D01*
X236753390Y-85714285D02*
X236801009Y-85761904D01*
X236801009Y-85761904D02*
X236848628Y-85857142D01*
X236848628Y-85857142D02*
X236848628Y-86238094D01*
X236324819Y-84761904D02*
X236324819Y-85238094D01*
X236324819Y-85238094D02*
X236801009Y-85285713D01*
X236801009Y-85285713D02*
X236753390Y-85238094D01*
X236753390Y-85238094D02*
X236705771Y-85142856D01*
X236705771Y-85142856D02*
X236705771Y-84904761D01*
X236705771Y-84904761D02*
X236753390Y-84809523D01*
X236753390Y-84809523D02*
X236801009Y-84761904D01*
X236801009Y-84761904D02*
X236896247Y-84714285D01*
X236896247Y-84714285D02*
X237134342Y-84714285D01*
X237134342Y-84714285D02*
X237229580Y-84761904D01*
X237229580Y-84761904D02*
X237277200Y-84809523D01*
X237277200Y-84809523D02*
X237324819Y-84904761D01*
X237324819Y-84904761D02*
X237324819Y-85142856D01*
X237324819Y-85142856D02*
X237277200Y-85238094D01*
X237277200Y-85238094D02*
X237229580Y-85285713D01*
X225944761Y-72100057D02*
X225849523Y-72052438D01*
X225849523Y-72052438D02*
X225754285Y-71957200D01*
X225754285Y-71957200D02*
X225611428Y-71814342D01*
X225611428Y-71814342D02*
X225516190Y-71766723D01*
X225516190Y-71766723D02*
X225420952Y-71766723D01*
X225468571Y-72004819D02*
X225373333Y-71957200D01*
X225373333Y-71957200D02*
X225278095Y-71861961D01*
X225278095Y-71861961D02*
X225230476Y-71671485D01*
X225230476Y-71671485D02*
X225230476Y-71338152D01*
X225230476Y-71338152D02*
X225278095Y-71147676D01*
X225278095Y-71147676D02*
X225373333Y-71052438D01*
X225373333Y-71052438D02*
X225468571Y-71004819D01*
X225468571Y-71004819D02*
X225659047Y-71004819D01*
X225659047Y-71004819D02*
X225754285Y-71052438D01*
X225754285Y-71052438D02*
X225849523Y-71147676D01*
X225849523Y-71147676D02*
X225897142Y-71338152D01*
X225897142Y-71338152D02*
X225897142Y-71671485D01*
X225897142Y-71671485D02*
X225849523Y-71861961D01*
X225849523Y-71861961D02*
X225754285Y-71957200D01*
X225754285Y-71957200D02*
X225659047Y-72004819D01*
X225659047Y-72004819D02*
X225468571Y-72004819D01*
X226230476Y-71004819D02*
X226849523Y-71004819D01*
X226849523Y-71004819D02*
X226516190Y-71385771D01*
X226516190Y-71385771D02*
X226659047Y-71385771D01*
X226659047Y-71385771D02*
X226754285Y-71433390D01*
X226754285Y-71433390D02*
X226801904Y-71481009D01*
X226801904Y-71481009D02*
X226849523Y-71576247D01*
X226849523Y-71576247D02*
X226849523Y-71814342D01*
X226849523Y-71814342D02*
X226801904Y-71909580D01*
X226801904Y-71909580D02*
X226754285Y-71957200D01*
X226754285Y-71957200D02*
X226659047Y-72004819D01*
X226659047Y-72004819D02*
X226373333Y-72004819D01*
X226373333Y-72004819D02*
X226278095Y-71957200D01*
X226278095Y-71957200D02*
X226230476Y-71909580D01*
X130454819Y-85809523D02*
X131169104Y-85809523D01*
X131169104Y-85809523D02*
X131311961Y-85857142D01*
X131311961Y-85857142D02*
X131407200Y-85952380D01*
X131407200Y-85952380D02*
X131454819Y-86095237D01*
X131454819Y-86095237D02*
X131454819Y-86190475D01*
X131454819Y-84809523D02*
X131454819Y-85380951D01*
X131454819Y-85095237D02*
X130454819Y-85095237D01*
X130454819Y-85095237D02*
X130597676Y-85190475D01*
X130597676Y-85190475D02*
X130692914Y-85285713D01*
X130692914Y-85285713D02*
X130740533Y-85380951D01*
X130788152Y-83952380D02*
X131454819Y-83952380D01*
X130407200Y-84190475D02*
X131121485Y-84428570D01*
X131121485Y-84428570D02*
X131121485Y-83809523D01*
X237109580Y-75142857D02*
X237157200Y-75190476D01*
X237157200Y-75190476D02*
X237204819Y-75333333D01*
X237204819Y-75333333D02*
X237204819Y-75428571D01*
X237204819Y-75428571D02*
X237157200Y-75571428D01*
X237157200Y-75571428D02*
X237061961Y-75666666D01*
X237061961Y-75666666D02*
X236966723Y-75714285D01*
X236966723Y-75714285D02*
X236776247Y-75761904D01*
X236776247Y-75761904D02*
X236633390Y-75761904D01*
X236633390Y-75761904D02*
X236442914Y-75714285D01*
X236442914Y-75714285D02*
X236347676Y-75666666D01*
X236347676Y-75666666D02*
X236252438Y-75571428D01*
X236252438Y-75571428D02*
X236204819Y-75428571D01*
X236204819Y-75428571D02*
X236204819Y-75333333D01*
X236204819Y-75333333D02*
X236252438Y-75190476D01*
X236252438Y-75190476D02*
X236300057Y-75142857D01*
X237204819Y-74190476D02*
X237204819Y-74761904D01*
X237204819Y-74476190D02*
X236204819Y-74476190D01*
X236204819Y-74476190D02*
X236347676Y-74571428D01*
X236347676Y-74571428D02*
X236442914Y-74666666D01*
X236442914Y-74666666D02*
X236490533Y-74761904D01*
X236538152Y-73333333D02*
X237204819Y-73333333D01*
X236157200Y-73571428D02*
X236871485Y-73809523D01*
X236871485Y-73809523D02*
X236871485Y-73190476D01*
X229140419Y-95333333D02*
X229092800Y-95285714D01*
X229092800Y-95285714D02*
X229045180Y-95142857D01*
X229045180Y-95142857D02*
X229045180Y-95047619D01*
X229045180Y-95047619D02*
X229092800Y-94904762D01*
X229092800Y-94904762D02*
X229188038Y-94809524D01*
X229188038Y-94809524D02*
X229283276Y-94761905D01*
X229283276Y-94761905D02*
X229473752Y-94714286D01*
X229473752Y-94714286D02*
X229616609Y-94714286D01*
X229616609Y-94714286D02*
X229807085Y-94761905D01*
X229807085Y-94761905D02*
X229902323Y-94809524D01*
X229902323Y-94809524D02*
X229997561Y-94904762D01*
X229997561Y-94904762D02*
X230045180Y-95047619D01*
X230045180Y-95047619D02*
X230045180Y-95142857D01*
X230045180Y-95142857D02*
X229997561Y-95285714D01*
X229997561Y-95285714D02*
X229949942Y-95333333D01*
X230045180Y-95666667D02*
X230045180Y-96333333D01*
X230045180Y-96333333D02*
X229045180Y-95904762D01*
X232833333Y-68359580D02*
X232785714Y-68407200D01*
X232785714Y-68407200D02*
X232642857Y-68454819D01*
X232642857Y-68454819D02*
X232547619Y-68454819D01*
X232547619Y-68454819D02*
X232404762Y-68407200D01*
X232404762Y-68407200D02*
X232309524Y-68311961D01*
X232309524Y-68311961D02*
X232261905Y-68216723D01*
X232261905Y-68216723D02*
X232214286Y-68026247D01*
X232214286Y-68026247D02*
X232214286Y-67883390D01*
X232214286Y-67883390D02*
X232261905Y-67692914D01*
X232261905Y-67692914D02*
X232309524Y-67597676D01*
X232309524Y-67597676D02*
X232404762Y-67502438D01*
X232404762Y-67502438D02*
X232547619Y-67454819D01*
X232547619Y-67454819D02*
X232642857Y-67454819D01*
X232642857Y-67454819D02*
X232785714Y-67502438D01*
X232785714Y-67502438D02*
X232833333Y-67550057D01*
X233309524Y-68454819D02*
X233500000Y-68454819D01*
X233500000Y-68454819D02*
X233595238Y-68407200D01*
X233595238Y-68407200D02*
X233642857Y-68359580D01*
X233642857Y-68359580D02*
X233738095Y-68216723D01*
X233738095Y-68216723D02*
X233785714Y-68026247D01*
X233785714Y-68026247D02*
X233785714Y-67645295D01*
X233785714Y-67645295D02*
X233738095Y-67550057D01*
X233738095Y-67550057D02*
X233690476Y-67502438D01*
X233690476Y-67502438D02*
X233595238Y-67454819D01*
X233595238Y-67454819D02*
X233404762Y-67454819D01*
X233404762Y-67454819D02*
X233309524Y-67502438D01*
X233309524Y-67502438D02*
X233261905Y-67550057D01*
X233261905Y-67550057D02*
X233214286Y-67645295D01*
X233214286Y-67645295D02*
X233214286Y-67883390D01*
X233214286Y-67883390D02*
X233261905Y-67978628D01*
X233261905Y-67978628D02*
X233309524Y-68026247D01*
X233309524Y-68026247D02*
X233404762Y-68073866D01*
X233404762Y-68073866D02*
X233595238Y-68073866D01*
X233595238Y-68073866D02*
X233690476Y-68026247D01*
X233690476Y-68026247D02*
X233738095Y-67978628D01*
X233738095Y-67978628D02*
X233785714Y-67883390D01*
X191781639Y-101345945D02*
X191734020Y-101393565D01*
X191734020Y-101393565D02*
X191591163Y-101441184D01*
X191591163Y-101441184D02*
X191495925Y-101441184D01*
X191495925Y-101441184D02*
X191353068Y-101393565D01*
X191353068Y-101393565D02*
X191257830Y-101298326D01*
X191257830Y-101298326D02*
X191210211Y-101203088D01*
X191210211Y-101203088D02*
X191162592Y-101012612D01*
X191162592Y-101012612D02*
X191162592Y-100869755D01*
X191162592Y-100869755D02*
X191210211Y-100679279D01*
X191210211Y-100679279D02*
X191257830Y-100584041D01*
X191257830Y-100584041D02*
X191353068Y-100488803D01*
X191353068Y-100488803D02*
X191495925Y-100441184D01*
X191495925Y-100441184D02*
X191591163Y-100441184D01*
X191591163Y-100441184D02*
X191734020Y-100488803D01*
X191734020Y-100488803D02*
X191781639Y-100536422D01*
X192114973Y-100441184D02*
X192734020Y-100441184D01*
X192734020Y-100441184D02*
X192400687Y-100822136D01*
X192400687Y-100822136D02*
X192543544Y-100822136D01*
X192543544Y-100822136D02*
X192638782Y-100869755D01*
X192638782Y-100869755D02*
X192686401Y-100917374D01*
X192686401Y-100917374D02*
X192734020Y-101012612D01*
X192734020Y-101012612D02*
X192734020Y-101250707D01*
X192734020Y-101250707D02*
X192686401Y-101345945D01*
X192686401Y-101345945D02*
X192638782Y-101393565D01*
X192638782Y-101393565D02*
X192543544Y-101441184D01*
X192543544Y-101441184D02*
X192257830Y-101441184D01*
X192257830Y-101441184D02*
X192162592Y-101393565D01*
X192162592Y-101393565D02*
X192114973Y-101345945D01*
X147454819Y-109809523D02*
X148169104Y-109809523D01*
X148169104Y-109809523D02*
X148311961Y-109857142D01*
X148311961Y-109857142D02*
X148407200Y-109952380D01*
X148407200Y-109952380D02*
X148454819Y-110095237D01*
X148454819Y-110095237D02*
X148454819Y-110190475D01*
X148454819Y-108809523D02*
X148454819Y-109380951D01*
X148454819Y-109095237D02*
X147454819Y-109095237D01*
X147454819Y-109095237D02*
X147597676Y-109190475D01*
X147597676Y-109190475D02*
X147692914Y-109285713D01*
X147692914Y-109285713D02*
X147740533Y-109380951D01*
X148454819Y-107857142D02*
X148454819Y-108428570D01*
X148454819Y-108142856D02*
X147454819Y-108142856D01*
X147454819Y-108142856D02*
X147597676Y-108238094D01*
X147597676Y-108238094D02*
X147692914Y-108333332D01*
X147692914Y-108333332D02*
X147740533Y-108428570D01*
X225954761Y-66100057D02*
X225859523Y-66052438D01*
X225859523Y-66052438D02*
X225764285Y-65957200D01*
X225764285Y-65957200D02*
X225621428Y-65814342D01*
X225621428Y-65814342D02*
X225526190Y-65766723D01*
X225526190Y-65766723D02*
X225430952Y-65766723D01*
X225478571Y-66004819D02*
X225383333Y-65957200D01*
X225383333Y-65957200D02*
X225288095Y-65861961D01*
X225288095Y-65861961D02*
X225240476Y-65671485D01*
X225240476Y-65671485D02*
X225240476Y-65338152D01*
X225240476Y-65338152D02*
X225288095Y-65147676D01*
X225288095Y-65147676D02*
X225383333Y-65052438D01*
X225383333Y-65052438D02*
X225478571Y-65004819D01*
X225478571Y-65004819D02*
X225669047Y-65004819D01*
X225669047Y-65004819D02*
X225764285Y-65052438D01*
X225764285Y-65052438D02*
X225859523Y-65147676D01*
X225859523Y-65147676D02*
X225907142Y-65338152D01*
X225907142Y-65338152D02*
X225907142Y-65671485D01*
X225907142Y-65671485D02*
X225859523Y-65861961D01*
X225859523Y-65861961D02*
X225764285Y-65957200D01*
X225764285Y-65957200D02*
X225669047Y-66004819D01*
X225669047Y-66004819D02*
X225478571Y-66004819D01*
X226288095Y-65100057D02*
X226335714Y-65052438D01*
X226335714Y-65052438D02*
X226430952Y-65004819D01*
X226430952Y-65004819D02*
X226669047Y-65004819D01*
X226669047Y-65004819D02*
X226764285Y-65052438D01*
X226764285Y-65052438D02*
X226811904Y-65100057D01*
X226811904Y-65100057D02*
X226859523Y-65195295D01*
X226859523Y-65195295D02*
X226859523Y-65290533D01*
X226859523Y-65290533D02*
X226811904Y-65433390D01*
X226811904Y-65433390D02*
X226240476Y-66004819D01*
X226240476Y-66004819D02*
X226859523Y-66004819D01*
X229609580Y-75142857D02*
X229657200Y-75190476D01*
X229657200Y-75190476D02*
X229704819Y-75333333D01*
X229704819Y-75333333D02*
X229704819Y-75428571D01*
X229704819Y-75428571D02*
X229657200Y-75571428D01*
X229657200Y-75571428D02*
X229561961Y-75666666D01*
X229561961Y-75666666D02*
X229466723Y-75714285D01*
X229466723Y-75714285D02*
X229276247Y-75761904D01*
X229276247Y-75761904D02*
X229133390Y-75761904D01*
X229133390Y-75761904D02*
X228942914Y-75714285D01*
X228942914Y-75714285D02*
X228847676Y-75666666D01*
X228847676Y-75666666D02*
X228752438Y-75571428D01*
X228752438Y-75571428D02*
X228704819Y-75428571D01*
X228704819Y-75428571D02*
X228704819Y-75333333D01*
X228704819Y-75333333D02*
X228752438Y-75190476D01*
X228752438Y-75190476D02*
X228800057Y-75142857D01*
X229704819Y-74190476D02*
X229704819Y-74761904D01*
X229704819Y-74476190D02*
X228704819Y-74476190D01*
X228704819Y-74476190D02*
X228847676Y-74571428D01*
X228847676Y-74571428D02*
X228942914Y-74666666D01*
X228942914Y-74666666D02*
X228990533Y-74761904D01*
X229704819Y-73238095D02*
X229704819Y-73809523D01*
X229704819Y-73523809D02*
X228704819Y-73523809D01*
X228704819Y-73523809D02*
X228847676Y-73619047D01*
X228847676Y-73619047D02*
X228942914Y-73714285D01*
X228942914Y-73714285D02*
X228990533Y-73809523D01*
X233166666Y-44304819D02*
X232833333Y-43828628D01*
X232595238Y-44304819D02*
X232595238Y-43304819D01*
X232595238Y-43304819D02*
X232976190Y-43304819D01*
X232976190Y-43304819D02*
X233071428Y-43352438D01*
X233071428Y-43352438D02*
X233119047Y-43400057D01*
X233119047Y-43400057D02*
X233166666Y-43495295D01*
X233166666Y-43495295D02*
X233166666Y-43638152D01*
X233166666Y-43638152D02*
X233119047Y-43733390D01*
X233119047Y-43733390D02*
X233071428Y-43781009D01*
X233071428Y-43781009D02*
X232976190Y-43828628D01*
X232976190Y-43828628D02*
X232595238Y-43828628D01*
X233595238Y-43781009D02*
X233928571Y-43781009D01*
X234071428Y-44304819D02*
X233595238Y-44304819D01*
X233595238Y-44304819D02*
X233595238Y-43304819D01*
X233595238Y-43304819D02*
X234071428Y-43304819D01*
X234833333Y-43781009D02*
X234500000Y-43781009D01*
X234500000Y-44304819D02*
X234500000Y-43304819D01*
X234500000Y-43304819D02*
X234976190Y-43304819D01*
X235500000Y-43304819D02*
X235500000Y-43542914D01*
X235261905Y-43447676D02*
X235500000Y-43542914D01*
X235500000Y-43542914D02*
X235738095Y-43447676D01*
X235357143Y-43733390D02*
X235500000Y-43542914D01*
X235500000Y-43542914D02*
X235642857Y-43733390D01*
X236261905Y-43304819D02*
X236261905Y-43542914D01*
X236023810Y-43447676D02*
X236261905Y-43542914D01*
X236261905Y-43542914D02*
X236500000Y-43447676D01*
X236119048Y-43733390D02*
X236261905Y-43542914D01*
X236261905Y-43542914D02*
X236404762Y-43733390D01*
X232324819Y-85666666D02*
X231848628Y-85999999D01*
X232324819Y-86238094D02*
X231324819Y-86238094D01*
X231324819Y-86238094D02*
X231324819Y-85857142D01*
X231324819Y-85857142D02*
X231372438Y-85761904D01*
X231372438Y-85761904D02*
X231420057Y-85714285D01*
X231420057Y-85714285D02*
X231515295Y-85666666D01*
X231515295Y-85666666D02*
X231658152Y-85666666D01*
X231658152Y-85666666D02*
X231753390Y-85714285D01*
X231753390Y-85714285D02*
X231801009Y-85761904D01*
X231801009Y-85761904D02*
X231848628Y-85857142D01*
X231848628Y-85857142D02*
X231848628Y-86238094D01*
X231324819Y-84809523D02*
X231324819Y-84999999D01*
X231324819Y-84999999D02*
X231372438Y-85095237D01*
X231372438Y-85095237D02*
X231420057Y-85142856D01*
X231420057Y-85142856D02*
X231562914Y-85238094D01*
X231562914Y-85238094D02*
X231753390Y-85285713D01*
X231753390Y-85285713D02*
X232134342Y-85285713D01*
X232134342Y-85285713D02*
X232229580Y-85238094D01*
X232229580Y-85238094D02*
X232277200Y-85190475D01*
X232277200Y-85190475D02*
X232324819Y-85095237D01*
X232324819Y-85095237D02*
X232324819Y-84904761D01*
X232324819Y-84904761D02*
X232277200Y-84809523D01*
X232277200Y-84809523D02*
X232229580Y-84761904D01*
X232229580Y-84761904D02*
X232134342Y-84714285D01*
X232134342Y-84714285D02*
X231896247Y-84714285D01*
X231896247Y-84714285D02*
X231801009Y-84761904D01*
X231801009Y-84761904D02*
X231753390Y-84809523D01*
X231753390Y-84809523D02*
X231705771Y-84904761D01*
X231705771Y-84904761D02*
X231705771Y-85095237D01*
X231705771Y-85095237D02*
X231753390Y-85190475D01*
X231753390Y-85190475D02*
X231801009Y-85238094D01*
X231801009Y-85238094D02*
X231896247Y-85285713D01*
X132809700Y-75933332D02*
X132857319Y-75790475D01*
X132857319Y-75790475D02*
X132857319Y-75552380D01*
X132857319Y-75552380D02*
X132809700Y-75457142D01*
X132809700Y-75457142D02*
X132762080Y-75409523D01*
X132762080Y-75409523D02*
X132666842Y-75361904D01*
X132666842Y-75361904D02*
X132571604Y-75361904D01*
X132571604Y-75361904D02*
X132476366Y-75409523D01*
X132476366Y-75409523D02*
X132428747Y-75457142D01*
X132428747Y-75457142D02*
X132381128Y-75552380D01*
X132381128Y-75552380D02*
X132333509Y-75742856D01*
X132333509Y-75742856D02*
X132285890Y-75838094D01*
X132285890Y-75838094D02*
X132238271Y-75885713D01*
X132238271Y-75885713D02*
X132143033Y-75933332D01*
X132143033Y-75933332D02*
X132047795Y-75933332D01*
X132047795Y-75933332D02*
X131952557Y-75885713D01*
X131952557Y-75885713D02*
X131904938Y-75838094D01*
X131904938Y-75838094D02*
X131857319Y-75742856D01*
X131857319Y-75742856D02*
X131857319Y-75504761D01*
X131857319Y-75504761D02*
X131904938Y-75361904D01*
X131857319Y-75028570D02*
X132857319Y-74790475D01*
X132857319Y-74790475D02*
X132143033Y-74599999D01*
X132143033Y-74599999D02*
X132857319Y-74409523D01*
X132857319Y-74409523D02*
X131857319Y-74171428D01*
X132857319Y-73266666D02*
X132857319Y-73838094D01*
X132857319Y-73552380D02*
X131857319Y-73552380D01*
X131857319Y-73552380D02*
X132000176Y-73647618D01*
X132000176Y-73647618D02*
X132095414Y-73742856D01*
X132095414Y-73742856D02*
X132143033Y-73838094D01*
X132666666Y-44304819D02*
X132333333Y-43828628D01*
X132095238Y-44304819D02*
X132095238Y-43304819D01*
X132095238Y-43304819D02*
X132476190Y-43304819D01*
X132476190Y-43304819D02*
X132571428Y-43352438D01*
X132571428Y-43352438D02*
X132619047Y-43400057D01*
X132619047Y-43400057D02*
X132666666Y-43495295D01*
X132666666Y-43495295D02*
X132666666Y-43638152D01*
X132666666Y-43638152D02*
X132619047Y-43733390D01*
X132619047Y-43733390D02*
X132571428Y-43781009D01*
X132571428Y-43781009D02*
X132476190Y-43828628D01*
X132476190Y-43828628D02*
X132095238Y-43828628D01*
X133095238Y-43781009D02*
X133428571Y-43781009D01*
X133571428Y-44304819D02*
X133095238Y-44304819D01*
X133095238Y-44304819D02*
X133095238Y-43304819D01*
X133095238Y-43304819D02*
X133571428Y-43304819D01*
X134333333Y-43781009D02*
X134000000Y-43781009D01*
X134000000Y-44304819D02*
X134000000Y-43304819D01*
X134000000Y-43304819D02*
X134476190Y-43304819D01*
X135000000Y-43304819D02*
X135000000Y-43542914D01*
X134761905Y-43447676D02*
X135000000Y-43542914D01*
X135000000Y-43542914D02*
X135238095Y-43447676D01*
X134857143Y-43733390D02*
X135000000Y-43542914D01*
X135000000Y-43542914D02*
X135142857Y-43733390D01*
X135761905Y-43304819D02*
X135761905Y-43542914D01*
X135523810Y-43447676D02*
X135761905Y-43542914D01*
X135761905Y-43542914D02*
X136000000Y-43447676D01*
X135619048Y-43733390D02*
X135761905Y-43542914D01*
X135761905Y-43542914D02*
X135904762Y-43733390D01*
X218166666Y-114834819D02*
X218166666Y-115549104D01*
X218166666Y-115549104D02*
X218119047Y-115691961D01*
X218119047Y-115691961D02*
X218023809Y-115787200D01*
X218023809Y-115787200D02*
X217880952Y-115834819D01*
X217880952Y-115834819D02*
X217785714Y-115834819D01*
X219166666Y-115834819D02*
X218595238Y-115834819D01*
X218880952Y-115834819D02*
X218880952Y-114834819D01*
X218880952Y-114834819D02*
X218785714Y-114977676D01*
X218785714Y-114977676D02*
X218690476Y-115072914D01*
X218690476Y-115072914D02*
X218595238Y-115120533D01*
X144080733Y-51359580D02*
X144033114Y-51407200D01*
X144033114Y-51407200D02*
X143890257Y-51454819D01*
X143890257Y-51454819D02*
X143795019Y-51454819D01*
X143795019Y-51454819D02*
X143652162Y-51407200D01*
X143652162Y-51407200D02*
X143556924Y-51311961D01*
X143556924Y-51311961D02*
X143509305Y-51216723D01*
X143509305Y-51216723D02*
X143461686Y-51026247D01*
X143461686Y-51026247D02*
X143461686Y-50883390D01*
X143461686Y-50883390D02*
X143509305Y-50692914D01*
X143509305Y-50692914D02*
X143556924Y-50597676D01*
X143556924Y-50597676D02*
X143652162Y-50502438D01*
X143652162Y-50502438D02*
X143795019Y-50454819D01*
X143795019Y-50454819D02*
X143890257Y-50454819D01*
X143890257Y-50454819D02*
X144033114Y-50502438D01*
X144033114Y-50502438D02*
X144080733Y-50550057D01*
X145033114Y-51454819D02*
X144461686Y-51454819D01*
X144747400Y-51454819D02*
X144747400Y-50454819D01*
X144747400Y-50454819D02*
X144652162Y-50597676D01*
X144652162Y-50597676D02*
X144556924Y-50692914D01*
X144556924Y-50692914D02*
X144461686Y-50740533D01*
X234324819Y-58642857D02*
X233848628Y-58976190D01*
X234324819Y-59214285D02*
X233324819Y-59214285D01*
X233324819Y-59214285D02*
X233324819Y-58833333D01*
X233324819Y-58833333D02*
X233372438Y-58738095D01*
X233372438Y-58738095D02*
X233420057Y-58690476D01*
X233420057Y-58690476D02*
X233515295Y-58642857D01*
X233515295Y-58642857D02*
X233658152Y-58642857D01*
X233658152Y-58642857D02*
X233753390Y-58690476D01*
X233753390Y-58690476D02*
X233801009Y-58738095D01*
X233801009Y-58738095D02*
X233848628Y-58833333D01*
X233848628Y-58833333D02*
X233848628Y-59214285D01*
X234324819Y-57690476D02*
X234324819Y-58261904D01*
X234324819Y-57976190D02*
X233324819Y-57976190D01*
X233324819Y-57976190D02*
X233467676Y-58071428D01*
X233467676Y-58071428D02*
X233562914Y-58166666D01*
X233562914Y-58166666D02*
X233610533Y-58261904D01*
X233324819Y-57071428D02*
X233324819Y-56976190D01*
X233324819Y-56976190D02*
X233372438Y-56880952D01*
X233372438Y-56880952D02*
X233420057Y-56833333D01*
X233420057Y-56833333D02*
X233515295Y-56785714D01*
X233515295Y-56785714D02*
X233705771Y-56738095D01*
X233705771Y-56738095D02*
X233943866Y-56738095D01*
X233943866Y-56738095D02*
X234134342Y-56785714D01*
X234134342Y-56785714D02*
X234229580Y-56833333D01*
X234229580Y-56833333D02*
X234277200Y-56880952D01*
X234277200Y-56880952D02*
X234324819Y-56976190D01*
X234324819Y-56976190D02*
X234324819Y-57071428D01*
X234324819Y-57071428D02*
X234277200Y-57166666D01*
X234277200Y-57166666D02*
X234229580Y-57214285D01*
X234229580Y-57214285D02*
X234134342Y-57261904D01*
X234134342Y-57261904D02*
X233943866Y-57309523D01*
X233943866Y-57309523D02*
X233705771Y-57309523D01*
X233705771Y-57309523D02*
X233515295Y-57261904D01*
X233515295Y-57261904D02*
X233420057Y-57214285D01*
X233420057Y-57214285D02*
X233372438Y-57166666D01*
X233372438Y-57166666D02*
X233324819Y-57071428D01*
X172591163Y-100626784D02*
X172638782Y-100579165D01*
X172638782Y-100579165D02*
X172781639Y-100531545D01*
X172781639Y-100531545D02*
X172876877Y-100531545D01*
X172876877Y-100531545D02*
X173019734Y-100579165D01*
X173019734Y-100579165D02*
X173114972Y-100674403D01*
X173114972Y-100674403D02*
X173162591Y-100769641D01*
X173162591Y-100769641D02*
X173210210Y-100960117D01*
X173210210Y-100960117D02*
X173210210Y-101102974D01*
X173210210Y-101102974D02*
X173162591Y-101293450D01*
X173162591Y-101293450D02*
X173114972Y-101388688D01*
X173114972Y-101388688D02*
X173019734Y-101483926D01*
X173019734Y-101483926D02*
X172876877Y-101531545D01*
X172876877Y-101531545D02*
X172781639Y-101531545D01*
X172781639Y-101531545D02*
X172638782Y-101483926D01*
X172638782Y-101483926D02*
X172591163Y-101436307D01*
X171638782Y-100531545D02*
X172210210Y-100531545D01*
X171924496Y-100531545D02*
X171924496Y-101531545D01*
X171924496Y-101531545D02*
X172019734Y-101388688D01*
X172019734Y-101388688D02*
X172114972Y-101293450D01*
X172114972Y-101293450D02*
X172210210Y-101245831D01*
X171019734Y-101531545D02*
X170924496Y-101531545D01*
X170924496Y-101531545D02*
X170829258Y-101483926D01*
X170829258Y-101483926D02*
X170781639Y-101436307D01*
X170781639Y-101436307D02*
X170734020Y-101341069D01*
X170734020Y-101341069D02*
X170686401Y-101150593D01*
X170686401Y-101150593D02*
X170686401Y-100912498D01*
X170686401Y-100912498D02*
X170734020Y-100722022D01*
X170734020Y-100722022D02*
X170781639Y-100626784D01*
X170781639Y-100626784D02*
X170829258Y-100579165D01*
X170829258Y-100579165D02*
X170924496Y-100531545D01*
X170924496Y-100531545D02*
X171019734Y-100531545D01*
X171019734Y-100531545D02*
X171114972Y-100579165D01*
X171114972Y-100579165D02*
X171162591Y-100626784D01*
X171162591Y-100626784D02*
X171210210Y-100722022D01*
X171210210Y-100722022D02*
X171257829Y-100912498D01*
X171257829Y-100912498D02*
X171257829Y-101150593D01*
X171257829Y-101150593D02*
X171210210Y-101341069D01*
X171210210Y-101341069D02*
X171162591Y-101436307D01*
X171162591Y-101436307D02*
X171114972Y-101483926D01*
X171114972Y-101483926D02*
X171019734Y-101531545D01*
X132666666Y-115304819D02*
X132333333Y-114828628D01*
X132095238Y-115304819D02*
X132095238Y-114304819D01*
X132095238Y-114304819D02*
X132476190Y-114304819D01*
X132476190Y-114304819D02*
X132571428Y-114352438D01*
X132571428Y-114352438D02*
X132619047Y-114400057D01*
X132619047Y-114400057D02*
X132666666Y-114495295D01*
X132666666Y-114495295D02*
X132666666Y-114638152D01*
X132666666Y-114638152D02*
X132619047Y-114733390D01*
X132619047Y-114733390D02*
X132571428Y-114781009D01*
X132571428Y-114781009D02*
X132476190Y-114828628D01*
X132476190Y-114828628D02*
X132095238Y-114828628D01*
X133095238Y-114781009D02*
X133428571Y-114781009D01*
X133571428Y-115304819D02*
X133095238Y-115304819D01*
X133095238Y-115304819D02*
X133095238Y-114304819D01*
X133095238Y-114304819D02*
X133571428Y-114304819D01*
X134333333Y-114781009D02*
X134000000Y-114781009D01*
X134000000Y-115304819D02*
X134000000Y-114304819D01*
X134000000Y-114304819D02*
X134476190Y-114304819D01*
X135000000Y-114304819D02*
X135000000Y-114542914D01*
X134761905Y-114447676D02*
X135000000Y-114542914D01*
X135000000Y-114542914D02*
X135238095Y-114447676D01*
X134857143Y-114733390D02*
X135000000Y-114542914D01*
X135000000Y-114542914D02*
X135142857Y-114733390D01*
X135761905Y-114304819D02*
X135761905Y-114542914D01*
X135523810Y-114447676D02*
X135761905Y-114542914D01*
X135761905Y-114542914D02*
X136000000Y-114447676D01*
X135619048Y-114733390D02*
X135761905Y-114542914D01*
X135761905Y-114542914D02*
X135904762Y-114733390D01*
X204584819Y-106166666D02*
X204108628Y-106499999D01*
X204584819Y-106738094D02*
X203584819Y-106738094D01*
X203584819Y-106738094D02*
X203584819Y-106357142D01*
X203584819Y-106357142D02*
X203632438Y-106261904D01*
X203632438Y-106261904D02*
X203680057Y-106214285D01*
X203680057Y-106214285D02*
X203775295Y-106166666D01*
X203775295Y-106166666D02*
X203918152Y-106166666D01*
X203918152Y-106166666D02*
X204013390Y-106214285D01*
X204013390Y-106214285D02*
X204061009Y-106261904D01*
X204061009Y-106261904D02*
X204108628Y-106357142D01*
X204108628Y-106357142D02*
X204108628Y-106738094D01*
X204584819Y-105214285D02*
X204584819Y-105785713D01*
X204584819Y-105499999D02*
X203584819Y-105499999D01*
X203584819Y-105499999D02*
X203727676Y-105595237D01*
X203727676Y-105595237D02*
X203822914Y-105690475D01*
X203822914Y-105690475D02*
X203870533Y-105785713D01*
X210281639Y-99571184D02*
X209948306Y-99094993D01*
X209710211Y-99571184D02*
X209710211Y-98571184D01*
X209710211Y-98571184D02*
X210091163Y-98571184D01*
X210091163Y-98571184D02*
X210186401Y-98618803D01*
X210186401Y-98618803D02*
X210234020Y-98666422D01*
X210234020Y-98666422D02*
X210281639Y-98761660D01*
X210281639Y-98761660D02*
X210281639Y-98904517D01*
X210281639Y-98904517D02*
X210234020Y-98999755D01*
X210234020Y-98999755D02*
X210186401Y-99047374D01*
X210186401Y-99047374D02*
X210091163Y-99094993D01*
X210091163Y-99094993D02*
X209710211Y-99094993D01*
X210662592Y-98666422D02*
X210710211Y-98618803D01*
X210710211Y-98618803D02*
X210805449Y-98571184D01*
X210805449Y-98571184D02*
X211043544Y-98571184D01*
X211043544Y-98571184D02*
X211138782Y-98618803D01*
X211138782Y-98618803D02*
X211186401Y-98666422D01*
X211186401Y-98666422D02*
X211234020Y-98761660D01*
X211234020Y-98761660D02*
X211234020Y-98856898D01*
X211234020Y-98856898D02*
X211186401Y-98999755D01*
X211186401Y-98999755D02*
X210614973Y-99571184D01*
X210614973Y-99571184D02*
X211234020Y-99571184D01*
X149931009Y-69333333D02*
X149931009Y-69666666D01*
X150454819Y-69666666D02*
X149454819Y-69666666D01*
X149454819Y-69666666D02*
X149454819Y-69190476D01*
X150454819Y-68285714D02*
X150454819Y-68857142D01*
X150454819Y-68571428D02*
X149454819Y-68571428D01*
X149454819Y-68571428D02*
X149597676Y-68666666D01*
X149597676Y-68666666D02*
X149692914Y-68761904D01*
X149692914Y-68761904D02*
X149740533Y-68857142D01*
X171260561Y-114595945D02*
X171212942Y-114643565D01*
X171212942Y-114643565D02*
X171070085Y-114691184D01*
X171070085Y-114691184D02*
X170974847Y-114691184D01*
X170974847Y-114691184D02*
X170831990Y-114643565D01*
X170831990Y-114643565D02*
X170736752Y-114548326D01*
X170736752Y-114548326D02*
X170689133Y-114453088D01*
X170689133Y-114453088D02*
X170641514Y-114262612D01*
X170641514Y-114262612D02*
X170641514Y-114119755D01*
X170641514Y-114119755D02*
X170689133Y-113929279D01*
X170689133Y-113929279D02*
X170736752Y-113834041D01*
X170736752Y-113834041D02*
X170831990Y-113738803D01*
X170831990Y-113738803D02*
X170974847Y-113691184D01*
X170974847Y-113691184D02*
X171070085Y-113691184D01*
X171070085Y-113691184D02*
X171212942Y-113738803D01*
X171212942Y-113738803D02*
X171260561Y-113786422D01*
X172212942Y-114691184D02*
X171641514Y-114691184D01*
X171927228Y-114691184D02*
X171927228Y-113691184D01*
X171927228Y-113691184D02*
X171831990Y-113834041D01*
X171831990Y-113834041D02*
X171736752Y-113929279D01*
X171736752Y-113929279D02*
X171641514Y-113976898D01*
X173117704Y-113691184D02*
X172641514Y-113691184D01*
X172641514Y-113691184D02*
X172593895Y-114167374D01*
X172593895Y-114167374D02*
X172641514Y-114119755D01*
X172641514Y-114119755D02*
X172736752Y-114072136D01*
X172736752Y-114072136D02*
X172974847Y-114072136D01*
X172974847Y-114072136D02*
X173070085Y-114119755D01*
X173070085Y-114119755D02*
X173117704Y-114167374D01*
X173117704Y-114167374D02*
X173165323Y-114262612D01*
X173165323Y-114262612D02*
X173165323Y-114500707D01*
X173165323Y-114500707D02*
X173117704Y-114595945D01*
X173117704Y-114595945D02*
X173070085Y-114643565D01*
X173070085Y-114643565D02*
X172974847Y-114691184D01*
X172974847Y-114691184D02*
X172736752Y-114691184D01*
X172736752Y-114691184D02*
X172641514Y-114643565D01*
X172641514Y-114643565D02*
X172593895Y-114595945D01*
X209490057Y-98095238D02*
X209442438Y-98190476D01*
X209442438Y-98190476D02*
X209347200Y-98285714D01*
X209347200Y-98285714D02*
X209204342Y-98428571D01*
X209204342Y-98428571D02*
X209156723Y-98523809D01*
X209156723Y-98523809D02*
X209156723Y-98619047D01*
X209394819Y-98571428D02*
X209347200Y-98666666D01*
X209347200Y-98666666D02*
X209251961Y-98761904D01*
X209251961Y-98761904D02*
X209061485Y-98809523D01*
X209061485Y-98809523D02*
X208728152Y-98809523D01*
X208728152Y-98809523D02*
X208537676Y-98761904D01*
X208537676Y-98761904D02*
X208442438Y-98666666D01*
X208442438Y-98666666D02*
X208394819Y-98571428D01*
X208394819Y-98571428D02*
X208394819Y-98380952D01*
X208394819Y-98380952D02*
X208442438Y-98285714D01*
X208442438Y-98285714D02*
X208537676Y-98190476D01*
X208537676Y-98190476D02*
X208728152Y-98142857D01*
X208728152Y-98142857D02*
X209061485Y-98142857D01*
X209061485Y-98142857D02*
X209251961Y-98190476D01*
X209251961Y-98190476D02*
X209347200Y-98285714D01*
X209347200Y-98285714D02*
X209394819Y-98380952D01*
X209394819Y-98380952D02*
X209394819Y-98571428D01*
X208394819Y-97238095D02*
X208394819Y-97714285D01*
X208394819Y-97714285D02*
X208871009Y-97761904D01*
X208871009Y-97761904D02*
X208823390Y-97714285D01*
X208823390Y-97714285D02*
X208775771Y-97619047D01*
X208775771Y-97619047D02*
X208775771Y-97380952D01*
X208775771Y-97380952D02*
X208823390Y-97285714D01*
X208823390Y-97285714D02*
X208871009Y-97238095D01*
X208871009Y-97238095D02*
X208966247Y-97190476D01*
X208966247Y-97190476D02*
X209204342Y-97190476D01*
X209204342Y-97190476D02*
X209299580Y-97238095D01*
X209299580Y-97238095D02*
X209347200Y-97285714D01*
X209347200Y-97285714D02*
X209394819Y-97380952D01*
X209394819Y-97380952D02*
X209394819Y-97619047D01*
X209394819Y-97619047D02*
X209347200Y-97714285D01*
X209347200Y-97714285D02*
X209299580Y-97761904D01*
X224140419Y-95333333D02*
X224092800Y-95285714D01*
X224092800Y-95285714D02*
X224045180Y-95142857D01*
X224045180Y-95142857D02*
X224045180Y-95047619D01*
X224045180Y-95047619D02*
X224092800Y-94904762D01*
X224092800Y-94904762D02*
X224188038Y-94809524D01*
X224188038Y-94809524D02*
X224283276Y-94761905D01*
X224283276Y-94761905D02*
X224473752Y-94714286D01*
X224473752Y-94714286D02*
X224616609Y-94714286D01*
X224616609Y-94714286D02*
X224807085Y-94761905D01*
X224807085Y-94761905D02*
X224902323Y-94809524D01*
X224902323Y-94809524D02*
X224997561Y-94904762D01*
X224997561Y-94904762D02*
X225045180Y-95047619D01*
X225045180Y-95047619D02*
X225045180Y-95142857D01*
X225045180Y-95142857D02*
X224997561Y-95285714D01*
X224997561Y-95285714D02*
X224949942Y-95333333D01*
X224616609Y-95904762D02*
X224664228Y-95809524D01*
X224664228Y-95809524D02*
X224711847Y-95761905D01*
X224711847Y-95761905D02*
X224807085Y-95714286D01*
X224807085Y-95714286D02*
X224854704Y-95714286D01*
X224854704Y-95714286D02*
X224949942Y-95761905D01*
X224949942Y-95761905D02*
X224997561Y-95809524D01*
X224997561Y-95809524D02*
X225045180Y-95904762D01*
X225045180Y-95904762D02*
X225045180Y-96095238D01*
X225045180Y-96095238D02*
X224997561Y-96190476D01*
X224997561Y-96190476D02*
X224949942Y-96238095D01*
X224949942Y-96238095D02*
X224854704Y-96285714D01*
X224854704Y-96285714D02*
X224807085Y-96285714D01*
X224807085Y-96285714D02*
X224711847Y-96238095D01*
X224711847Y-96238095D02*
X224664228Y-96190476D01*
X224664228Y-96190476D02*
X224616609Y-96095238D01*
X224616609Y-96095238D02*
X224616609Y-95904762D01*
X224616609Y-95904762D02*
X224568990Y-95809524D01*
X224568990Y-95809524D02*
X224521371Y-95761905D01*
X224521371Y-95761905D02*
X224426133Y-95714286D01*
X224426133Y-95714286D02*
X224235657Y-95714286D01*
X224235657Y-95714286D02*
X224140419Y-95761905D01*
X224140419Y-95761905D02*
X224092800Y-95809524D01*
X224092800Y-95809524D02*
X224045180Y-95904762D01*
X224045180Y-95904762D02*
X224045180Y-96095238D01*
X224045180Y-96095238D02*
X224092800Y-96190476D01*
X224092800Y-96190476D02*
X224140419Y-96238095D01*
X224140419Y-96238095D02*
X224235657Y-96285714D01*
X224235657Y-96285714D02*
X224426133Y-96285714D01*
X224426133Y-96285714D02*
X224521371Y-96238095D01*
X224521371Y-96238095D02*
X224568990Y-96190476D01*
X224568990Y-96190476D02*
X224616609Y-96095238D01*
X233166666Y-115304819D02*
X232833333Y-114828628D01*
X232595238Y-115304819D02*
X232595238Y-114304819D01*
X232595238Y-114304819D02*
X232976190Y-114304819D01*
X232976190Y-114304819D02*
X233071428Y-114352438D01*
X233071428Y-114352438D02*
X233119047Y-114400057D01*
X233119047Y-114400057D02*
X233166666Y-114495295D01*
X233166666Y-114495295D02*
X233166666Y-114638152D01*
X233166666Y-114638152D02*
X233119047Y-114733390D01*
X233119047Y-114733390D02*
X233071428Y-114781009D01*
X233071428Y-114781009D02*
X232976190Y-114828628D01*
X232976190Y-114828628D02*
X232595238Y-114828628D01*
X233595238Y-114781009D02*
X233928571Y-114781009D01*
X234071428Y-115304819D02*
X233595238Y-115304819D01*
X233595238Y-115304819D02*
X233595238Y-114304819D01*
X233595238Y-114304819D02*
X234071428Y-114304819D01*
X234833333Y-114781009D02*
X234500000Y-114781009D01*
X234500000Y-115304819D02*
X234500000Y-114304819D01*
X234500000Y-114304819D02*
X234976190Y-114304819D01*
X235500000Y-114304819D02*
X235500000Y-114542914D01*
X235261905Y-114447676D02*
X235500000Y-114542914D01*
X235500000Y-114542914D02*
X235738095Y-114447676D01*
X235357143Y-114733390D02*
X235500000Y-114542914D01*
X235500000Y-114542914D02*
X235642857Y-114733390D01*
X236261905Y-114304819D02*
X236261905Y-114542914D01*
X236023810Y-114447676D02*
X236261905Y-114542914D01*
X236261905Y-114542914D02*
X236500000Y-114447676D01*
X236119048Y-114733390D02*
X236261905Y-114542914D01*
X236261905Y-114542914D02*
X236404762Y-114733390D01*
%TO.C,R12*%
D11*
X150960000Y-101500000D02*
X151730000Y-101500000D01*
X159040000Y-101500000D02*
X158270000Y-101500000D01*
X151730000Y-100130000D02*
X158270000Y-100130000D01*
X158270000Y-102870000D01*
X151730000Y-102870000D01*
X151730000Y-100130000D01*
%TO.C,U2*%
X163088306Y-98836365D02*
X167708306Y-98836365D01*
X163088306Y-109056365D02*
X163088306Y-98836365D01*
X166328306Y-98836365D02*
X166328306Y-109056365D01*
X167708306Y-98836365D02*
X167708306Y-109056365D01*
X167708306Y-102096365D02*
X166328306Y-102096365D01*
X167708306Y-105796365D02*
X166328306Y-105796365D01*
X167708306Y-109056365D02*
X163088306Y-109056365D01*
%TO.C,R11*%
X234500000Y-53960000D02*
X234500000Y-54730000D01*
X234500000Y-62040000D02*
X234500000Y-61270000D01*
X233130000Y-54730000D02*
X235870000Y-54730000D01*
X235870000Y-61270000D01*
X233130000Y-61270000D01*
X233130000Y-54730000D01*
%TO.C,J2*%
X159190000Y-49670000D02*
X159190000Y-54870000D01*
X207510000Y-52270000D02*
X207510000Y-54870000D01*
X207510000Y-54870000D02*
X159190000Y-54870000D01*
X210110000Y-49670000D02*
X159190000Y-49670000D01*
X210110000Y-49670000D02*
X210110000Y-52270000D01*
X210110000Y-52270000D02*
X207510000Y-52270000D01*
X210110000Y-53540000D02*
X210110000Y-54870000D01*
X210110000Y-54870000D02*
X208780000Y-54870000D01*
%TO.C,C2*%
X132920000Y-65415113D02*
X134460000Y-65415113D01*
X132920000Y-65455113D02*
X134460000Y-65455113D01*
X132921000Y-65375113D02*
X134460000Y-65375113D01*
X132923000Y-65335113D02*
X134460000Y-65335113D01*
X132925000Y-65295113D02*
X134460000Y-65295113D01*
X132928000Y-65255113D02*
X134460000Y-65255113D01*
X132931000Y-65215113D02*
X134460000Y-65215113D01*
X132935000Y-65175113D02*
X134460000Y-65175113D01*
X132940000Y-65135113D02*
X134460000Y-65135113D01*
X132945000Y-65095113D02*
X134460000Y-65095113D01*
X132951000Y-65055113D02*
X134460000Y-65055113D01*
X132957000Y-65015113D02*
X134460000Y-65015113D01*
X132964000Y-64975113D02*
X134460000Y-64975113D01*
X132972000Y-64935113D02*
X134460000Y-64935113D01*
X132981000Y-64895113D02*
X134460000Y-64895113D01*
X132990000Y-64855113D02*
X134460000Y-64855113D01*
X132999000Y-64815113D02*
X134460000Y-64815113D01*
X133010000Y-64775113D02*
X134460000Y-64775113D01*
X133021000Y-64735113D02*
X134460000Y-64735113D01*
X133033000Y-64695113D02*
X134460000Y-64695113D01*
X133045000Y-64655113D02*
X134460000Y-64655113D01*
X133058000Y-64615113D02*
X134460000Y-64615113D01*
X133072000Y-64575113D02*
X134460000Y-64575113D01*
X133087000Y-64535113D02*
X134460000Y-64535113D01*
X133102000Y-64495113D02*
X134460000Y-64495113D01*
X133118000Y-64455113D02*
X134460000Y-64455113D01*
X133135000Y-64415113D02*
X134460000Y-64415113D01*
X133153000Y-64375113D02*
X134460000Y-64375113D01*
X133171000Y-64335113D02*
X134460000Y-64335113D01*
X133191000Y-64295113D02*
X134460000Y-64295113D01*
X133211000Y-64255113D02*
X134460000Y-64255113D01*
X133232000Y-64215113D02*
X134460000Y-64215113D01*
X133254000Y-64175113D02*
X134460000Y-64175113D01*
X133277000Y-64135113D02*
X134460000Y-64135113D01*
X133301000Y-64095113D02*
X134460000Y-64095113D01*
X133325000Y-64055113D02*
X134460000Y-64055113D01*
X133351000Y-64015113D02*
X134460000Y-64015113D01*
X133378000Y-63975113D02*
X134460000Y-63975113D01*
X133406000Y-63935113D02*
X134460000Y-63935113D01*
X133435000Y-63895113D02*
X134460000Y-63895113D01*
X133465000Y-63855113D02*
X134460000Y-63855113D01*
X133497000Y-63815113D02*
X134460000Y-63815113D01*
X133530000Y-63775113D02*
X134460000Y-63775113D01*
X133564000Y-63735113D02*
X134460000Y-63735113D01*
X133599000Y-63695113D02*
X134460000Y-63695113D01*
X133636000Y-63655113D02*
X134460000Y-63655113D01*
X133675000Y-63615113D02*
X134460000Y-63615113D01*
X133715000Y-63575113D02*
X134460000Y-63575113D01*
X133757000Y-63535113D02*
X134460000Y-63535113D01*
X133775000Y-68009888D02*
X134275000Y-68009888D01*
X133801000Y-63495113D02*
X134460000Y-63495113D01*
X133848000Y-63455113D02*
X134460000Y-63455113D01*
X133896000Y-63415113D02*
X137104000Y-63415113D01*
X133947000Y-63375113D02*
X137053000Y-63375113D01*
X134001000Y-63335113D02*
X136999000Y-63335113D01*
X134025000Y-68259888D02*
X134025000Y-67759888D01*
X134057000Y-63295113D02*
X136943000Y-63295113D01*
X134117000Y-63255113D02*
X136883000Y-63255113D01*
X134181000Y-63215113D02*
X136819000Y-63215113D01*
X134249000Y-63175113D02*
X136751000Y-63175113D01*
X134323000Y-63135113D02*
X136677000Y-63135113D01*
X134402000Y-63095113D02*
X136598000Y-63095113D01*
X134489000Y-63055113D02*
X136511000Y-63055113D01*
X134586000Y-63015113D02*
X136414000Y-63015113D01*
X134695000Y-62975113D02*
X136305000Y-62975113D01*
X134823000Y-62935113D02*
X136177000Y-62935113D01*
X134983000Y-62895113D02*
X136017000Y-62895113D01*
X135217000Y-62855113D02*
X135783000Y-62855113D01*
X136540000Y-63455113D02*
X137152000Y-63455113D01*
X136540000Y-63495113D02*
X137199000Y-63495113D01*
X136540000Y-63535113D02*
X137243000Y-63535113D01*
X136540000Y-63575113D02*
X137285000Y-63575113D01*
X136540000Y-63615113D02*
X137325000Y-63615113D01*
X136540000Y-63655113D02*
X137364000Y-63655113D01*
X136540000Y-63695113D02*
X137401000Y-63695113D01*
X136540000Y-63735113D02*
X137436000Y-63735113D01*
X136540000Y-63775113D02*
X137470000Y-63775113D01*
X136540000Y-63815113D02*
X137503000Y-63815113D01*
X136540000Y-63855113D02*
X137535000Y-63855113D01*
X136540000Y-63895113D02*
X137565000Y-63895113D01*
X136540000Y-63935113D02*
X137594000Y-63935113D01*
X136540000Y-63975113D02*
X137622000Y-63975113D01*
X136540000Y-64015113D02*
X137649000Y-64015113D01*
X136540000Y-64055113D02*
X137675000Y-64055113D01*
X136540000Y-64095113D02*
X137699000Y-64095113D01*
X136540000Y-64135113D02*
X137723000Y-64135113D01*
X136540000Y-64175113D02*
X137746000Y-64175113D01*
X136540000Y-64215113D02*
X137768000Y-64215113D01*
X136540000Y-64255113D02*
X137789000Y-64255113D01*
X136540000Y-64295113D02*
X137809000Y-64295113D01*
X136540000Y-64335113D02*
X137829000Y-64335113D01*
X136540000Y-64375113D02*
X137847000Y-64375113D01*
X136540000Y-64415113D02*
X137865000Y-64415113D01*
X136540000Y-64455113D02*
X137882000Y-64455113D01*
X136540000Y-64495113D02*
X137898000Y-64495113D01*
X136540000Y-64535113D02*
X137913000Y-64535113D01*
X136540000Y-64575113D02*
X137928000Y-64575113D01*
X136540000Y-64615113D02*
X137942000Y-64615113D01*
X136540000Y-64655113D02*
X137955000Y-64655113D01*
X136540000Y-64695113D02*
X137967000Y-64695113D01*
X136540000Y-64735113D02*
X137979000Y-64735113D01*
X136540000Y-64775113D02*
X137990000Y-64775113D01*
X136540000Y-64815113D02*
X138001000Y-64815113D01*
X136540000Y-64855113D02*
X138010000Y-64855113D01*
X136540000Y-64895113D02*
X138019000Y-64895113D01*
X136540000Y-64935113D02*
X138028000Y-64935113D01*
X136540000Y-64975113D02*
X138036000Y-64975113D01*
X136540000Y-65015113D02*
X138043000Y-65015113D01*
X136540000Y-65055113D02*
X138049000Y-65055113D01*
X136540000Y-65095113D02*
X138055000Y-65095113D01*
X136540000Y-65135113D02*
X138060000Y-65135113D01*
X136540000Y-65175113D02*
X138065000Y-65175113D01*
X136540000Y-65215113D02*
X138069000Y-65215113D01*
X136540000Y-65255113D02*
X138072000Y-65255113D01*
X136540000Y-65295113D02*
X138075000Y-65295113D01*
X136540000Y-65335113D02*
X138077000Y-65335113D01*
X136540000Y-65375113D02*
X138079000Y-65375113D01*
X136540000Y-65415113D02*
X138080000Y-65415113D01*
X136540000Y-65455113D02*
X138080000Y-65455113D01*
X138120000Y-65455113D02*
G75*
G02*
X132880000Y-65455113I-2620000J0D01*
G01*
X132880000Y-65455113D02*
G75*
G02*
X138120000Y-65455113I2620000J0D01*
G01*
%TO.C,J8*%
X227620000Y-102505000D02*
X227620000Y-99855000D01*
X230380000Y-99855000D02*
X227620000Y-99855000D01*
X230380000Y-102505000D02*
X227620000Y-102505000D01*
X230380000Y-102505000D02*
X230380000Y-99855000D01*
X230380000Y-103775000D02*
X230380000Y-105155000D01*
X230380000Y-105155000D02*
X229000000Y-105155000D01*
%TO.C,R4*%
X178328306Y-109986365D02*
X179098306Y-109986365D01*
X186408306Y-109986365D02*
X185638306Y-109986365D01*
X179098306Y-108616365D02*
X185638306Y-108616365D01*
X185638306Y-111356365D01*
X179098306Y-111356365D01*
X179098306Y-108616365D01*
%TO.C,J10*%
X149000000Y-114380000D02*
X149000000Y-113000000D01*
X150380000Y-114380000D02*
X149000000Y-114380000D01*
X151650000Y-111620000D02*
X159380000Y-111620000D01*
X151650000Y-114380000D02*
X151650000Y-111620000D01*
X151650000Y-114380000D02*
X159380000Y-114380000D01*
X159380000Y-114380000D02*
X159380000Y-111620000D01*
%TO.C,C16*%
D12*
X169281306Y-103771865D02*
X174615306Y-103771865D01*
X169281306Y-107200865D02*
X169281306Y-103771865D01*
X169281306Y-107200865D02*
X174615306Y-107200865D01*
X174615306Y-107200865D02*
X174615306Y-103771865D01*
%TO.C,Q4*%
D11*
X214350000Y-111300000D02*
X214350000Y-107700000D01*
X209900000Y-109500000D02*
G75*
G02*
X214338478Y-107661522I2600000J0D01*
G01*
X214338478Y-111338478D02*
G75*
G02*
X209899999Y-109500000I-1838478J1838478D01*
G01*
%TO.C,J12*%
X196620000Y-101080000D02*
X198000000Y-101080000D01*
X196620000Y-102460000D02*
X196620000Y-101080000D01*
X196620000Y-103730000D02*
X196620000Y-111460000D01*
X196620000Y-103730000D02*
X199380000Y-103730000D01*
X196620000Y-111460000D02*
X199380000Y-111460000D01*
X199380000Y-103730000D02*
X199380000Y-111460000D01*
%TO.C,R3*%
X178408306Y-105486365D02*
X179178306Y-105486365D01*
X186488306Y-105486365D02*
X185718306Y-105486365D01*
X179178306Y-104116365D02*
X185718306Y-104116365D01*
X185718306Y-106856365D01*
X179178306Y-106856365D01*
X179178306Y-104116365D01*
%TO.C,C6*%
D12*
X232874400Y-97874900D02*
X232874400Y-93125100D01*
X236125600Y-93125100D02*
X232874400Y-93125100D01*
X236125600Y-97874900D02*
X232874400Y-97874900D01*
X236125600Y-97874900D02*
X236125600Y-93125100D01*
%TO.C,J6*%
D11*
X222120000Y-111005000D02*
X222120000Y-108355000D01*
X224880000Y-108355000D02*
X222120000Y-108355000D01*
X224880000Y-111005000D02*
X222120000Y-111005000D01*
X224880000Y-111005000D02*
X224880000Y-108355000D01*
X224880000Y-112275000D02*
X224880000Y-113655000D01*
X224880000Y-113655000D02*
X223500000Y-113655000D01*
%TO.C,C4*%
D12*
X189573406Y-103860765D02*
X189573406Y-107111965D01*
X194323206Y-103860765D02*
X189573406Y-103860765D01*
X194323206Y-103860765D02*
X194323206Y-107111965D01*
X194323206Y-107111965D02*
X189573406Y-107111965D01*
%TO.C,J5*%
D11*
X227620000Y-111017878D02*
X227620000Y-108367878D01*
X230380000Y-108367878D02*
X227620000Y-108367878D01*
X230380000Y-111017878D02*
X227620000Y-111017878D01*
X230380000Y-111017878D02*
X230380000Y-108367878D01*
X230380000Y-112287878D02*
X230380000Y-113667878D01*
X230380000Y-113667878D02*
X229000000Y-113667878D01*
%TO.C,MOSFET1*%
D12*
X223363001Y-48651400D02*
X223363001Y-59268600D01*
X223363001Y-59268600D02*
X228519201Y-59268600D01*
X226106201Y-50330761D02*
X226106201Y-48778400D01*
X226106201Y-52870761D02*
X226106201Y-52509239D01*
X226106201Y-55341760D02*
X226106201Y-55049239D01*
X226106201Y-59141600D02*
X226106201Y-57658240D01*
X228519201Y-48651400D02*
X223363001Y-48651400D01*
X228519201Y-59268600D02*
X228519201Y-48651400D01*
X226703200Y-61046600D02*
G75*
G02*
X226296800Y-61046600I-203200J0D01*
G01*
X226296800Y-61046600D02*
G75*
G02*
X226703200Y-61046600I203200J0D01*
G01*
%TO.C,J7*%
D11*
X233120000Y-102505000D02*
X233120000Y-99855000D01*
X235880000Y-99855000D02*
X233120000Y-99855000D01*
X235880000Y-102505000D02*
X233120000Y-102505000D01*
X235880000Y-102505000D02*
X235880000Y-99855000D01*
X235880000Y-103775000D02*
X235880000Y-105155000D01*
X235880000Y-105155000D02*
X234500000Y-105155000D01*
%TO.C,J9*%
X222120000Y-102505000D02*
X222120000Y-99855000D01*
X224880000Y-99855000D02*
X222120000Y-99855000D01*
X224880000Y-102505000D02*
X222120000Y-102505000D01*
X224880000Y-102505000D02*
X224880000Y-99855000D01*
X224880000Y-103775000D02*
X224880000Y-105155000D01*
X224880000Y-105155000D02*
X223500000Y-105155000D01*
%TO.C,J3*%
X134120000Y-56120000D02*
X135500000Y-56120000D01*
X134120000Y-57500000D02*
X134120000Y-56120000D01*
X134120000Y-58770000D02*
X134120000Y-61420000D01*
X134120000Y-58770000D02*
X136880000Y-58770000D01*
X134120000Y-61420000D02*
X136880000Y-61420000D01*
X136880000Y-58770000D02*
X136880000Y-61420000D01*
%TO.C,C5*%
D12*
X189573406Y-108360765D02*
X189573406Y-111611965D01*
X194323206Y-108360765D02*
X189573406Y-108360765D01*
X194323206Y-108360765D02*
X194323206Y-111611965D01*
X194323206Y-111611965D02*
X189573406Y-111611965D01*
%TO.C,R13*%
D11*
X203500000Y-101960000D02*
X203500000Y-102730000D01*
X203500000Y-110040000D02*
X203500000Y-109270000D01*
X202130000Y-102730000D02*
X204870000Y-102730000D01*
X204870000Y-109270000D01*
X202130000Y-109270000D01*
X202130000Y-102730000D01*
%TO.C,R14*%
X150960000Y-105500000D02*
X151730000Y-105500000D01*
X159040000Y-105500000D02*
X158270000Y-105500000D01*
X151730000Y-104130000D02*
X158270000Y-104130000D01*
X158270000Y-106870000D01*
X151730000Y-106870000D01*
X151730000Y-104130000D01*
%TO.C,MOD1*%
X151500000Y-57500000D02*
X151500000Y-96500000D01*
X151500000Y-67000000D02*
X149000000Y-67000000D01*
X151500000Y-96500000D02*
X220500000Y-96500000D01*
X220500000Y-57500000D02*
X151500000Y-57500000D01*
X220500000Y-96500000D02*
X220500000Y-57500000D01*
%TO.C,R8*%
X139460000Y-89000000D02*
X140230000Y-89000000D01*
X147540000Y-89000000D02*
X146770000Y-89000000D01*
X140230000Y-87630000D02*
X146770000Y-87630000D01*
X146770000Y-90370000D01*
X140230000Y-90370000D01*
X140230000Y-87630000D01*
%TO.C,J17*%
D12*
X130700300Y-92136800D02*
X130700300Y-102500000D01*
X130700300Y-102500000D02*
X135502282Y-102500000D01*
X135502282Y-92136800D02*
X130700300Y-92136800D01*
X140199239Y-102500000D02*
X143552700Y-102500000D01*
X143552700Y-92136800D02*
X140199239Y-92136800D01*
X143552700Y-95104660D02*
X143552700Y-92136800D01*
X143552700Y-102500000D02*
X143552700Y-99532140D01*
D13*
X145156700Y-91501800D02*
G75*
G02*
X144394700Y-91501800I-381000J0D01*
G01*
X144394700Y-91501800D02*
G75*
G02*
X145156700Y-91501800I381000J0D01*
G01*
%TO.C,J4*%
D11*
X233120000Y-111017878D02*
X233120000Y-108367878D01*
X235880000Y-108367878D02*
X233120000Y-108367878D01*
X235880000Y-111017878D02*
X233120000Y-111017878D01*
X235880000Y-111017878D02*
X235880000Y-108367878D01*
X235880000Y-112287878D02*
X235880000Y-113667878D01*
X235880000Y-113667878D02*
X234500000Y-113667878D01*
%TO.C,R7*%
X224500000Y-81460000D02*
X224500000Y-82230000D01*
X224500000Y-89540000D02*
X224500000Y-88770000D01*
X223130000Y-82230000D02*
X225870000Y-82230000D01*
X225870000Y-88770000D01*
X223130000Y-88770000D01*
X223130000Y-82230000D01*
%TO.C,R5*%
X234500000Y-81460000D02*
X234500000Y-82230000D01*
X234500000Y-89540000D02*
X234500000Y-88770000D01*
X233130000Y-82230000D02*
X235870000Y-82230000D01*
X235870000Y-88770000D01*
X233130000Y-88770000D01*
X233130000Y-82230000D01*
%TO.C,Q3*%
X227940000Y-66350000D02*
X224090000Y-66350000D01*
X223697617Y-66937736D02*
G75*
G02*
X224090000Y-66350000I2302383J-1112264D01*
G01*
X226000000Y-70650000D02*
G75*
G02*
X223643600Y-69148807I0J2600000D01*
G01*
X227940000Y-66350000D02*
G75*
G02*
X228322631Y-66927955I-1940000J-1700000D01*
G01*
X228356400Y-69148807D02*
G75*
G02*
X226000000Y-70650000I-2356400J1098807D01*
G01*
%TO.C,J14*%
X132000000Y-86380000D02*
X132000000Y-85000000D01*
X133380000Y-86380000D02*
X132000000Y-86380000D01*
X134650000Y-83620000D02*
X142380000Y-83620000D01*
X134650000Y-86380000D02*
X134650000Y-83620000D01*
X134650000Y-86380000D02*
X142380000Y-86380000D01*
X142380000Y-86380000D02*
X142380000Y-83620000D01*
%TO.C,C14*%
X231960000Y-74500000D02*
X230420000Y-74500000D01*
X231960000Y-74540000D02*
X230420000Y-74540000D01*
X231960000Y-74580000D02*
X230421000Y-74580000D01*
X231960000Y-74620000D02*
X230423000Y-74620000D01*
X231960000Y-74660000D02*
X230425000Y-74660000D01*
X231960000Y-74700000D02*
X230428000Y-74700000D01*
X231960000Y-74740000D02*
X230431000Y-74740000D01*
X231960000Y-74780000D02*
X230435000Y-74780000D01*
X231960000Y-74820000D02*
X230440000Y-74820000D01*
X231960000Y-74860000D02*
X230445000Y-74860000D01*
X231960000Y-74900000D02*
X230451000Y-74900000D01*
X231960000Y-74940000D02*
X230457000Y-74940000D01*
X231960000Y-74980000D02*
X230464000Y-74980000D01*
X231960000Y-75020000D02*
X230472000Y-75020000D01*
X231960000Y-75060000D02*
X230481000Y-75060000D01*
X231960000Y-75100000D02*
X230490000Y-75100000D01*
X231960000Y-75140000D02*
X230499000Y-75140000D01*
X231960000Y-75180000D02*
X230510000Y-75180000D01*
X231960000Y-75220000D02*
X230521000Y-75220000D01*
X231960000Y-75260000D02*
X230533000Y-75260000D01*
X231960000Y-75300000D02*
X230545000Y-75300000D01*
X231960000Y-75340000D02*
X230558000Y-75340000D01*
X231960000Y-75380000D02*
X230572000Y-75380000D01*
X231960000Y-75420000D02*
X230587000Y-75420000D01*
X231960000Y-75460000D02*
X230602000Y-75460000D01*
X231960000Y-75500000D02*
X230618000Y-75500000D01*
X231960000Y-75540000D02*
X230635000Y-75540000D01*
X231960000Y-75580000D02*
X230653000Y-75580000D01*
X231960000Y-75620000D02*
X230671000Y-75620000D01*
X231960000Y-75660000D02*
X230691000Y-75660000D01*
X231960000Y-75700000D02*
X230711000Y-75700000D01*
X231960000Y-75740000D02*
X230732000Y-75740000D01*
X231960000Y-75780000D02*
X230754000Y-75780000D01*
X231960000Y-75820000D02*
X230777000Y-75820000D01*
X231960000Y-75860000D02*
X230801000Y-75860000D01*
X231960000Y-75900000D02*
X230825000Y-75900000D01*
X231960000Y-75940000D02*
X230851000Y-75940000D01*
X231960000Y-75980000D02*
X230878000Y-75980000D01*
X231960000Y-76020000D02*
X230906000Y-76020000D01*
X231960000Y-76060000D02*
X230935000Y-76060000D01*
X231960000Y-76100000D02*
X230965000Y-76100000D01*
X231960000Y-76140000D02*
X230997000Y-76140000D01*
X231960000Y-76180000D02*
X231030000Y-76180000D01*
X231960000Y-76220000D02*
X231064000Y-76220000D01*
X231960000Y-76260000D02*
X231099000Y-76260000D01*
X231960000Y-76300000D02*
X231136000Y-76300000D01*
X231960000Y-76340000D02*
X231175000Y-76340000D01*
X231960000Y-76380000D02*
X231215000Y-76380000D01*
X231960000Y-76420000D02*
X231257000Y-76420000D01*
X231960000Y-76460000D02*
X231301000Y-76460000D01*
X231960000Y-76500000D02*
X231348000Y-76500000D01*
X233283000Y-77100000D02*
X232717000Y-77100000D01*
X233517000Y-77060000D02*
X232483000Y-77060000D01*
X233677000Y-77020000D02*
X232323000Y-77020000D01*
X233805000Y-76980000D02*
X232195000Y-76980000D01*
X233914000Y-76940000D02*
X232086000Y-76940000D01*
X234011000Y-76900000D02*
X231989000Y-76900000D01*
X234098000Y-76860000D02*
X231902000Y-76860000D01*
X234177000Y-76820000D02*
X231823000Y-76820000D01*
X234251000Y-76780000D02*
X231749000Y-76780000D01*
X234319000Y-76740000D02*
X231681000Y-76740000D01*
X234383000Y-76700000D02*
X231617000Y-76700000D01*
X234443000Y-76660000D02*
X231557000Y-76660000D01*
X234475000Y-71695225D02*
X234475000Y-72195225D01*
X234499000Y-76620000D02*
X231501000Y-76620000D01*
X234553000Y-76580000D02*
X231447000Y-76580000D01*
X234604000Y-76540000D02*
X231396000Y-76540000D01*
X234652000Y-76500000D02*
X234040000Y-76500000D01*
X234699000Y-76460000D02*
X234040000Y-76460000D01*
X234725000Y-71945225D02*
X234225000Y-71945225D01*
X234743000Y-76420000D02*
X234040000Y-76420000D01*
X234785000Y-76380000D02*
X234040000Y-76380000D01*
X234825000Y-76340000D02*
X234040000Y-76340000D01*
X234864000Y-76300000D02*
X234040000Y-76300000D01*
X234901000Y-76260000D02*
X234040000Y-76260000D01*
X234936000Y-76220000D02*
X234040000Y-76220000D01*
X234970000Y-76180000D02*
X234040000Y-76180000D01*
X235003000Y-76140000D02*
X234040000Y-76140000D01*
X235035000Y-76100000D02*
X234040000Y-76100000D01*
X235065000Y-76060000D02*
X234040000Y-76060000D01*
X235094000Y-76020000D02*
X234040000Y-76020000D01*
X235122000Y-75980000D02*
X234040000Y-75980000D01*
X235149000Y-75940000D02*
X234040000Y-75940000D01*
X235175000Y-75900000D02*
X234040000Y-75900000D01*
X235199000Y-75860000D02*
X234040000Y-75860000D01*
X235223000Y-75820000D02*
X234040000Y-75820000D01*
X235246000Y-75780000D02*
X234040000Y-75780000D01*
X235268000Y-75740000D02*
X234040000Y-75740000D01*
X235289000Y-75700000D02*
X234040000Y-75700000D01*
X235309000Y-75660000D02*
X234040000Y-75660000D01*
X235329000Y-75620000D02*
X234040000Y-75620000D01*
X235347000Y-75580000D02*
X234040000Y-75580000D01*
X235365000Y-75540000D02*
X234040000Y-75540000D01*
X235382000Y-75500000D02*
X234040000Y-75500000D01*
X235398000Y-75460000D02*
X234040000Y-75460000D01*
X235413000Y-75420000D02*
X234040000Y-75420000D01*
X235428000Y-75380000D02*
X234040000Y-75380000D01*
X235442000Y-75340000D02*
X234040000Y-75340000D01*
X235455000Y-75300000D02*
X234040000Y-75300000D01*
X235467000Y-75260000D02*
X234040000Y-75260000D01*
X235479000Y-75220000D02*
X234040000Y-75220000D01*
X235490000Y-75180000D02*
X234040000Y-75180000D01*
X235501000Y-75140000D02*
X234040000Y-75140000D01*
X235510000Y-75100000D02*
X234040000Y-75100000D01*
X235519000Y-75060000D02*
X234040000Y-75060000D01*
X235528000Y-75020000D02*
X234040000Y-75020000D01*
X235536000Y-74980000D02*
X234040000Y-74980000D01*
X235543000Y-74940000D02*
X234040000Y-74940000D01*
X235549000Y-74900000D02*
X234040000Y-74900000D01*
X235555000Y-74860000D02*
X234040000Y-74860000D01*
X235560000Y-74820000D02*
X234040000Y-74820000D01*
X235565000Y-74780000D02*
X234040000Y-74780000D01*
X235569000Y-74740000D02*
X234040000Y-74740000D01*
X235572000Y-74700000D02*
X234040000Y-74700000D01*
X235575000Y-74660000D02*
X234040000Y-74660000D01*
X235577000Y-74620000D02*
X234040000Y-74620000D01*
X235579000Y-74580000D02*
X234040000Y-74580000D01*
X235580000Y-74500000D02*
X234040000Y-74500000D01*
X235580000Y-74540000D02*
X234040000Y-74540000D01*
X235620000Y-74500000D02*
G75*
G02*
X230380000Y-74500000I-2620000J0D01*
G01*
X230380000Y-74500000D02*
G75*
G02*
X235620000Y-74500000I2620000J0D01*
G01*
%TO.C,C7*%
D12*
X227874400Y-97874900D02*
X227874400Y-93125100D01*
X231125600Y-93125100D02*
X227874400Y-93125100D01*
X231125600Y-97874900D02*
X227874400Y-97874900D01*
X231125600Y-97874900D02*
X231125600Y-93125100D01*
%TO.C,C9*%
X230333000Y-66285500D02*
X230333000Y-69714500D01*
X235667000Y-66285500D02*
X230333000Y-66285500D01*
X235667000Y-66285500D02*
X235667000Y-69714500D01*
X235667000Y-69714500D02*
X230333000Y-69714500D01*
%TO.C,C3*%
X189573406Y-99360765D02*
X189573406Y-102611965D01*
X194323206Y-99360765D02*
X189573406Y-99360765D01*
X194323206Y-99360765D02*
X194323206Y-102611965D01*
X194323206Y-102611965D02*
X189573406Y-102611965D01*
%TO.C,J11*%
D11*
X149000000Y-110380000D02*
X149000000Y-109000000D01*
X150380000Y-110380000D02*
X149000000Y-110380000D01*
X151650000Y-107620000D02*
X159380000Y-107620000D01*
X151650000Y-110380000D02*
X151650000Y-107620000D01*
X151650000Y-110380000D02*
X159380000Y-110380000D01*
X159380000Y-110380000D02*
X159380000Y-107620000D01*
%TO.C,Q2*%
X227950000Y-60350000D02*
X224100000Y-60350000D01*
X223707617Y-60937736D02*
G75*
G02*
X224100000Y-60350000I2302383J-1112264D01*
G01*
X226010000Y-64650000D02*
G75*
G02*
X223653600Y-63148807I0J2600000D01*
G01*
X227950000Y-60350000D02*
G75*
G02*
X228332631Y-60927955I-1940000J-1700000D01*
G01*
X228366400Y-63148807D02*
G75*
G02*
X226010000Y-64650000I-2356400J1098807D01*
G01*
%TO.C,C11*%
X224460000Y-74500000D02*
X222920000Y-74500000D01*
X224460000Y-74540000D02*
X222920000Y-74540000D01*
X224460000Y-74580000D02*
X222921000Y-74580000D01*
X224460000Y-74620000D02*
X222923000Y-74620000D01*
X224460000Y-74660000D02*
X222925000Y-74660000D01*
X224460000Y-74700000D02*
X222928000Y-74700000D01*
X224460000Y-74740000D02*
X222931000Y-74740000D01*
X224460000Y-74780000D02*
X222935000Y-74780000D01*
X224460000Y-74820000D02*
X222940000Y-74820000D01*
X224460000Y-74860000D02*
X222945000Y-74860000D01*
X224460000Y-74900000D02*
X222951000Y-74900000D01*
X224460000Y-74940000D02*
X222957000Y-74940000D01*
X224460000Y-74980000D02*
X222964000Y-74980000D01*
X224460000Y-75020000D02*
X222972000Y-75020000D01*
X224460000Y-75060000D02*
X222981000Y-75060000D01*
X224460000Y-75100000D02*
X222990000Y-75100000D01*
X224460000Y-75140000D02*
X222999000Y-75140000D01*
X224460000Y-75180000D02*
X223010000Y-75180000D01*
X224460000Y-75220000D02*
X223021000Y-75220000D01*
X224460000Y-75260000D02*
X223033000Y-75260000D01*
X224460000Y-75300000D02*
X223045000Y-75300000D01*
X224460000Y-75340000D02*
X223058000Y-75340000D01*
X224460000Y-75380000D02*
X223072000Y-75380000D01*
X224460000Y-75420000D02*
X223087000Y-75420000D01*
X224460000Y-75460000D02*
X223102000Y-75460000D01*
X224460000Y-75500000D02*
X223118000Y-75500000D01*
X224460000Y-75540000D02*
X223135000Y-75540000D01*
X224460000Y-75580000D02*
X223153000Y-75580000D01*
X224460000Y-75620000D02*
X223171000Y-75620000D01*
X224460000Y-75660000D02*
X223191000Y-75660000D01*
X224460000Y-75700000D02*
X223211000Y-75700000D01*
X224460000Y-75740000D02*
X223232000Y-75740000D01*
X224460000Y-75780000D02*
X223254000Y-75780000D01*
X224460000Y-75820000D02*
X223277000Y-75820000D01*
X224460000Y-75860000D02*
X223301000Y-75860000D01*
X224460000Y-75900000D02*
X223325000Y-75900000D01*
X224460000Y-75940000D02*
X223351000Y-75940000D01*
X224460000Y-75980000D02*
X223378000Y-75980000D01*
X224460000Y-76020000D02*
X223406000Y-76020000D01*
X224460000Y-76060000D02*
X223435000Y-76060000D01*
X224460000Y-76100000D02*
X223465000Y-76100000D01*
X224460000Y-76140000D02*
X223497000Y-76140000D01*
X224460000Y-76180000D02*
X223530000Y-76180000D01*
X224460000Y-76220000D02*
X223564000Y-76220000D01*
X224460000Y-76260000D02*
X223599000Y-76260000D01*
X224460000Y-76300000D02*
X223636000Y-76300000D01*
X224460000Y-76340000D02*
X223675000Y-76340000D01*
X224460000Y-76380000D02*
X223715000Y-76380000D01*
X224460000Y-76420000D02*
X223757000Y-76420000D01*
X224460000Y-76460000D02*
X223801000Y-76460000D01*
X224460000Y-76500000D02*
X223848000Y-76500000D01*
X225783000Y-77100000D02*
X225217000Y-77100000D01*
X226017000Y-77060000D02*
X224983000Y-77060000D01*
X226177000Y-77020000D02*
X224823000Y-77020000D01*
X226305000Y-76980000D02*
X224695000Y-76980000D01*
X226414000Y-76940000D02*
X224586000Y-76940000D01*
X226511000Y-76900000D02*
X224489000Y-76900000D01*
X226598000Y-76860000D02*
X224402000Y-76860000D01*
X226677000Y-76820000D02*
X224323000Y-76820000D01*
X226751000Y-76780000D02*
X224249000Y-76780000D01*
X226819000Y-76740000D02*
X224181000Y-76740000D01*
X226883000Y-76700000D02*
X224117000Y-76700000D01*
X226943000Y-76660000D02*
X224057000Y-76660000D01*
X226975000Y-71695225D02*
X226975000Y-72195225D01*
X226999000Y-76620000D02*
X224001000Y-76620000D01*
X227053000Y-76580000D02*
X223947000Y-76580000D01*
X227104000Y-76540000D02*
X223896000Y-76540000D01*
X227152000Y-76500000D02*
X226540000Y-76500000D01*
X227199000Y-76460000D02*
X226540000Y-76460000D01*
X227225000Y-71945225D02*
X226725000Y-71945225D01*
X227243000Y-76420000D02*
X226540000Y-76420000D01*
X227285000Y-76380000D02*
X226540000Y-76380000D01*
X227325000Y-76340000D02*
X226540000Y-76340000D01*
X227364000Y-76300000D02*
X226540000Y-76300000D01*
X227401000Y-76260000D02*
X226540000Y-76260000D01*
X227436000Y-76220000D02*
X226540000Y-76220000D01*
X227470000Y-76180000D02*
X226540000Y-76180000D01*
X227503000Y-76140000D02*
X226540000Y-76140000D01*
X227535000Y-76100000D02*
X226540000Y-76100000D01*
X227565000Y-76060000D02*
X226540000Y-76060000D01*
X227594000Y-76020000D02*
X226540000Y-76020000D01*
X227622000Y-75980000D02*
X226540000Y-75980000D01*
X227649000Y-75940000D02*
X226540000Y-75940000D01*
X227675000Y-75900000D02*
X226540000Y-75900000D01*
X227699000Y-75860000D02*
X226540000Y-75860000D01*
X227723000Y-75820000D02*
X226540000Y-75820000D01*
X227746000Y-75780000D02*
X226540000Y-75780000D01*
X227768000Y-75740000D02*
X226540000Y-75740000D01*
X227789000Y-75700000D02*
X226540000Y-75700000D01*
X227809000Y-75660000D02*
X226540000Y-75660000D01*
X227829000Y-75620000D02*
X226540000Y-75620000D01*
X227847000Y-75580000D02*
X226540000Y-75580000D01*
X227865000Y-75540000D02*
X226540000Y-75540000D01*
X227882000Y-75500000D02*
X226540000Y-75500000D01*
X227898000Y-75460000D02*
X226540000Y-75460000D01*
X227913000Y-75420000D02*
X226540000Y-75420000D01*
X227928000Y-75380000D02*
X226540000Y-75380000D01*
X227942000Y-75340000D02*
X226540000Y-75340000D01*
X227955000Y-75300000D02*
X226540000Y-75300000D01*
X227967000Y-75260000D02*
X226540000Y-75260000D01*
X227979000Y-75220000D02*
X226540000Y-75220000D01*
X227990000Y-75180000D02*
X226540000Y-75180000D01*
X228001000Y-75140000D02*
X226540000Y-75140000D01*
X228010000Y-75100000D02*
X226540000Y-75100000D01*
X228019000Y-75060000D02*
X226540000Y-75060000D01*
X228028000Y-75020000D02*
X226540000Y-75020000D01*
X228036000Y-74980000D02*
X226540000Y-74980000D01*
X228043000Y-74940000D02*
X226540000Y-74940000D01*
X228049000Y-74900000D02*
X226540000Y-74900000D01*
X228055000Y-74860000D02*
X226540000Y-74860000D01*
X228060000Y-74820000D02*
X226540000Y-74820000D01*
X228065000Y-74780000D02*
X226540000Y-74780000D01*
X228069000Y-74740000D02*
X226540000Y-74740000D01*
X228072000Y-74700000D02*
X226540000Y-74700000D01*
X228075000Y-74660000D02*
X226540000Y-74660000D01*
X228077000Y-74620000D02*
X226540000Y-74620000D01*
X228079000Y-74580000D02*
X226540000Y-74580000D01*
X228080000Y-74500000D02*
X226540000Y-74500000D01*
X228080000Y-74540000D02*
X226540000Y-74540000D01*
X228120000Y-74500000D02*
G75*
G02*
X222880000Y-74500000I-2620000J0D01*
G01*
X222880000Y-74500000D02*
G75*
G02*
X228120000Y-74500000I2620000J0D01*
G01*
%TO.C,J16*%
D12*
X130793900Y-104118384D02*
X130793900Y-114481584D01*
X130793900Y-114481584D02*
X135595882Y-114481584D01*
X135595882Y-104118384D02*
X130793900Y-104118384D01*
X140292839Y-114481584D02*
X143646300Y-114481584D01*
X143646300Y-104118384D02*
X140292839Y-104118384D01*
X143646300Y-107086244D02*
X143646300Y-104118384D01*
X143646300Y-114481584D02*
X143646300Y-111513724D01*
D13*
X145250300Y-103483384D02*
G75*
G02*
X144488300Y-103483384I-381000J0D01*
G01*
X144488300Y-103483384D02*
G75*
G02*
X145250300Y-103483384I381000J0D01*
G01*
%TO.C,R6*%
D11*
X229500000Y-81460000D02*
X229500000Y-82230000D01*
X229500000Y-89540000D02*
X229500000Y-88770000D01*
X228130000Y-82230000D02*
X230870000Y-82230000D01*
X230870000Y-88770000D01*
X228130000Y-88770000D01*
X228130000Y-82230000D01*
%TO.C,SW1*%
X133162500Y-80300000D02*
X133162500Y-78917000D01*
X133162500Y-80300000D02*
X134545500Y-80300000D01*
X133402500Y-69140000D02*
X137622500Y-69140000D01*
X133402500Y-80060000D02*
X133402500Y-69140000D01*
X133402500Y-80060000D02*
X137622500Y-80060000D01*
X134702500Y-80060000D02*
X136322500Y-80060000D01*
X134702500Y-81920000D02*
X134702500Y-80060000D01*
X136322500Y-80060000D02*
X136322500Y-81920000D01*
X136322500Y-81920000D02*
X134702500Y-81920000D01*
X137622500Y-80060000D02*
X137622500Y-69140000D01*
%TO.C,J1*%
X217120000Y-111730000D02*
X217120000Y-98920000D01*
X219880000Y-98920000D02*
X217120000Y-98920000D01*
X219880000Y-111730000D02*
X217120000Y-111730000D01*
X219880000Y-111730000D02*
X219880000Y-98920000D01*
X219880000Y-113000000D02*
X219880000Y-114380000D01*
X219880000Y-114380000D02*
X218500000Y-114380000D01*
%TO.C,C1*%
D12*
X138722900Y-51000000D02*
X139992900Y-51000000D01*
X139357900Y-50365000D02*
X139357900Y-51635000D01*
X148374900Y-51000000D02*
G75*
G02*
X140119900Y-51000000I-4127500J0D01*
G01*
X140119900Y-51000000D02*
G75*
G02*
X148374900Y-51000000I4127500J0D01*
G01*
%TO.C,R10*%
D11*
X231500000Y-53960000D02*
X231500000Y-54730000D01*
X231500000Y-62040000D02*
X231500000Y-61270000D01*
X230130000Y-54730000D02*
X232870000Y-54730000D01*
X232870000Y-61270000D01*
X230130000Y-61270000D01*
X230130000Y-54730000D01*
%TO.C,C10*%
D12*
X169573406Y-99360765D02*
X174323206Y-99360765D01*
X169573406Y-102611965D02*
X169573406Y-99360765D01*
X169573406Y-102611965D02*
X174323206Y-102611965D01*
X174323206Y-102611965D02*
X174323206Y-99360765D01*
%TO.C,R1*%
D11*
X206500000Y-101960000D02*
X206500000Y-102730000D01*
X206500000Y-110040000D02*
X206500000Y-109270000D01*
X205130000Y-102730000D02*
X207870000Y-102730000D01*
X207870000Y-109270000D01*
X205130000Y-109270000D01*
X205130000Y-102730000D01*
%TO.C,R2*%
X178408306Y-100986365D02*
X179178306Y-100986365D01*
X186488306Y-100986365D02*
X185718306Y-100986365D01*
X179178306Y-99616365D02*
X185718306Y-99616365D01*
X185718306Y-102356365D01*
X179178306Y-102356365D01*
X179178306Y-99616365D01*
%TO.C,F1*%
X139090000Y-57640000D02*
X139090000Y-80360000D01*
X139090000Y-57640000D02*
X142250000Y-57640000D01*
X139090000Y-80360000D02*
X142250000Y-80360000D01*
X145750000Y-57640000D02*
X148910000Y-57640000D01*
X145750000Y-80360000D02*
X148910000Y-80360000D01*
X148910000Y-57640000D02*
X148910000Y-80360000D01*
%TO.C,C15*%
X169303419Y-110769365D02*
X169303419Y-110203365D01*
X169343419Y-111003365D02*
X169343419Y-109969365D01*
X169383419Y-111163365D02*
X169383419Y-109809365D01*
X169423419Y-111291365D02*
X169423419Y-109681365D01*
X169463419Y-111400365D02*
X169463419Y-109572365D01*
X169503419Y-111497365D02*
X169503419Y-109475365D01*
X169543419Y-111584365D02*
X169543419Y-109388365D01*
X169583419Y-111663365D02*
X169583419Y-109309365D01*
X169623419Y-111737365D02*
X169623419Y-109235365D01*
X169663419Y-111805365D02*
X169663419Y-109167365D01*
X169703419Y-111869365D02*
X169703419Y-109103365D01*
X169743419Y-111929365D02*
X169743419Y-109043365D01*
X169783419Y-111985365D02*
X169783419Y-108987365D01*
X169823419Y-112039365D02*
X169823419Y-108933365D01*
X169863419Y-112090365D02*
X169863419Y-108882365D01*
X169903419Y-109446365D02*
X169903419Y-108834365D01*
X169903419Y-112138365D02*
X169903419Y-111526365D01*
X169943419Y-109446365D02*
X169943419Y-108787365D01*
X169943419Y-112185365D02*
X169943419Y-111526365D01*
X169983419Y-109446365D02*
X169983419Y-108743365D01*
X169983419Y-112229365D02*
X169983419Y-111526365D01*
X170023419Y-109446365D02*
X170023419Y-108701365D01*
X170023419Y-112271365D02*
X170023419Y-111526365D01*
X170063419Y-109446365D02*
X170063419Y-108661365D01*
X170063419Y-112311365D02*
X170063419Y-111526365D01*
X170103419Y-109446365D02*
X170103419Y-108622365D01*
X170103419Y-112350365D02*
X170103419Y-111526365D01*
X170143419Y-109446365D02*
X170143419Y-108585365D01*
X170143419Y-112387365D02*
X170143419Y-111526365D01*
X170183419Y-109446365D02*
X170183419Y-108550365D01*
X170183419Y-112422365D02*
X170183419Y-111526365D01*
X170223419Y-109446365D02*
X170223419Y-108516365D01*
X170223419Y-112456365D02*
X170223419Y-111526365D01*
X170263419Y-109446365D02*
X170263419Y-108483365D01*
X170263419Y-112489365D02*
X170263419Y-111526365D01*
X170303419Y-109446365D02*
X170303419Y-108451365D01*
X170303419Y-112521365D02*
X170303419Y-111526365D01*
X170343419Y-109446365D02*
X170343419Y-108421365D01*
X170343419Y-112551365D02*
X170343419Y-111526365D01*
X170383419Y-109446365D02*
X170383419Y-108392365D01*
X170383419Y-112580365D02*
X170383419Y-111526365D01*
X170423419Y-109446365D02*
X170423419Y-108364365D01*
X170423419Y-112608365D02*
X170423419Y-111526365D01*
X170463419Y-109446365D02*
X170463419Y-108337365D01*
X170463419Y-112635365D02*
X170463419Y-111526365D01*
X170503419Y-109446365D02*
X170503419Y-108311365D01*
X170503419Y-112661365D02*
X170503419Y-111526365D01*
X170543419Y-109446365D02*
X170543419Y-108287365D01*
X170543419Y-112685365D02*
X170543419Y-111526365D01*
X170583419Y-109446365D02*
X170583419Y-108263365D01*
X170583419Y-112709365D02*
X170583419Y-111526365D01*
X170623419Y-109446365D02*
X170623419Y-108240365D01*
X170623419Y-112732365D02*
X170623419Y-111526365D01*
X170663419Y-109446365D02*
X170663419Y-108218365D01*
X170663419Y-112754365D02*
X170663419Y-111526365D01*
X170703419Y-109446365D02*
X170703419Y-108197365D01*
X170703419Y-112775365D02*
X170703419Y-111526365D01*
X170743419Y-109446365D02*
X170743419Y-108177365D01*
X170743419Y-112795365D02*
X170743419Y-111526365D01*
X170783419Y-109446365D02*
X170783419Y-108157365D01*
X170783419Y-112815365D02*
X170783419Y-111526365D01*
X170823419Y-109446365D02*
X170823419Y-108139365D01*
X170823419Y-112833365D02*
X170823419Y-111526365D01*
X170863419Y-109446365D02*
X170863419Y-108121365D01*
X170863419Y-112851365D02*
X170863419Y-111526365D01*
X170903419Y-109446365D02*
X170903419Y-108104365D01*
X170903419Y-112868365D02*
X170903419Y-111526365D01*
X170943419Y-109446365D02*
X170943419Y-108088365D01*
X170943419Y-112884365D02*
X170943419Y-111526365D01*
X170983419Y-109446365D02*
X170983419Y-108073365D01*
X170983419Y-112899365D02*
X170983419Y-111526365D01*
X171023419Y-109446365D02*
X171023419Y-108058365D01*
X171023419Y-112914365D02*
X171023419Y-111526365D01*
X171063419Y-109446365D02*
X171063419Y-108044365D01*
X171063419Y-112928365D02*
X171063419Y-111526365D01*
X171103419Y-109446365D02*
X171103419Y-108031365D01*
X171103419Y-112941365D02*
X171103419Y-111526365D01*
X171143419Y-109446365D02*
X171143419Y-108019365D01*
X171143419Y-112953365D02*
X171143419Y-111526365D01*
X171183419Y-109446365D02*
X171183419Y-108007365D01*
X171183419Y-112965365D02*
X171183419Y-111526365D01*
X171223419Y-109446365D02*
X171223419Y-107996365D01*
X171223419Y-112976365D02*
X171223419Y-111526365D01*
X171263419Y-109446365D02*
X171263419Y-107985365D01*
X171263419Y-112987365D02*
X171263419Y-111526365D01*
X171303419Y-109446365D02*
X171303419Y-107976365D01*
X171303419Y-112996365D02*
X171303419Y-111526365D01*
X171343419Y-109446365D02*
X171343419Y-107967365D01*
X171343419Y-113005365D02*
X171343419Y-111526365D01*
X171383419Y-109446365D02*
X171383419Y-107958365D01*
X171383419Y-113014365D02*
X171383419Y-111526365D01*
X171423419Y-109446365D02*
X171423419Y-107950365D01*
X171423419Y-113022365D02*
X171423419Y-111526365D01*
X171463419Y-109446365D02*
X171463419Y-107943365D01*
X171463419Y-113029365D02*
X171463419Y-111526365D01*
X171503419Y-109446365D02*
X171503419Y-107937365D01*
X171503419Y-113035365D02*
X171503419Y-111526365D01*
X171543419Y-109446365D02*
X171543419Y-107931365D01*
X171543419Y-113041365D02*
X171543419Y-111526365D01*
X171583419Y-109446365D02*
X171583419Y-107926365D01*
X171583419Y-113046365D02*
X171583419Y-111526365D01*
X171623419Y-109446365D02*
X171623419Y-107921365D01*
X171623419Y-113051365D02*
X171623419Y-111526365D01*
X171663419Y-109446365D02*
X171663419Y-107917365D01*
X171663419Y-113055365D02*
X171663419Y-111526365D01*
X171703419Y-109446365D02*
X171703419Y-107914365D01*
X171703419Y-113058365D02*
X171703419Y-111526365D01*
X171743419Y-109446365D02*
X171743419Y-107911365D01*
X171743419Y-113061365D02*
X171743419Y-111526365D01*
X171783419Y-109446365D02*
X171783419Y-107909365D01*
X171783419Y-113063365D02*
X171783419Y-111526365D01*
X171823419Y-109446365D02*
X171823419Y-107907365D01*
X171823419Y-113065365D02*
X171823419Y-111526365D01*
X171863419Y-109446365D02*
X171863419Y-107906365D01*
X171863419Y-113066365D02*
X171863419Y-111526365D01*
X171903419Y-109446365D02*
X171903419Y-107906365D01*
X171903419Y-113066365D02*
X171903419Y-111526365D01*
X174458194Y-112211365D02*
X174458194Y-111711365D01*
X174708194Y-111961365D02*
X174208194Y-111961365D01*
X174523419Y-110486365D02*
G75*
G02*
X169283419Y-110486365I-2620000J0D01*
G01*
X169283419Y-110486365D02*
G75*
G02*
X174523419Y-110486365I2620000J0D01*
G01*
%TO.C,Q5*%
X214350000Y-104300000D02*
X214350000Y-100700000D01*
X209900000Y-102500000D02*
G75*
G02*
X214338478Y-100661522I2600000J0D01*
G01*
X214338478Y-104338478D02*
G75*
G02*
X209899999Y-102500000I-1838478J1838478D01*
G01*
%TO.C,C8*%
D12*
X222874400Y-97874900D02*
X222874400Y-93125100D01*
X226125600Y-93125100D02*
X222874400Y-93125100D01*
X226125600Y-97874900D02*
X222874400Y-97874900D01*
X226125600Y-97874900D02*
X226125600Y-93125100D01*
%TD*%
M02*
