%TF.GenerationSoftware,KiCad,Pcbnew,10.0.3*%
%TF.CreationDate,2026-07-06T17:14:54-04:00*%
%TF.ProjectId,SAS_PCBv2,5341535f-5043-4427-9632-2e6b69636164,rev?*%
%TF.SameCoordinates,Original*%
%TF.FileFunction,Copper,L2,Bot*%
%TF.FilePolarity,Positive*%
%FSLAX46Y46*%
G04 Gerber Fmt 4.6, Leading zero omitted, Abs format (unit mm)*
G04 Created by KiCad (PCBNEW 10.0.3) date 2026-07-06 17:14:54*
%MOMM*%
%LPD*%
G01*
G04 APERTURE LIST*
G04 Aperture macros list*
%AMRoundRect*
0 Rectangle with rounded corners*
0 $1 Rounding radius*
0 $2 $3 $4 $5 $6 $7 $8 $9 X,Y pos of 4 corners*
0 Add a 4 corners polygon primitive as box body*
4,1,4,$2,$3,$4,$5,$6,$7,$8,$9,$2,$3,0*
0 Add four circle primitives for the rounded corners*
1,1,$1+$1,$2,$3*
1,1,$1+$1,$4,$5*
1,1,$1+$1,$6,$7*
1,1,$1+$1,$8,$9*
0 Add four rect primitives between the rounded corners*
20,1,$1+$1,$2,$3,$4,$5,0*
20,1,$1+$1,$4,$5,$6,$7,0*
20,1,$1+$1,$6,$7,$8,$9,0*
20,1,$1+$1,$8,$9,$2,$3,0*%
G04 Aperture macros list end*
%TA.AperFunction,ComponentPad*%
%ADD10C,1.600000*%
%TD*%
%TA.AperFunction,ComponentPad*%
%ADD11R,2.000000X1.905000*%
%TD*%
%TA.AperFunction,ComponentPad*%
%ADD12O,2.000000X1.905000*%
%TD*%
%TA.AperFunction,ComponentPad*%
%ADD13R,1.700000X1.700000*%
%TD*%
%TA.AperFunction,ComponentPad*%
%ADD14C,1.700000*%
%TD*%
%TA.AperFunction,ComponentPad*%
%ADD15RoundRect,0.250000X0.550000X-0.550000X0.550000X0.550000X-0.550000X0.550000X-0.550000X-0.550000X0*%
%TD*%
%TA.AperFunction,ComponentPad*%
%ADD16R,1.270000X1.270000*%
%TD*%
%TA.AperFunction,ComponentPad*%
%ADD17C,1.270000*%
%TD*%
%TA.AperFunction,ComponentPad*%
%ADD18R,1.500000X1.050000*%
%TD*%
%TA.AperFunction,ComponentPad*%
%ADD19O,1.500000X1.050000*%
%TD*%
%TA.AperFunction,ComponentPad*%
%ADD20C,1.371600*%
%TD*%
%TA.AperFunction,ComponentPad*%
%ADD21R,1.651000X1.651000*%
%TD*%
%TA.AperFunction,ComponentPad*%
%ADD22C,1.651000*%
%TD*%
%TA.AperFunction,ComponentPad*%
%ADD23C,2.500000*%
%TD*%
%TA.AperFunction,ComponentPad*%
%ADD24C,2.057400*%
%TD*%
%TA.AperFunction,ComponentPad*%
%ADD25R,1.500000X1.500000*%
%TD*%
%TA.AperFunction,ComponentPad*%
%ADD26C,1.500000*%
%TD*%
%TA.AperFunction,ComponentPad*%
%ADD27RoundRect,0.250000X-0.550000X0.550000X-0.550000X-0.550000X0.550000X-0.550000X0.550000X0.550000X0*%
%TD*%
%TA.AperFunction,ComponentPad*%
%ADD28R,1.371600X1.371600*%
%TD*%
%TA.AperFunction,ComponentPad*%
%ADD29C,3.000000*%
%TD*%
%TA.AperFunction,ComponentPad*%
%ADD30RoundRect,0.250000X0.550000X0.550000X-0.550000X0.550000X-0.550000X-0.550000X0.550000X-0.550000X0*%
%TD*%
%TA.AperFunction,ViaPad*%
%ADD31C,0.600000*%
%TD*%
%TA.AperFunction,Conductor*%
%ADD32C,0.400000*%
%TD*%
G04 APERTURE END LIST*
D10*
%TO.P,R12,1*%
%TO.N,+5V*%
X149920000Y-101500000D03*
%TO.P,R12,2*%
%TO.N,I2C_5V_SCL*%
X160080000Y-101500000D03*
%TD*%
D11*
%TO.P,U2,1,VI_1*%
%TO.N,+5V*%
X164448306Y-101406365D03*
D12*
%TO.P,U2,2,GND_2*%
%TO.N,GND*%
X164448306Y-103946365D03*
%TO.P,U2,3,VO_3*%
%TO.N,+3V3*%
X164448306Y-106486365D03*
%TD*%
D10*
%TO.P,R11,1*%
%TO.N,Net-(MOSFET1-G)*%
X234500000Y-52920000D03*
%TO.P,R11,2*%
%TO.N,GND*%
X234500000Y-63080000D03*
%TD*%
D13*
%TO.P,J2,1,3V3_1*%
%TO.N,unconnected-(J2-3V3-Pad1)*%
X208780000Y-53540000D03*
D14*
%TO.P,J2,2,5V_2*%
%TO.N,RPI_5V*%
X208780000Y-51000000D03*
%TO.P,J2,3,GPIO2_3*%
%TO.N,I2C_3V3_SDA*%
X206240000Y-53540000D03*
%TO.P,J2,4,5V_4*%
%TO.N,RPI_5V*%
X206240000Y-51000000D03*
%TO.P,J2,5,GPIO3_5*%
%TO.N,I2C_3V3_SCL*%
X203700000Y-53540000D03*
%TO.P,J2,6,GND_6*%
%TO.N,GND*%
X203700000Y-51000000D03*
%TO.P,J2,7,GPIO4_7*%
%TO.N,UART_RAD1_RX*%
X201160000Y-53540000D03*
%TO.P,J2,8,GPIO14_8*%
%TO.N,UART_GPS_RX*%
X201160000Y-51000000D03*
%TO.P,J2,9,GND_9*%
%TO.N,GND*%
X198620000Y-53540000D03*
%TO.P,J2,10,GPIO15_10*%
%TO.N,UART_GPS_TX*%
X198620000Y-51000000D03*
%TO.P,J2,11,GPIO17_11*%
%TO.N,BTN_1*%
X196080000Y-53540000D03*
%TO.P,J2,12,GPIO18_12*%
%TO.N,unconnected-(J2-GPIO18-Pad12)*%
X196080000Y-51000000D03*
%TO.P,J2,13,GPIO27_13*%
%TO.N,BTN_2*%
X193540000Y-53540000D03*
%TO.P,J2,14,GND_14*%
%TO.N,GND*%
X193540000Y-51000000D03*
%TO.P,J2,15,GPIO22_15*%
%TO.N,BTN_3*%
X191000000Y-53540000D03*
%TO.P,J2,16,GPIO23_16*%
%TO.N,BTN_4*%
X191000000Y-51000000D03*
%TO.P,J2,17,3V3_17*%
%TO.N,unconnected-(J2-3V3-Pad17)*%
X188460000Y-53540000D03*
%TO.P,J2,18,GPIO24_18*%
%TO.N,BTN_5*%
X188460000Y-51000000D03*
%TO.P,J2,19,GPIO10_19*%
%TO.N,unconnected-(J2-GPIO10-Pad19)*%
X185920000Y-53540000D03*
%TO.P,J2,20,GND_20*%
%TO.N,GND*%
X185920000Y-51000000D03*
%TO.P,J2,21,GPIO9_21*%
%TO.N,UART_RAD2_TX*%
X183380000Y-53540000D03*
%TO.P,J2,22,GPIO25_22*%
%TO.N,BTN_6*%
X183380000Y-51000000D03*
%TO.P,J2,23,GPIO11_23*%
%TO.N,unconnected-(J2-GPIO11-Pad23)*%
X180840000Y-53540000D03*
%TO.P,J2,24,GPIO8_24*%
%TO.N,UART_RAD2_RX*%
X180840000Y-51000000D03*
%TO.P,J2,25,GND_25*%
%TO.N,GND*%
X178300000Y-53540000D03*
%TO.P,J2,26,GPIO7_26*%
%TO.N,unconnected-(J2-GPIO7-Pad26)*%
X178300000Y-51000000D03*
%TO.P,J2,27,ID_SD_27*%
%TO.N,unconnected-(J2-ID_SD-Pad27)*%
X175760000Y-53540000D03*
%TO.P,J2,28,ID_SC_28*%
%TO.N,unconnected-(J2-ID_SC-Pad28)*%
X175760000Y-51000000D03*
%TO.P,J2,29,GPIO5_29*%
%TO.N,UART_RAD1_TX*%
X173220000Y-53540000D03*
%TO.P,J2,30,GND_30*%
%TO.N,GND*%
X173220000Y-51000000D03*
%TO.P,J2,31,GPIO6_31*%
%TO.N,unconnected-(J2-GPIO6-Pad31)*%
X170680000Y-53540000D03*
%TO.P,J2,32,GPIO12_32*%
%TO.N,Vent_PWM*%
X170680000Y-51000000D03*
%TO.P,J2,33,GPIO13_33*%
%TO.N,unconnected-(J2-GPIO13-Pad33)*%
X168140000Y-53540000D03*
%TO.P,J2,34,GND_34*%
%TO.N,GND*%
X168140000Y-51000000D03*
%TO.P,J2,35,GPIO19_35*%
%TO.N,unconnected-(J2-GPIO19-Pad35)*%
X165600000Y-53540000D03*
%TO.P,J2,36,GPIO16_36*%
%TO.N,unconnected-(J2-GPIO16-Pad36)*%
X165600000Y-51000000D03*
%TO.P,J2,37,GPIO26_37*%
%TO.N,FAN_TACH*%
X163060000Y-53540000D03*
%TO.P,J2,38,GPIO20_38*%
%TO.N,unconnected-(J2-GPIO20-Pad38)*%
X163060000Y-51000000D03*
%TO.P,J2,39,GND_39*%
%TO.N,GND*%
X160520000Y-53540000D03*
%TO.P,J2,40,GPIO21_40*%
%TO.N,unconnected-(J2-GPIO21-Pad40)*%
X160520000Y-51000000D03*
%TD*%
D15*
%TO.P,C2,1*%
%TO.N,VIN*%
X135500000Y-66455113D03*
D10*
%TO.P,C2,2*%
%TO.N,GND*%
X135500000Y-64455113D03*
%TD*%
D13*
%TO.P,J8,1,Pin_1_1*%
%TO.N,BTN_5*%
X229000000Y-103775000D03*
D14*
%TO.P,J8,2,Pin_2_2*%
%TO.N,GND*%
X229000000Y-101235000D03*
%TD*%
D10*
%TO.P,R4,1*%
%TO.N,+3V3*%
X177288306Y-109986365D03*
%TO.P,R4,2*%
%TO.N,BTN_3*%
X187448306Y-109986365D03*
%TD*%
D13*
%TO.P,J10,1,VCC_1*%
%TO.N,+5V*%
X150380000Y-113000000D03*
D14*
%TO.P,J10,2,SCL_2*%
%TO.N,I2C_5V_SCL*%
X152920000Y-113000000D03*
%TO.P,J10,3,SDA_3*%
%TO.N,I2C_5V_SDA*%
X155460000Y-113000000D03*
%TO.P,J10,4,GND_4*%
%TO.N,GND*%
X158000000Y-113000000D03*
%TD*%
D16*
%TO.P,C16,1*%
%TO.N,+3V3*%
X173218306Y-105486365D03*
D17*
%TO.P,C16,2*%
%TO.N,GND*%
X170678306Y-105486365D03*
%TD*%
D18*
%TO.P,Q4,1,D_1*%
%TO.N,I2C_5V_SCL*%
X212500000Y-110770000D03*
D19*
%TO.P,Q4,2,G_2*%
%TO.N,+3V3*%
X212500000Y-109500000D03*
%TO.P,Q4,3,S_3*%
%TO.N,I2C_3V3_SCL*%
X212500000Y-108230000D03*
%TD*%
D13*
%TO.P,J12,1,VCC_1*%
%TO.N,+3V3*%
X198000000Y-102460000D03*
D14*
%TO.P,J12,2,RX_2*%
%TO.N,UART_GPS_RX*%
X198000000Y-105000000D03*
%TO.P,J12,3,TX_3*%
%TO.N,UART_GPS_TX*%
X198000000Y-107540000D03*
%TO.P,J12,4,GND_4*%
%TO.N,GND*%
X198000000Y-110080000D03*
%TD*%
D10*
%TO.P,R3,1*%
%TO.N,+3V3*%
X177368306Y-105486365D03*
%TO.P,R3,2*%
%TO.N,BTN_2*%
X187528306Y-105486365D03*
%TD*%
D20*
%TO.P,C6,1*%
%TO.N,BTN_4*%
X234500000Y-94250000D03*
%TO.P,C6,2*%
%TO.N,GND*%
X234500000Y-96750000D03*
%TD*%
D13*
%TO.P,J6,1,Pin_1_1*%
%TO.N,BTN_3*%
X223500000Y-112275000D03*
D14*
%TO.P,J6,2,Pin_2_2*%
%TO.N,GND*%
X223500000Y-109735000D03*
%TD*%
D20*
%TO.P,C4,1*%
%TO.N,BTN_2*%
X190698306Y-105486365D03*
%TO.P,C4,2*%
%TO.N,GND*%
X193198306Y-105486365D03*
%TD*%
D13*
%TO.P,J5,1,Pin_1_1*%
%TO.N,BTN_2*%
X229000000Y-112287878D03*
D14*
%TO.P,J5,2,Pin_2_2*%
%TO.N,GND*%
X229000000Y-109747878D03*
%TD*%
D21*
%TO.P,MOSFET1,1,G_1*%
%TO.N,Net-(MOSFET1-G)*%
X226500000Y-56500000D03*
D22*
%TO.P,MOSFET1,2,D_2*%
%TO.N,+5V*%
X226500000Y-53960000D03*
%TO.P,MOSFET1,3,S_3*%
%TO.N,RPI_5V*%
X226500000Y-51420000D03*
%TD*%
D13*
%TO.P,J7,1,Pin_1_1*%
%TO.N,BTN_4*%
X234500000Y-103775000D03*
D14*
%TO.P,J7,2,Pin_2_2*%
%TO.N,GND*%
X234500000Y-101235000D03*
%TD*%
D13*
%TO.P,J9,1,Pin_1_1*%
%TO.N,BTN_6*%
X223500000Y-103775000D03*
D14*
%TO.P,J9,2,Pin_2_2*%
%TO.N,GND*%
X223500000Y-101235000D03*
%TD*%
D13*
%TO.P,J3,1,Pin_1_1*%
%TO.N,Net-(J3-Pin_1)*%
X135500000Y-57500000D03*
D14*
%TO.P,J3,2,Pin_2_2*%
%TO.N,GND*%
X135500000Y-60040000D03*
%TD*%
D20*
%TO.P,C5,1*%
%TO.N,BTN_3*%
X190698306Y-109986365D03*
%TO.P,C5,2*%
%TO.N,GND*%
X193198306Y-109986365D03*
%TD*%
D10*
%TO.P,R13,1*%
%TO.N,+3V3*%
X203500000Y-111080000D03*
%TO.P,R13,2*%
%TO.N,I2C_3V3_SDA*%
X203500000Y-100920000D03*
%TD*%
%TO.P,R14,1*%
%TO.N,+5V*%
X149920000Y-105500000D03*
%TO.P,R14,2*%
%TO.N,I2C_5V_SDA*%
X160080000Y-105500000D03*
%TD*%
D23*
%TO.P,MOD1,1,IN+_1*%
%TO.N,VIN*%
X154540000Y-74460000D03*
%TO.P,MOD1,2,IN-_2*%
%TO.N,GND*%
X154540000Y-79540000D03*
%TO.P,MOD1,3,OUT-_3*%
X217460000Y-79540000D03*
%TO.P,MOD1,4,OUT+_4*%
%TO.N,+5V*%
X217460000Y-74460000D03*
%TD*%
D10*
%TO.P,R8,1*%
%TO.N,+3V3*%
X148580000Y-89000000D03*
%TO.P,R8,2*%
%TO.N,FAN_TACH*%
X138420000Y-89000000D03*
%TD*%
D24*
%TO.P,J17,5,Shell_5*%
%TO.N,GND*%
X138925826Y-92618399D03*
%TO.P,J17,6,Shell_6*%
X138925826Y-102018401D03*
%TO.P,J17,7,Shell_7*%
X136775701Y-92618384D03*
%TO.P,J17,8,Shell_8*%
X136775701Y-102018416D03*
%TD*%
D13*
%TO.P,J4,1,Pin_1_1*%
%TO.N,BTN_1*%
X234500000Y-112287878D03*
D14*
%TO.P,J4,2,Pin_2_2*%
%TO.N,GND*%
X234500000Y-109747878D03*
%TD*%
D10*
%TO.P,R7,1*%
%TO.N,+3V3*%
X224500000Y-80420000D03*
%TO.P,R7,2*%
%TO.N,BTN_6*%
X224500000Y-90580000D03*
%TD*%
%TO.P,R5,1*%
%TO.N,+3V3*%
X234500000Y-80420000D03*
%TO.P,R5,2*%
%TO.N,BTN_4*%
X234500000Y-90580000D03*
%TD*%
D25*
%TO.P,Q3,1,C_1*%
%TO.N,Net-(Q2-B)*%
X228540000Y-68050000D03*
D26*
%TO.P,Q3,2,B_2*%
X226000000Y-68050000D03*
%TO.P,Q3,3,E_3*%
%TO.N,+5V*%
X223460000Y-68050000D03*
%TD*%
D13*
%TO.P,J14,1,PWM_1*%
%TO.N,Vent_PWM*%
X133380000Y-85000000D03*
D14*
%TO.P,J14,2,TACH_2*%
%TO.N,FAN_TACH*%
X135920000Y-85000000D03*
%TO.P,J14,3,5V_3*%
%TO.N,+5V*%
X138460000Y-85000000D03*
%TO.P,J14,4,GND_4*%
%TO.N,GND*%
X141000000Y-85000000D03*
%TD*%
D27*
%TO.P,C14,1*%
%TO.N,+5V*%
X233000000Y-73500000D03*
D10*
%TO.P,C14,2*%
%TO.N,GND*%
X233000000Y-75500000D03*
%TD*%
D20*
%TO.P,C7,1*%
%TO.N,BTN_5*%
X229500000Y-94250000D03*
%TO.P,C7,2*%
%TO.N,GND*%
X229500000Y-96750000D03*
%TD*%
D16*
%TO.P,C9,1*%
%TO.N,+5V*%
X231730000Y-68000000D03*
D17*
%TO.P,C9,2*%
%TO.N,GND*%
X234270000Y-68000000D03*
%TD*%
D20*
%TO.P,C3,1*%
%TO.N,BTN_1*%
X190698306Y-100986365D03*
%TO.P,C3,2*%
%TO.N,GND*%
X193198306Y-100986365D03*
%TD*%
D13*
%TO.P,J11,1,VCC_1*%
%TO.N,+5V*%
X150380000Y-109000000D03*
D14*
%TO.P,J11,2,SCL_2*%
%TO.N,I2C_5V_SCL*%
X152920000Y-109000000D03*
%TO.P,J11,3,SDA_3*%
%TO.N,I2C_5V_SDA*%
X155460000Y-109000000D03*
%TO.P,J11,4,GND_4*%
%TO.N,GND*%
X158000000Y-109000000D03*
%TD*%
D25*
%TO.P,Q2,1,C_1*%
%TO.N,Net-(MOSFET1-G)*%
X228550000Y-62050000D03*
D26*
%TO.P,Q2,2,B_2*%
%TO.N,Net-(Q2-B)*%
X226010000Y-62050000D03*
%TO.P,Q2,3,E_3*%
%TO.N,RPI_5V*%
X223470000Y-62050000D03*
%TD*%
D27*
%TO.P,C11,1*%
%TO.N,+5V*%
X225500000Y-73500000D03*
D10*
%TO.P,C11,2*%
%TO.N,GND*%
X225500000Y-75500000D03*
%TD*%
D24*
%TO.P,J16,5,Shell_5*%
%TO.N,GND*%
X139019426Y-104599983D03*
%TO.P,J16,6,Shell_6*%
X139019426Y-113999985D03*
%TO.P,J16,7,Shell_7*%
X136869301Y-104599968D03*
%TO.P,J16,8,Shell_8*%
X136869301Y-114000000D03*
%TD*%
D10*
%TO.P,R6,1*%
%TO.N,+3V3*%
X229500000Y-80420000D03*
%TO.P,R6,2*%
%TO.N,BTN_5*%
X229500000Y-90580000D03*
%TD*%
D15*
%TO.P,SW1,1,A_1*%
%TO.N,Net-(SW1-A)*%
X135512500Y-78410000D03*
D10*
%TO.P,SW1,2,B_2*%
%TO.N,VIN*%
X135512500Y-70790000D03*
%TD*%
D13*
%TO.P,J1,1,Vcc_1*%
%TO.N,+3V3*%
X218500000Y-113000000D03*
D14*
%TO.P,J1,2,Pin_2_2*%
%TO.N,GND*%
X218500000Y-110460000D03*
%TO.P,J1,3,Pin_3_3*%
%TO.N,I2C_3V3_SCL*%
X218500000Y-107920000D03*
%TO.P,J1,4,Pin_4_4*%
%TO.N,I2C_3V3_SDA*%
X218500000Y-105380000D03*
%TO.P,J1,5,Pin_5_5*%
%TO.N,+3V3*%
X218500000Y-102840000D03*
%TO.P,J1,6,Pin_6_6*%
%TO.N,GND*%
X218500000Y-100300000D03*
%TD*%
D28*
%TO.P,C1,1*%
%TO.N,VIN*%
X142494800Y-51000000D03*
D20*
%TO.P,C1,2*%
%TO.N,GND*%
X146000000Y-51000000D03*
%TD*%
D10*
%TO.P,R10,1*%
%TO.N,Net-(Q2-B)*%
X231500000Y-52920000D03*
%TO.P,R10,2*%
%TO.N,GND*%
X231500000Y-63080000D03*
%TD*%
D20*
%TO.P,C10,1*%
%TO.N,+3V3*%
X173198306Y-100986365D03*
%TO.P,C10,2*%
%TO.N,GND*%
X170698306Y-100986365D03*
%TD*%
D10*
%TO.P,R1,1*%
%TO.N,+3V3*%
X206500000Y-111080000D03*
%TO.P,R1,2*%
%TO.N,I2C_3V3_SCL*%
X206500000Y-100920000D03*
%TD*%
%TO.P,R2,1*%
%TO.N,+3V3*%
X177368306Y-100986365D03*
%TO.P,R2,2*%
%TO.N,BTN_1*%
X187528306Y-100986365D03*
%TD*%
D29*
%TO.P,F1,1*%
%TO.N,Net-(J3-Pin_1)*%
X144000000Y-57750000D03*
%TO.P,F1,2*%
%TO.N,Net-(SW1-A)*%
X144000000Y-80250000D03*
%TD*%
D30*
%TO.P,C15,1*%
%TO.N,+3V3*%
X172903419Y-110486365D03*
D10*
%TO.P,C15,2*%
%TO.N,GND*%
X170903419Y-110486365D03*
%TD*%
D18*
%TO.P,Q5,1,D_1*%
%TO.N,I2C_5V_SDA*%
X212500000Y-103770000D03*
D19*
%TO.P,Q5,2,G_2*%
%TO.N,+3V3*%
X212500000Y-102500000D03*
%TO.P,Q5,3,S_3*%
%TO.N,I2C_3V3_SDA*%
X212500000Y-101230000D03*
%TD*%
D20*
%TO.P,C8,1*%
%TO.N,BTN_6*%
X224500000Y-94250000D03*
%TO.P,C8,2*%
%TO.N,GND*%
X224500000Y-96750000D03*
%TD*%
D31*
%TO.N,GND*%
X217000000Y-50000000D03*
%TO.N,+3V3*%
X218000000Y-88500000D03*
X162000000Y-99000000D03*
%TO.N,UART_RAD1_RX*%
X191500000Y-66000000D03*
%TO.N,UART_GPS_RX*%
X206000000Y-96000000D03*
%TO.N,UART_GPS_TX*%
X208000000Y-96000000D03*
%TO.N,BTN_1*%
X188800000Y-114300000D03*
%TO.N,UART_RAD1_TX*%
X163500000Y-97000000D03*
%TD*%
%TO.N,+5V*%
D32*
X223460000Y-68460000D02*
X223460000Y-68050000D01*
X230480000Y-69250000D02*
X230480000Y-69480000D01*
X225500000Y-70090000D02*
X225500000Y-73500000D01*
X160347767Y-100000000D02*
X159347766Y-99000000D01*
X150380000Y-113000000D02*
X150380000Y-109000000D01*
X163041941Y-100000000D02*
X160347767Y-100000000D01*
X224660000Y-69250000D02*
X225500000Y-70090000D01*
X226500000Y-53960000D02*
X224670000Y-55790000D01*
X164448306Y-101406365D02*
X163041941Y-100000000D01*
X159347766Y-99000000D02*
X152420000Y-99000000D01*
X224660000Y-69250000D02*
X223460000Y-68050000D01*
X230480000Y-69250000D02*
X224660000Y-69250000D01*
X224670000Y-55790000D02*
X224670000Y-66840000D01*
X224670000Y-66840000D02*
X223460000Y-68050000D01*
X217460000Y-74460000D02*
X223460000Y-68460000D01*
X152420000Y-99000000D02*
X149920000Y-101500000D01*
X149920000Y-105500000D02*
X149920000Y-101500000D01*
X230480000Y-69480000D02*
X233000000Y-72000000D01*
X150380000Y-105960000D02*
X149920000Y-105500000D01*
X231730000Y-68000000D02*
X230480000Y-69250000D01*
X233000000Y-72000000D02*
X233000000Y-73500000D01*
X150380000Y-109000000D02*
X150380000Y-105960000D01*
%TO.N,I2C_5V_SCL*%
X152920000Y-109000000D02*
X152920000Y-113000000D01*
X160080000Y-101500000D02*
X160080000Y-101840000D01*
X160080000Y-101840000D02*
X152920000Y-109000000D01*
%TO.N,GND*%
X135500000Y-64455113D02*
X135500000Y-60040000D01*
X234500000Y-67770000D02*
X234270000Y-68000000D01*
X235750000Y-78250000D02*
X235750000Y-81750000D01*
X136869301Y-114000000D02*
X139019411Y-114000000D01*
X158000000Y-109000000D02*
X159394671Y-109000000D01*
X170903419Y-105711478D02*
X170678306Y-105486365D01*
X139019411Y-104599968D02*
X139019426Y-104599983D01*
X234270000Y-68000000D02*
X236000000Y-69730000D01*
X234000000Y-75500000D02*
X233000000Y-75500000D01*
X136775701Y-92618384D02*
X138925811Y-92618384D01*
X236000000Y-73500000D02*
X234000000Y-75500000D01*
X148290000Y-85000000D02*
X153750000Y-79540000D01*
X169138306Y-103946365D02*
X170678306Y-105486365D01*
X138925811Y-102018416D02*
X138925826Y-102018401D01*
X197906365Y-109986365D02*
X198000000Y-110080000D01*
X220200000Y-108760000D02*
X219225000Y-109735000D01*
X193198306Y-105486365D02*
X193198306Y-109986365D01*
X229000000Y-97250000D02*
X229500000Y-96750000D01*
X215600000Y-77680000D02*
X217460000Y-79540000D01*
X221500000Y-75500000D02*
X225500000Y-75500000D01*
X158000000Y-109000000D02*
X158000000Y-113000000D01*
X218500000Y-110460000D02*
X215960000Y-113000000D01*
X135500000Y-60040000D02*
X144467717Y-60040000D01*
X232000000Y-85500000D02*
X227000000Y-90500000D01*
X219225000Y-109735000D02*
X218500000Y-110460000D01*
X170903419Y-110486365D02*
X170903419Y-105711478D01*
X217000000Y-50000000D02*
X219050000Y-52050000D01*
X234500000Y-96750000D02*
X232000000Y-94250000D01*
X136775701Y-102018416D02*
X138925811Y-102018416D01*
X219050000Y-52050000D02*
X219050000Y-69950000D01*
X136869301Y-102112016D02*
X136775701Y-102018416D01*
X234500000Y-109747878D02*
X229000000Y-109747878D01*
X236000000Y-69730000D02*
X236000000Y-73500000D01*
X164448306Y-103946365D02*
X169138306Y-103946365D01*
X146000000Y-58507717D02*
X146000000Y-51000000D01*
X193198306Y-109986365D02*
X197906365Y-109986365D01*
X231500000Y-63080000D02*
X234500000Y-63080000D01*
X215600000Y-73400000D02*
X215600000Y-77680000D01*
X193198306Y-100986365D02*
X193198306Y-105486365D01*
X136869301Y-104599968D02*
X139019411Y-104599968D01*
X139019411Y-114000000D02*
X139019426Y-113999985D01*
X170698306Y-105466365D02*
X170678306Y-105486365D01*
X234500000Y-63080000D02*
X234500000Y-67770000D01*
X229000000Y-109747878D02*
X223512878Y-109747878D01*
X235750000Y-81750000D02*
X232000000Y-85500000D01*
X232000000Y-94250000D02*
X232000000Y-85500000D01*
X170698306Y-100986365D02*
X170698306Y-105466365D01*
X223500000Y-101235000D02*
X224500000Y-100235000D01*
X136775701Y-102018416D02*
X136775701Y-92618384D01*
X223500000Y-109735000D02*
X219225000Y-109735000D01*
X138925811Y-92618384D02*
X138925826Y-92618399D01*
X144467717Y-60040000D02*
X146000000Y-58507717D01*
X159394671Y-109000000D02*
X164448306Y-103946365D01*
X227000000Y-90500000D02*
X227000000Y-94250000D01*
X215960000Y-113000000D02*
X200920000Y-113000000D01*
X153750000Y-79540000D02*
X154540000Y-79540000D01*
X217460000Y-79540000D02*
X221500000Y-75500000D01*
X220200000Y-102000000D02*
X220200000Y-108760000D01*
X224500000Y-100235000D02*
X224500000Y-96750000D01*
X218500000Y-100300000D02*
X220200000Y-102000000D01*
X136869301Y-114000000D02*
X136869301Y-104599968D01*
X234500000Y-101235000D02*
X234500000Y-96750000D01*
X226015000Y-100235000D02*
X229500000Y-96750000D01*
X223512878Y-109747878D02*
X223500000Y-109735000D01*
X141000000Y-85000000D02*
X148290000Y-85000000D01*
X136869301Y-104599968D02*
X136869301Y-102112016D01*
X233000000Y-75500000D02*
X235750000Y-78250000D01*
X233000000Y-75500000D02*
X225500000Y-75500000D01*
X227000000Y-94250000D02*
X224500000Y-96750000D01*
X224500000Y-100235000D02*
X226015000Y-100235000D01*
X229000000Y-101235000D02*
X229000000Y-97250000D01*
X219050000Y-69950000D02*
X215600000Y-73400000D01*
X200920000Y-113000000D02*
X198000000Y-110080000D01*
%TO.N,+3V3*%
X162000000Y-99000000D02*
X162000000Y-97100862D01*
X177368306Y-100986365D02*
X173198306Y-100986365D01*
X208080000Y-109500000D02*
X212500000Y-109500000D01*
X173218306Y-101006365D02*
X173198306Y-100986365D01*
X224500000Y-80420000D02*
X224500000Y-82000000D01*
X203500000Y-107960000D02*
X198000000Y-102460000D01*
X172903419Y-110096581D02*
X173218306Y-109781694D01*
X153899138Y-89000000D02*
X148580000Y-89000000D01*
X234500000Y-80420000D02*
X229500000Y-80420000D01*
X206500000Y-111080000D02*
X208080000Y-109500000D01*
X169698306Y-111736365D02*
X171653419Y-111736365D01*
X171653419Y-111736365D02*
X172903419Y-110486365D01*
X229500000Y-80420000D02*
X224500000Y-80420000D01*
X173218306Y-109781694D02*
X173218306Y-105486365D01*
X206500000Y-111080000D02*
X203500000Y-111080000D01*
X162000000Y-97100862D02*
X153899138Y-89000000D01*
X172903419Y-110486365D02*
X172903419Y-110096581D01*
X203500000Y-111080000D02*
X203500000Y-107960000D01*
X173218306Y-105486365D02*
X173218306Y-101006365D01*
X224500000Y-82000000D02*
X218000000Y-88500000D01*
X177368306Y-105486365D02*
X173218306Y-105486365D01*
X177288306Y-109986365D02*
X173403419Y-109986365D01*
X164448306Y-106486365D02*
X169698306Y-111736365D01*
X173403419Y-109986365D02*
X172903419Y-110486365D01*
%TO.N,Net-(MOSFET1-G)*%
X226500000Y-56152233D02*
X230982233Y-51670000D01*
X230982233Y-51670000D02*
X233250000Y-51670000D01*
X233250000Y-51670000D02*
X234500000Y-52920000D01*
X226500000Y-56500000D02*
X226500000Y-56152233D01*
X228550000Y-62050000D02*
X234500000Y-56100000D01*
X234500000Y-56100000D02*
X234500000Y-52920000D01*
%TO.N,RPI_5V*%
X223470000Y-54450000D02*
X223470000Y-62050000D01*
X226500000Y-51420000D02*
X223470000Y-54450000D01*
%TO.N,I2C_3V3_SDA*%
X210940000Y-99670000D02*
X212500000Y-101230000D01*
X204750000Y-99670000D02*
X210940000Y-99670000D01*
X213730000Y-101230000D02*
X217880000Y-105380000D01*
X212500000Y-101230000D02*
X213730000Y-101230000D01*
X217880000Y-105380000D02*
X218500000Y-105380000D01*
X206240000Y-53540000D02*
X203500000Y-56280000D01*
X203500000Y-100920000D02*
X204750000Y-99670000D01*
X203500000Y-56280000D02*
X203500000Y-100920000D01*
%TO.N,I2C_3V3_SCL*%
X204420000Y-103000000D02*
X205250000Y-102170000D01*
X212500000Y-108230000D02*
X218190000Y-108230000D01*
X202000000Y-103000000D02*
X204420000Y-103000000D01*
X199500000Y-100500000D02*
X202000000Y-103000000D01*
X218190000Y-108230000D02*
X218500000Y-107920000D01*
X205250000Y-103750000D02*
X209730000Y-108230000D01*
X205250000Y-102170000D02*
X205250000Y-103750000D01*
X199500000Y-57740000D02*
X199500000Y-100500000D01*
X209730000Y-108230000D02*
X212500000Y-108230000D01*
X203700000Y-53540000D02*
X199500000Y-57740000D01*
X205250000Y-102170000D02*
X206500000Y-100920000D01*
%TO.N,UART_RAD1_RX*%
X191500000Y-66000000D02*
X193500000Y-64000000D01*
X193500000Y-61200000D02*
X201160000Y-53540000D01*
X193500000Y-64000000D02*
X193500000Y-61200000D01*
%TO.N,UART_GPS_RX*%
X206000000Y-94000000D02*
X211000000Y-89000000D01*
X203660000Y-48500000D02*
X201160000Y-51000000D01*
X210560661Y-48500000D02*
X203660000Y-48500000D01*
X211000000Y-48939339D02*
X210560661Y-48500000D01*
X206000000Y-96000000D02*
X206000000Y-94000000D01*
X211000000Y-89000000D02*
X211000000Y-48939339D01*
%TO.N,UART_GPS_TX*%
X201770000Y-47850000D02*
X210829899Y-47850000D01*
X210829899Y-47850000D02*
X211650000Y-48670101D01*
X211650000Y-92350000D02*
X208000000Y-96000000D01*
X198620000Y-51000000D02*
X201770000Y-47850000D01*
X211650000Y-48670101D02*
X211650000Y-92350000D01*
%TO.N,BTN_1*%
X188800000Y-114300000D02*
X185548306Y-111048306D01*
X185548306Y-111048306D02*
X185548306Y-102966365D01*
X190500000Y-100788059D02*
X190698306Y-100986365D01*
X185548306Y-102966365D02*
X187528306Y-100986365D01*
X190500000Y-59120000D02*
X190500000Y-100788059D01*
X196080000Y-53540000D02*
X190500000Y-59120000D01*
%TO.N,BTN_2*%
X189562506Y-57517494D02*
X189562506Y-104350565D01*
X193540000Y-53540000D02*
X189562506Y-57517494D01*
X186198306Y-106816365D02*
X187528306Y-105486365D01*
X190644174Y-114950000D02*
X186198306Y-110504132D01*
X229000000Y-112287878D02*
X226337878Y-114950000D01*
X189562506Y-104350565D02*
X190698306Y-105486365D01*
X226337878Y-114950000D02*
X190644174Y-114950000D01*
X186198306Y-110504132D02*
X186198306Y-106816365D01*
%TO.N,BTN_3*%
X188778306Y-55761694D02*
X188778306Y-108066365D01*
X195011941Y-114300000D02*
X190698306Y-109986365D01*
X221475000Y-114300000D02*
X195011941Y-114300000D01*
X223500000Y-112275000D02*
X221475000Y-114300000D01*
X191000000Y-53540000D02*
X188778306Y-55761694D01*
X188778306Y-108066365D02*
X190698306Y-109986365D01*
X190698306Y-109986365D02*
X187448306Y-109986365D01*
%TO.N,BTN_4*%
X234500000Y-94250000D02*
X234500000Y-90580000D01*
X222500000Y-107500000D02*
X231500000Y-107500000D01*
X212500000Y-92073478D02*
X220850000Y-100423478D01*
X220850000Y-105757716D02*
X221000000Y-105907717D01*
X236500000Y-96250000D02*
X234500000Y-94250000D01*
X234500000Y-103775000D02*
X236500000Y-101775000D01*
X220850000Y-100423478D02*
X220850000Y-105757716D01*
X212500000Y-48600862D02*
X212500000Y-92073478D01*
X194800000Y-47200000D02*
X211099138Y-47200000D01*
X221000000Y-105907717D02*
X221000000Y-106000000D01*
X221000000Y-106000000D02*
X222500000Y-107500000D01*
X231500000Y-107500000D02*
X234500000Y-104500000D01*
X191000000Y-51000000D02*
X194800000Y-47200000D01*
X211099138Y-47200000D02*
X212500000Y-48600862D01*
X234500000Y-104500000D02*
X234500000Y-103775000D01*
X236500000Y-101775000D02*
X236500000Y-96250000D01*
%TO.N,BTN_5*%
X192910000Y-46550000D02*
X211368377Y-46550000D01*
X229500000Y-94250000D02*
X229500000Y-90580000D01*
X211368377Y-46550000D02*
X213500000Y-48681623D01*
X213500000Y-86600862D02*
X221500000Y-94600862D01*
X231000000Y-101775000D02*
X231000000Y-95750000D01*
X222861522Y-106850000D02*
X225925000Y-106850000D01*
X188460000Y-51000000D02*
X192910000Y-46550000D01*
X225925000Y-106850000D02*
X229000000Y-103775000D01*
X221500000Y-94600862D02*
X221500000Y-105488478D01*
X213500000Y-48681623D02*
X213500000Y-86600862D01*
X231000000Y-95750000D02*
X229500000Y-94250000D01*
X221500000Y-105488478D02*
X222861522Y-106850000D01*
X229000000Y-103775000D02*
X231000000Y-101775000D01*
%TO.N,BTN_6*%
X183380000Y-51000000D02*
X188480000Y-45900000D01*
X222200000Y-102475000D02*
X223500000Y-103775000D01*
X222200000Y-94381624D02*
X222200000Y-102475000D01*
X214950000Y-87131624D02*
X222200000Y-94381624D01*
X224500000Y-94250000D02*
X222331624Y-94250000D01*
X224500000Y-94250000D02*
X224500000Y-90580000D01*
X188480000Y-45900000D02*
X211637616Y-45900000D01*
X214950000Y-49212384D02*
X214950000Y-87131624D01*
X211637616Y-45900000D02*
X214950000Y-49212384D01*
X222331624Y-94250000D02*
X222200000Y-94381624D01*
%TO.N,UART_RAD1_TX*%
X173220000Y-53540000D02*
X173220000Y-87280000D01*
X173220000Y-87280000D02*
X163500000Y-97000000D01*
%TO.N,Vent_PWM*%
X147704164Y-83700000D02*
X134680000Y-83700000D01*
X134680000Y-83700000D02*
X133380000Y-85000000D01*
X157000000Y-74404164D02*
X147704164Y-83700000D01*
X152950000Y-61849138D02*
X157000000Y-65899138D01*
X169380000Y-49700000D02*
X159981522Y-49700000D01*
X157000000Y-65899138D02*
X157000000Y-74404164D01*
X159981522Y-49700000D02*
X152950000Y-56731522D01*
X170680000Y-51000000D02*
X169380000Y-49700000D01*
X152950000Y-56731522D02*
X152950000Y-61849138D01*
%TO.N,FAN_TACH*%
X146000000Y-86500000D02*
X143500000Y-89000000D01*
X153000000Y-82000000D02*
X148500000Y-86500000D01*
X163060000Y-53540000D02*
X163060000Y-77940000D01*
X135920000Y-85000000D02*
X138420000Y-87500000D01*
X159000000Y-82000000D02*
X153000000Y-82000000D01*
X138420000Y-87500000D02*
X138420000Y-89000000D01*
X143500000Y-89000000D02*
X138420000Y-89000000D01*
X163060000Y-77940000D02*
X159000000Y-82000000D01*
X148500000Y-86500000D02*
X146000000Y-86500000D01*
%TO.N,VIN*%
X154540000Y-74460000D02*
X139182500Y-74460000D01*
X134200000Y-56200000D02*
X139400000Y-51000000D01*
X139182500Y-74460000D02*
X135512500Y-70790000D01*
X135500000Y-66455113D02*
X134200000Y-65155113D01*
X135512500Y-66467613D02*
X135500000Y-66455113D01*
X135512500Y-70790000D02*
X135512500Y-66467613D01*
X139400000Y-51000000D02*
X142494800Y-51000000D01*
X134200000Y-65155113D02*
X134200000Y-56200000D01*
%TO.N,I2C_5V_SDA*%
X160080000Y-105500000D02*
X158960000Y-105500000D01*
X158960000Y-105500000D02*
X155460000Y-109000000D01*
X155460000Y-109000000D02*
X155460000Y-113000000D01*
%TO.N,Net-(J3-Pin_1)*%
X143750000Y-57500000D02*
X144000000Y-57750000D01*
X135500000Y-57500000D02*
X143750000Y-57500000D01*
%TO.N,Net-(Q2-B)*%
X226000000Y-62060000D02*
X226010000Y-62050000D01*
X231500000Y-52920000D02*
X231500000Y-56560000D01*
X226000000Y-68050000D02*
X228540000Y-68050000D01*
X231500000Y-56560000D02*
X226010000Y-62050000D01*
X226000000Y-68050000D02*
X226000000Y-62060000D01*
%TO.N,Net-(SW1-A)*%
X144000000Y-80250000D02*
X137352500Y-80250000D01*
X137352500Y-80250000D02*
X135512500Y-78410000D01*
%TD*%
M02*
